<svg width="500" height="117" viewBox="0 0 500 117" fill="none" xmlns="http://www.w3.org/2000/svg">
<path d="M169.859 22.9238V37.6895H166.386V31.8105H162.504V28.9941H166.386V22.9238H169.859ZM161.355 38.2363C166.66 38.2637 169.914 40.0137 169.941 43.0488C169.914 46.0566 166.66 47.834 161.355 47.834C156.05 47.834 152.797 46.0566 152.797 43.0488C152.797 40.0137 156.05 38.2637 161.355 38.2363ZM161.355 40.916C158.047 40.916 156.269 41.5996 156.269 43.0488C156.269 44.4707 158.047 45.1816 161.355 45.1816C164.664 45.1816 166.468 44.4707 166.468 43.0488C166.468 41.5996 164.664 40.916 161.355 40.916ZM163.242 24.4277V27.2168H158.293C158.375 30.1152 160.125 33.041 164.008 34.3262L162.285 37.0605C159.537 36.1719 157.65 34.3672 156.57 32.1113C155.463 34.6543 153.48 36.7051 150.527 37.7168L148.722 34.9551C152.81 33.5879 154.642 30.334 154.738 27.2168H149.734V24.4277H163.242ZM195.863 42.0645V44.9082H173.086V42.0645H182.683V37.4707H175.492V24.5098H178.992V28.3652H189.847V24.5098H193.32V37.4707H186.156V42.0645H195.863ZM178.992 34.6816H189.847V31.1543H178.992V34.6816ZM219.98 35.748V38.4824H197.23V35.748H206.855V34.2168H200.074V23.5254H217.328V26.2051H203.574V27.5996H216.754V30.1152H203.574V31.5371H217.547V34.2168H210.355V35.748H219.98ZM208.605 39.6309C214.101 39.6035 217.246 41.0801 217.273 43.7051C217.246 46.3848 214.101 47.8066 208.605 47.8066C203.027 47.8066 199.883 46.3848 199.883 43.7051C199.883 41.0801 203.027 39.6035 208.605 39.6309ZM208.605 42.2012C205.023 42.2012 203.355 42.666 203.383 43.7051C203.355 44.7715 205.023 45.2363 208.605 45.2363C212.105 45.2363 213.746 44.7715 213.773 43.7051C213.746 42.666 212.105 42.2012 208.605 42.2012ZM242.32 22.9512V41.1074H238.82V22.9512H242.32ZM242.976 44.5801V47.3691H225.64V39.3574H229.168V44.5801H242.976ZM231.027 26.7246C231 30.0059 232.75 33.2324 236.851 34.5449L235.074 37.2793C232.271 36.3496 230.33 34.4902 229.222 32.1113C228.115 34.668 226.119 36.7188 223.207 37.7168L221.402 34.9551C225.586 33.5605 227.39 30.0879 227.39 26.7246V24.3184H231.027V26.7246ZM267.203 22.9238V47.8066H263.894V35.3105H261.488V46.6035H258.289V23.334H261.488V32.5215H263.894V22.9238H267.203ZM255.664 25.7949V28.6113H249.894V39.2207C252.3 39.207 254.433 39.084 256.84 38.6465L257.086 41.4902C254.05 42.0645 251.398 42.1465 248.117 42.1738H246.394V25.7949H255.664ZM284.648 25.1387V27.9004H269.883V25.1387H275.543V22.7871H279.015V25.1387H284.648ZM277.265 28.6934C280.875 28.6934 283.39 30.5527 283.39 33.2871C283.39 36.0215 280.875 37.8809 277.265 37.8809C273.656 37.8809 271.086 36.0215 271.086 33.2871C271.086 30.5527 273.656 28.6934 277.265 28.6934ZM277.265 31.3184C275.597 31.3184 274.476 32.002 274.504 33.2871C274.476 34.5449 275.597 35.2012 277.265 35.2012C278.933 35.2012 280.082 34.5449 280.082 33.2871C280.082 32.002 278.933 31.3184 277.265 31.3184ZM289.625 22.9238V29.377H292.988V32.2207H289.625V38.5371H286.125V22.9238H289.625ZM289.625 39.5762V47.8066H286.125V42.3652H272.863V39.5762H289.625ZM322.054 22.9238V47.8066H318.746V35.3105H316.34V46.6035H313.14V23.334H316.34V32.5215H318.746V22.9238H322.054ZM310.515 25.7949V28.6113H304.746V39.2207C307.152 39.207 309.285 39.084 311.691 38.6465L311.937 41.4902C308.902 42.0645 306.25 42.1465 302.968 42.1738H301.246V25.7949H310.515ZM339.5 25.1387V27.9004H324.734V25.1387H330.394V22.7871H333.867V25.1387H339.5ZM332.117 28.6934C335.726 28.6934 338.242 30.5527 338.242 33.2871C338.242 36.0215 335.726 37.8809 332.117 37.8809C328.508 37.8809 325.937 36.0215 325.937 33.2871C325.937 30.5527 328.508 28.6934 332.117 28.6934ZM332.117 31.3184C330.449 31.3184 329.328 32.002 329.355 33.2871C329.328 34.5449 330.449 35.2012 332.117 35.2012C333.785 35.2012 334.933 34.5449 334.933 33.2871C334.933 32.002 333.785 31.3184 332.117 31.3184ZM344.476 22.9238V29.377H347.84V32.2207H344.476V38.5371H340.976V22.9238H344.476ZM344.476 39.5762V47.8066H340.976V42.3652H327.715V39.5762H344.476ZM370.015 22.9512V41.7363H366.515V39.7676H361.758V37.3887H366.515V22.9512H370.015ZM370.562 44.5801V47.3691H352.023V39.9316H355.496V36.623C353.267 36.7188 351.148 36.7324 349.261 36.7324L348.851 33.9707C353.418 33.9434 359.57 33.8887 364.82 33.2324L365.011 35.7207C363.043 36.0488 361.006 36.2812 358.996 36.4316V41.1621H355.496V44.5801H370.562ZM356.945 23.7988C360.554 23.7715 363.152 25.6035 363.152 28.2559C363.152 30.9082 360.554 32.6309 356.945 32.6309C353.254 32.6309 350.683 30.9082 350.683 28.2559C350.683 25.6035 353.226 23.7715 356.945 23.7988ZM356.945 26.3418C355.168 26.3418 353.965 27.0254 353.992 28.2559C353.965 29.459 355.168 30.1152 356.945 30.1152C358.613 30.1152 359.816 29.459 359.843 28.2559C359.816 27.0254 358.613 26.3418 356.945 26.3418ZM165.898 65.041V67.041H149.336V65.041H156.398V61.916H158.836V65.041H165.898ZM157.617 68.4785C161.617 68.5098 164.273 70.4473 164.304 73.5098C164.273 76.541 161.617 78.5098 157.617 78.5098C153.617 78.5098 150.898 76.541 150.929 73.5098C150.898 70.4473 153.617 68.5098 157.617 68.4785ZM157.617 70.3848C154.992 70.416 153.242 71.6348 153.273 73.5098C153.242 75.3535 154.992 76.541 157.617 76.541C160.211 76.541 161.961 75.3535 161.992 73.5098C161.961 71.6348 160.211 70.416 157.617 70.3848ZM170.992 62.041V69.7598H175.179V71.8223H170.992V79.416H168.554V62.041H170.992ZM170.992 80.9473V89.8223H168.554V82.9473H152.804V80.9473H170.992ZM186.086 63.416C190.242 63.3848 193.211 65.666 193.211 69.0723C193.211 72.4473 190.242 74.791 186.086 74.7598C181.929 74.791 178.961 72.4473 178.961 69.0723C178.961 65.666 181.929 63.3848 186.086 63.416ZM186.086 65.416C183.304 65.3848 181.336 66.916 181.367 69.0723C181.336 71.2598 183.304 72.7598 186.086 72.7285C188.898 72.7598 190.867 71.2598 190.867 69.0723C190.867 66.916 188.898 65.3848 186.086 65.416ZM199.836 62.0723V89.8535H197.429V62.0723H199.836ZM176.867 77.1348C182.086 77.1348 189.211 77.041 195.398 76.1348L195.554 77.9785C192.898 78.4629 190.133 78.7598 187.461 78.916V88.9785H185.023V79.0723C182.195 79.1973 179.523 79.2129 177.211 79.2285L176.867 77.1348ZM227.023 70.541V72.541H218.461V76.6035H229.929V78.6348H204.586V76.6035H216.054V72.541H208.054V63.1035H210.461V70.541H227.023ZM227.242 87.166V89.2285H207.836V80.916H210.273V87.166H227.242ZM257.648 76.2598V78.291H246.336V83.9785H243.898V78.291H232.211V76.2598H257.648ZM254.336 63.416V73.0723H235.523V63.416H254.336ZM237.929 65.3535V71.1035H251.898V65.3535H237.929ZM254.804 87.166V89.2285H235.461V81.2285H237.929V87.166H254.804ZM290.867 62.0723V77.8535H288.429V62.0723H290.867ZM290.867 79.4473V89.4473H272.804V79.4473H290.867ZM275.211 81.4473V87.4473H288.461V81.4473H275.211ZM277.773 65.8848C277.742 69.8223 280.742 73.291 284.836 74.7285L283.586 76.6035C280.367 75.4941 277.804 73.1504 276.554 70.1035C275.32 73.3535 272.726 75.916 269.398 77.1348L268.148 75.1973C272.367 73.7285 275.273 69.9785 275.273 65.8848V63.166H277.773V65.8848ZM304.898 69.5098C304.898 74.416 308.148 79.4473 312.086 81.3848L310.586 83.3535C307.523 81.7441 304.961 78.4629 303.742 74.6035C302.492 78.7129 299.867 82.2129 296.742 83.8848L295.179 81.916C299.242 79.916 302.461 74.5723 302.492 69.5098V64.4473H304.898V69.5098ZM317.086 62.041V73.3223H321.742V75.4473H317.086V89.8223H314.648V62.041H317.086ZM341.148 69.5098C341.117 74.5723 344.586 79.6973 348.679 81.541L347.179 83.4785C344.023 81.9316 341.289 78.666 339.961 74.6973C338.664 78.9004 335.929 82.4004 332.679 84.041L331.117 81.9785C335.242 80.0723 338.679 74.791 338.711 69.5098V64.4473H341.148V69.5098ZM354.179 62.041V89.8848H351.711V62.041H354.179ZM372.773 66.1348C372.773 70.8848 378.211 75.1348 383.054 76.041L381.929 78.1035C377.742 77.1348 373.32 74.1504 371.523 70.041C369.726 74.1348 365.32 77.1191 361.117 78.1035L359.992 76.041C364.804 75.1035 370.211 70.916 370.211 66.1348V64.0098H372.773V66.1348ZM384.367 84.0098V86.041H358.929V84.0098H384.367ZM398.492 63.8535V65.916H390.242V69.3535H397.336V71.291H390.242V75.0723C394.258 75.0566 396.758 74.916 399.742 74.3535L399.992 76.3223C396.773 76.916 394.148 77.0723 389.648 77.0723H387.898V63.8535H398.492ZM410.179 62.041V78.791H407.836V62.041H410.179ZM404.773 62.541V78.541H402.398V71.0723H398.648V69.041H402.398V62.541H404.773ZM410.179 80.0723V89.4473H391.836V80.0723H410.179ZM394.242 82.0723V87.4473H407.773V82.0723H394.242Z" fill="#878E95"/>
<g clip-path="url(#clip0_316_8577)">
<path d="M93.7507 90.4189C93.7507 90.4189 92.8498 91.3625 92.7431 91.4798C92.8658 91.5917 94.8862 93.5322 94.8862 93.5322L93.74 94.7317C93.74 94.7317 91.7089 92.7965 91.5916 92.6792C91.485 92.7912 90.6161 93.6975 90.5095 93.8094C90.6267 93.9214 92.6578 95.8618 92.6578 95.8618C92.6578 95.8618 91.2451 97.3385 91.1279 97.4611C91.2398 97.5678 92.0181 98.3141 92.1301 98.4154C92.2474 98.2874 99.4655 90.7388 99.5881 90.6108C99.4762 90.5095 98.6925 89.7578 98.5859 89.6512C98.4686 89.7738 95.9684 92.3914 95.9684 92.3914C95.9684 92.3914 93.9426 90.4509 93.82 90.3389C93.788 90.3762 93.7454 90.4136 93.7454 90.4136L93.7507 90.4189Z" fill="#919195"/>
<path d="M96.8054 89.2727C96.6774 89.1555 92.498 85.1679 92.37 85.0453C92.338 85.0826 92.3007 85.1199 92.3007 85.1199C92.3007 85.1199 86.0368 91.677 85.9142 91.8103C86.0208 91.9169 86.8045 92.6632 86.9111 92.7645C87.039 92.6366 92.2954 87.1297 92.2954 87.1297C92.2954 87.1297 95.5953 90.2856 95.7232 90.4029L96.8054 89.2727Z" fill="#919195"/>
<path d="M20.2044 92.4713C19.1116 93.4949 19.1436 95.3181 20.2844 96.5389C21.4252 97.7597 23.2431 97.9249 24.3359 96.9014C25.4341 95.8778 25.3968 94.0493 24.2613 92.8285C23.1205 91.6077 21.3026 91.4478 20.2044 92.4767V92.4713ZM21.2067 93.5215C21.7877 92.9778 22.7526 93.0577 23.355 93.7028C23.9574 94.3478 23.9734 95.3181 23.387 95.8618C22.8006 96.4056 21.8357 96.3256 21.2333 95.6806C20.6362 95.0355 20.6256 94.0653 21.2067 93.5215Z" fill="#919195"/>
<path d="M30.2267 91.3198C30.2267 91.3198 29.3684 90.4029 29.2671 90.2963C29.1498 90.4029 28.009 91.4638 28.009 91.4638C28.009 91.4638 26.9055 90.275 26.7935 90.163C26.6869 90.259 25.9246 90.968 25.818 91.0693C25.9299 91.1812 27.0388 92.37 27.0388 92.37C27.0388 92.37 25.5088 93.7987 25.3915 93.9054C25.4928 94.012 26.3137 94.9023 26.4204 95.0089C26.543 94.9023 30.1734 91.5064 30.296 91.3945C30.264 91.3571 30.2267 91.3198 30.2267 91.3198Z" fill="#919195"/>
<path d="M25.6314 86.3514C25.6314 86.3514 20.1031 86.5753 19.9326 86.5806C19.9379 86.7299 20.0232 87.9453 20.0338 88.0893C20.1991 88.0786 24.1174 87.86 24.1174 87.86C24.1174 87.86 23.6376 91.5331 23.6109 91.6983C23.7549 91.7143 24.9597 91.8849 25.1089 91.9009C25.1303 91.7303 25.7273 86.5326 25.754 86.3407C25.6954 86.3407 25.6367 86.3407 25.6367 86.3407L25.6314 86.3514Z" fill="#919195"/>
<path d="M70.8701 109.754L72.3681 109.498L70.6889 99.6468L70.5876 99.6628C70.5876 99.6628 69.3454 99.8761 69.1962 99.9027C69.2175 100.068 69.7133 102.931 69.7133 102.931L68.8337 103.085C68.8337 103.085 68.3485 100.223 68.3166 100.052L66.8132 100.308L67.8741 106.566C66.6853 106.764 63.1348 107.377 63.1348 107.377L62.3139 102.563C62.3139 102.563 65.6564 101.992 65.8163 101.966L65.6084 100.718C65.6084 100.718 65.5978 100.718 65.5818 100.718L60.6133 101.566C60.9225 103.341 61.8554 108.811 61.8767 108.955L68.1033 107.894L68.4925 110.165L70.0012 109.909C69.9745 109.738 69.0682 104.402 69.0682 104.402L69.9425 104.253C69.9425 104.253 70.8541 109.594 70.8808 109.754H70.8701Z" fill="#919195"/>
<path d="M40.4355 102.131C40.4355 102.131 40.2596 102.04 39.9717 101.886L41.8322 98.4047C41.7896 98.3834 41.7469 98.3621 41.7469 98.3621C41.7469 98.3621 33.937 94.1932 33.7878 94.1133L33.148 95.3127C33.2973 95.398 39.8438 98.8898 39.8438 98.8898C39.8438 98.8898 39.0974 100.287 38.623 101.177L31.3248 97.2799L30.6905 98.474C30.8344 98.5487 33.5532 99.9987 33.5532 99.9987C33.5532 99.9987 32.7855 101.433 32.7162 101.571L34.081 102.302C34.1556 102.163 34.9233 100.729 34.9233 100.729L36.1387 101.374C36.1387 101.374 35.3764 102.808 35.3018 102.947L36.6718 103.682C36.7465 103.544 37.5141 102.11 37.5141 102.11C37.5141 102.11 39.7425 103.299 39.8864 103.379L40.5261 102.179C40.4835 102.158 40.4408 102.136 40.4408 102.136L40.4355 102.131ZM32.2045 100.324L30.8504 99.6042L29.1765 102.744L37.3915 107.132L38.0259 105.932C37.8766 105.852 31.1596 102.27 31.1596 102.27C31.1596 102.27 32.1245 100.468 32.2045 100.324Z" fill="#919195"/>
<path d="M46.9126 106.412C46.8647 106.407 46.8167 106.396 46.8167 106.396C46.8167 106.396 45.5532 106.193 45.404 106.172L44.8496 109.685L54.1095 111.151L54.3174 109.808C54.1521 109.786 46.5661 108.582 46.5661 108.582C46.5661 108.582 46.886 106.566 46.9126 106.401V106.412ZM55.3196 103.016C55.3196 103.016 55.5702 101.443 55.5968 101.289C55.5488 101.289 55.4955 101.278 55.4955 101.278C55.4955 101.278 54.2374 101.081 54.0882 101.054L53.4378 105.138L51.9078 104.893L52.5208 100.99C52.4729 100.98 52.4249 100.974 52.4249 100.974C52.4249 100.974 46.2676 99.9987 46.0917 99.972L45.8838 101.315C46.049 101.337 50.7936 102.088 50.7936 102.088C50.7936 102.088 50.5164 103.853 50.3884 104.653C49.5355 104.519 48.8691 104.413 48.8691 104.413C48.8691 104.413 49.0717 103.133 49.093 102.984C49.045 102.984 48.9917 102.973 48.9917 102.973C48.9917 102.973 47.707 102.765 47.5577 102.744C47.5364 102.899 47.3285 104.167 47.3285 104.167C47.3285 104.167 45.1534 103.826 44.9988 103.8L44.7856 105.143L53.2192 106.476L52.974 108.038L54.4826 108.278C54.5093 108.112 55.1064 104.343 55.1064 104.343C55.1064 104.343 56.4978 104.562 56.6524 104.589L56.8603 103.261C56.7057 103.235 55.3143 103.016 55.3143 103.016H55.3196Z" fill="#919195"/>
<path d="M82.6676 93.7401C82.6676 93.7401 81.5748 94.3478 81.4362 94.4225C81.5161 94.5664 84.1976 99.4229 84.2882 99.5669C84.4162 99.4976 85.4771 98.9112 85.605 98.8365C85.525 98.6926 84.2296 96.3523 84.2296 96.3523C84.2296 96.3523 85.4344 95.6859 85.573 95.6113C85.509 95.4833 84.9973 94.5771 84.928 94.4491C84.7947 94.5238 83.5899 95.1901 83.5899 95.1901C83.5899 95.1901 82.8329 93.8254 82.7582 93.6815C82.7156 93.7081 82.673 93.7348 82.673 93.7348L82.6676 93.7401Z" fill="#919195"/>
<path d="M85.8395 99.5082C85.8395 99.5082 77.7524 103.981 77.6031 104.061C77.6725 104.189 78.1842 105.111 78.2589 105.234C78.4028 105.148 85.2584 101.363 85.2584 101.363C85.2584 101.363 86.17 103.021 86.25 103.16C86.3779 103.085 87.4388 102.499 87.5721 102.424C87.4975 102.28 86.0101 99.5935 85.9301 99.4549C85.8875 99.4762 85.8395 99.5029 85.8395 99.5029V99.5082Z" fill="#919195"/>
<path d="M80.1567 95.3394L77.7045 96.6988H77.6991L77.2513 95.8885L75.9132 96.6295L76.3611 97.4398L73.8661 98.8205L74.4899 99.94L75.3855 99.4442C75.3482 99.972 75.4495 100.51 75.716 101.012C76.4943 102.414 78.3282 102.888 79.8049 102.067C81.2869 101.251 81.8626 99.4442 81.0896 98.0422C80.8124 97.5464 80.4126 97.1786 79.9435 96.928L80.7751 96.4642L80.1567 95.3447V95.3394ZM79.1278 100.756C78.4188 101.15 77.5392 100.921 77.1714 100.249C76.7929 99.5775 77.0754 98.7139 77.7791 98.3194C78.4881 97.9302 79.3624 98.1541 79.7356 98.8312C80.1034 99.5029 79.8315 100.367 79.1278 100.761V100.756Z" fill="#919195"/>
<path d="M110.053 62.2926L108.901 61.5676C110.122 61.0078 110.159 59.7924 110.159 59.7924C110.207 58.8434 109.648 58.1611 108.843 58.1664C107.771 58.1664 107.377 59.1206 106.924 60.2135C106.433 61.3916 105.676 62.6231 104.178 62.7137C102.366 62.8257 101.139 61.2157 101.235 59.014C101.326 56.8656 102.808 55.8421 102.808 55.8421L104.173 56.4711C104.173 56.4711 102.254 57.1002 102.131 59.4138C102.072 60.4374 102.824 61.2317 103.826 61.2264C104.898 61.2211 105.282 60.3041 105.724 59.2379C106.215 58.0438 106.78 56.695 108.491 56.6844C110.159 56.6737 111.167 57.9958 111.066 60.0536C111.066 60.0536 111.034 61.365 110.053 62.2926Z" fill="#919195"/>
<path d="M9.78764 77.198L11.1417 77.3473C10.2941 78.3815 10.7845 79.4904 10.7845 79.4904C11.1577 80.3646 11.9573 80.7378 12.6824 80.3806C13.6473 79.9062 13.5833 78.8826 13.5087 77.6991C13.434 76.425 13.5726 74.9857 14.8841 74.25C16.4727 73.3597 18.2746 74.266 19.1542 76.2918C20.0071 78.2642 19.1275 79.8315 19.1275 79.8315L17.6242 79.8635C17.6242 79.8635 19.0742 78.4615 18.1733 76.3291C17.7788 75.3855 16.7552 74.9963 15.8543 75.4441C14.8894 75.9186 14.948 76.9048 15.0173 78.0616C15.0973 79.3517 15.1826 80.8124 13.6526 81.5694C12.1546 82.3104 10.6672 81.5641 9.86227 79.6716C9.86227 79.6716 9.30785 78.4721 9.78764 77.2087V77.198Z" fill="#919195"/>
<path d="M8.36432 43.2716L8.26836 43.3676C8.09244 43.5435 7.10087 44.5724 6.66906 46.6248C6.01335 49.7701 7.47404 52.1051 10.3634 52.7075C13.3115 53.3259 15.4652 51.8598 16.1049 48.7892C16.3555 47.5844 16.4034 46.3529 16.2488 45.1055L16.2329 44.9882L12.6451 44.2365L12.3359 45.6972L15.3639 46.3263C15.5398 47.03 15.4705 47.755 15.3639 48.2508C14.8681 50.6284 13.1835 51.6413 10.63 51.1082C8.23637 50.6071 7.02091 49.0344 7.47404 46.8487C7.70327 45.7505 8.42829 44.6683 9.32389 44.1672L9.38787 44.1299L8.36432 43.277V43.2716Z" fill="#919195"/>
<path d="M17.4536 24.5705L16.6113 25.77L18.7331 30.2054L13.8285 29.7149L12.757 31.2343L19.1435 31.6074C19.2182 31.6607 22.3368 33.8518 22.3368 33.8518L23.1951 32.6363C23.1951 32.6363 19.9752 30.3706 19.9059 30.328L17.4483 24.5759L17.4536 24.5705Z" fill="#919195"/>
<path d="M104.722 83.2487L105.314 81.916L102.36 77.9764L107.27 77.5019L108.022 75.8013L101.689 76.6809C101.598 76.6436 98.1168 75.103 98.1168 75.103L97.5144 76.4677C97.5144 76.4677 101.118 78.0563 101.187 78.0883L104.722 83.254V83.2487Z" fill="#919195"/>
<path d="M14.4949 37.6155L12.5171 31.8313L11.8454 33.1907L13.706 38.6283C13.4554 38.5057 10.0489 36.8265 10.0489 36.8265L9.39319 38.1645L17.7735 42.2961L18.4345 40.958L14.3723 38.9589L20.1138 37.5568L20.9508 35.8562L14.4896 37.6155H14.4949Z" fill="#919195"/>
<path d="M42.4986 12.5118L45.2601 7.06357L43.8154 7.52736L41.2192 12.6504C41.1339 12.3839 39.9717 8.77481 39.9717 8.77481L38.5483 9.23861L41.4324 18.1254L42.8558 17.6669L41.4537 13.3595L46.4595 16.4994L48.2614 15.913L42.4986 12.5118Z" fill="#919195"/>
<path d="M50.2925 15.4705L51.4013 15.3586L53.1712 7.98048L56.1832 14.8894L57.4573 14.7668L59.643 5.15506L58.3583 5.28833L56.5884 12.885L53.4911 5.76279L52.6381 5.84809L50.8949 13.4288L47.9628 6.31188L46.3902 6.46115L50.2925 15.4705Z" fill="#919195"/>
<path d="M64.8035 5.85874L64.1478 5.77878L59.0193 14.6869L60.2935 14.8521L62.186 11.5096L65.0487 11.8561L66.0349 15.5505L67.7835 15.7584L64.8141 5.85874H64.8035ZM64.0625 7.90584C64.2224 8.45493 64.7022 10.566 64.8088 10.9392L62.5325 10.662L64.0571 7.90584H64.0625Z" fill="#919195"/>
<path d="M101.4 28.1212L93.6647 33.3464L94.4973 34.5789L102.232 29.3537L101.4 28.1212Z" fill="#919195"/>
<path d="M101.07 64.3712L100.834 65.8342L110.054 67.3242L110.291 65.8612L101.07 64.3712Z" fill="#919195"/>
<path d="M87.4495 20.7429C86.1434 22.646 84.768 22.9552 83.3073 21.9477C81.6547 20.8122 81.6014 19.6767 82.9821 17.6615L85.9302 13.3648L84.7094 12.5278L81.692 16.9365C81.047 17.8908 80.4552 18.9783 80.7218 20.0978C80.951 21.0627 81.6067 21.905 82.6889 22.6513C84.7574 24.0694 86.6925 23.7229 88.1372 21.6118L91.2825 17.0272L90.4082 16.4248L87.4495 20.7429Z" fill="#919195"/>
<path d="M27.092 22.2782C28.7073 23.9308 28.7393 25.3328 27.4705 26.575C26.0365 27.977 24.9117 27.8118 23.2057 26.0632L19.5593 22.3368L18.4985 23.3764L22.2408 27.1934C23.0511 28.0037 24.0107 28.798 25.1515 28.75C26.1484 28.7074 27.1027 28.2329 28.0409 27.316C29.8375 25.5621 29.8641 23.5949 28.0783 21.7664L24.192 17.7948L23.4296 18.5412L27.092 22.2729V22.2782Z" fill="#919195"/>
<path d="M11.3976 66.3335C13.642 65.8004 14.8628 66.4934 15.2732 68.2207C15.7317 70.1718 15.012 71.0514 12.6344 71.6112L7.55931 72.816L7.90582 74.2607L13.1035 73.0239C14.2177 72.7467 15.3905 72.3415 15.9396 71.3286C16.4194 70.4597 16.5474 69.3828 16.2435 68.1087C15.6624 65.6671 13.9458 64.6329 11.4616 65.2246L6.05597 66.5094L6.30119 67.549L11.3923 66.3388L11.3976 66.3335Z" fill="#919195"/>
<path d="M96.5975 38.0899L96.9866 38.8416L107.089 38.0633L106.47 36.8584L98.5166 37.6314L103.778 31.6234L103.021 30.1414L96.5975 38.0899Z" fill="#919195"/>
<path d="M100.196 43.8154C100.473 43.7301 103.181 42.8718 103.453 42.7865L104.434 45.8731L105.335 45.5853L104.359 42.4933C104.626 42.408 107.041 41.6457 107.302 41.5657L108.368 44.9296L109.136 44.6897L107.627 39.9131L98.7192 42.7225L100.249 47.5791L101.289 47.2539L100.201 43.8047L100.196 43.8154Z" fill="#919195"/>
<path d="M109.856 69.0416L109.104 68.8284L108.32 71.6165C108.011 71.5312 100.079 69.2975 100.079 69.2975L99.6788 70.7209L107.92 73.0399L107.169 75.716L107.92 75.9239L109.856 69.0363V69.0416Z" fill="#919195"/>
<path d="M100.66 49.0504L100.841 50.5218L105.346 49.93L101.363 54.4987L101.566 56.0713L105.548 51.5293C105.809 53.0487 107.041 54.2535 108.39 54.0775C109.92 53.8803 110.575 52.8194 110.298 50.7617L109.92 47.8403L100.66 49.0558V49.0504ZM106.225 49.8128C106.497 49.7754 109.045 49.4449 109.317 49.4076L109.504 50.815C109.658 51.9825 109.04 52.5635 108.203 52.6435C107.329 52.7235 106.609 52.3556 106.401 51.0389L106.231 49.8181L106.225 49.8128Z" fill="#919195"/>
<path d="M33.6119 11.4883L32.7056 12.0587L36.2667 17.6722C32.9775 16.8192 27.2573 15.5078 27.2573 15.5078L26.6176 15.913L31.6127 23.8028L32.5137 23.2271C32.5137 23.2271 30.4399 19.9432 28.7767 17.315L38.0686 19.7086L38.607 19.3675L33.6065 11.4776L33.6119 11.4883Z" fill="#919195"/>
<path d="M5.46956 54.9785L5.49089 56.05L12.1386 55.9167C9.7077 58.2837 5.62416 62.4952 5.62416 62.4952L5.63482 63.2522L14.9747 63.0656L14.9534 61.9994C14.9534 61.9994 11.0671 62.0793 7.95914 62.138L14.8201 55.4316L14.8041 54.7919L5.46423 54.9838L5.46956 54.9785Z" fill="#919195"/>
<path d="M78.8666 9.61709L77.8537 9.27591L75.7267 15.5718C74.3246 12.4852 71.7391 7.21282 71.7391 7.21282L71.0194 6.96759L68.0341 15.817L69.0469 16.1635C69.0469 16.1635 70.2944 12.4798 71.2806 9.5318L75.2682 18.264L75.8759 18.4665L78.856 9.61709H78.8666Z" fill="#919195"/>
<path d="M99.5508 25.3862L98.8205 24.6025L93.948 29.1232C94.1878 25.7433 94.4384 19.8739 94.4384 19.8739L93.916 19.3195L87.071 25.674L87.8013 26.4577C87.8013 26.4577 90.6534 23.8188 92.9297 21.7024L92.2687 31.2769L92.7005 31.746L99.5508 25.3915V25.3862Z" fill="#919195"/>
<path d="M61.5676 46.5288C61.5676 38.9002 67.7408 32.7109 75.3482 32.7109C77.1927 32.7109 78.9466 33.0788 80.5512 33.7345C68.3592 22.4861 49.3596 22.774 37.5301 34.6087C26.0632 46.0757 25.4395 64.2704 35.643 76.4783C38.2925 73.0078 41.9175 69.0096 46.3689 65.8856C49.8447 63.4441 54.6639 60.9971 58.5396 60.6346C62.2073 60.2881 67.6715 60.64 70.9768 62.2286C68.3912 59.5791 65.6618 56.6044 64.329 54.8238C62.5964 52.5155 61.5676 49.6421 61.5676 46.5288Z" fill="url(#paint0_linear_316_8577)"/>
<path d="M60.592 56.6311L46.0278 28.5794C43.3356 29.8748 40.7981 31.5808 38.4897 33.6972L60.4961 56.5937L60.592 56.6311Z" fill="url(#paint1_linear_316_8577)"/>
<path d="M60.6667 56.6631L62.5965 25.674C60.0749 25.4235 57.5321 25.4768 55.0265 25.8393L60.64 56.6471L60.6667 56.6577V56.6631Z" fill="url(#paint2_linear_316_8577)"/>
<path d="M60.496 56.5991L30.4933 45.452C29.475 48.1122 28.8353 50.8896 28.5741 53.6937L60.576 56.6791L60.496 56.5991Z" fill="url(#paint3_linear_316_8577)"/>
<path d="M28.7607 61.0451C29.0752 63.2148 29.619 65.3472 30.392 67.421L60.4907 56.7537L28.7607 61.0398V61.0451Z" fill="url(#paint4_linear_316_8577)"/>
<path d="M35.0673 84.075C34.1663 83.2914 32.6203 81.8307 31.2343 80.0448C24.8957 72.9279 17.6456 54.2641 29.7043 37.3329C34.6781 30.3546 41.8163 25.6527 48.9118 23.7495C65.4539 19.3088 78.163 27.1187 83.9791 33.42C84.6241 34.1236 84.5335 35.0192 84.0377 35.4297C83.318 36.0375 82.6677 35.7229 81.2176 35.2965C78.9466 34.6407 76.9955 34.4862 74.9004 34.7527C70.0439 35.3764 65.8324 39.8811 66.4188 46.1717C66.9466 51.9185 71.3766 56.066 74.4899 58.8115C85.4131 68.4339 81.7614 78.7494 80.8711 81.0097C77.8538 88.7076 70.1078 94.1292 60.0696 94.1292C55.9008 94.1292 49.8767 93.0524 43.8154 89.2087C43.5808 89.1075 43.3516 88.7929 43.6395 88.2758C44.1033 87.103 46.0331 83.6912 46.8701 82.7103C49.8767 86.1861 54.9572 89.4593 60.6027 89.6672C68.3113 89.9498 73.2851 85.7756 75.103 80.4766C77.1501 74.5219 74.975 68.4605 69.2122 62.9856C64.2491 58.2677 59.8137 53.9016 59.5525 46.4169C59.222 36.8318 67.5703 31.133 75.3215 31.5168C75.5561 31.5275 64.6063 23.6269 50.5378 28.3289C43.6555 30.6425 39.54 34.6994 37.5568 37.0077C37.2636 37.3649 37.4502 37.6421 37.5515 37.786C37.7701 38.1006 42.552 44.7643 42.552 44.7643L33.9318 42.7812C33.9318 42.7812 33.5692 42.6905 33.3933 42.9891C30.6532 47.7177 26.6123 61.3757 35.6323 73.8235C35.6323 73.8235 43.3143 61.6582 58.5716 60.6187C59.5845 60.5494 59.4565 60.9119 58.7902 61.1571C45.1641 66.1629 39.7852 76.1585 36.3094 83.8618C36.0961 84.3362 35.5311 84.4802 35.0726 84.0697L35.0673 84.075Z" fill="#00467F"/>
<path d="M49.1144 74.6871C49.1144 74.6871 49.9674 74.3086 50.2072 74.1753V80.0821H51.2734V73.1305L51.1029 73.0185L51.0495 73.0452C50.2712 73.429 49.4716 73.7915 48.7999 74.0687L49.1144 74.6871Z" fill="#919195"/>
<path d="M54.7866 76.6116C55.6555 76.6116 56.0767 77.0594 56.0767 77.9763C56.0767 78.8933 55.4956 79.5223 54.5893 79.5223C53.939 79.5223 53.4965 79.0852 53.3366 78.8986L53.2033 78.744L52.9474 79.6609L53.0327 79.7036C53.4059 79.8795 53.875 80.0608 54.5733 80.0608C56.098 80.0608 57.2068 79.1278 57.2068 77.8484C57.2068 76.6756 56.2952 76.3397 55.7462 76.2438C56.3486 75.9879 56.887 75.4388 56.887 74.6125C56.887 73.6316 56.1193 73.0345 54.8879 73.0292C53.843 73.0292 53.3099 73.7116 53.3099 73.7116L53.7684 74.5059L53.843 74.282C53.9656 73.9248 54.3548 73.5623 54.8505 73.5623C55.2824 73.5623 55.8048 73.8502 55.8048 74.6765C55.8048 75.3108 55.6235 76.0785 54.7866 76.0785L54.2322 76.0305V76.6862C54.2322 76.6862 54.5467 76.6063 54.7866 76.6116Z" fill="#919195"/>
<path d="M58.6675 78.6747L58.9447 79.7995C58.9447 79.7995 59.3925 80.0554 60.0163 80.0554C61.7968 80.0448 63.0443 78.3815 63.0443 75.9826C63.0443 73.3117 61.4183 73.0238 60.7146 73.0238C59.3606 73.0238 58.4063 73.9408 58.4063 75.2522C58.4063 76.5636 59.1846 77.326 60.4374 77.326C61.0718 77.326 61.5729 77.0754 61.9354 76.6116C61.8608 78.1043 61.2744 79.469 60.0536 79.4744C59.0727 79.4744 58.6569 78.6694 58.6569 78.6694L58.6675 78.6747ZM60.608 76.7449C59.8617 76.7449 59.4938 76.2544 59.4938 75.2522C59.4938 74.25 59.9843 73.5569 60.7093 73.5569C61.4343 73.5569 61.9194 74.1327 61.9194 74.9963C61.9194 75.8599 61.4716 76.7449 60.608 76.7449Z" fill="#919195"/>
<path d="M67.2877 76.0572C67.8954 75.7853 68.2899 75.2362 68.2899 74.5858C68.2899 73.8662 67.7675 73.0238 66.2908 73.0238C65.1713 73.0238 64.329 73.7435 64.329 74.7031C64.329 75.4121 64.8088 75.9133 65.3312 76.1105C64.4623 76.4517 63.9772 77.1127 63.9772 78.0083C63.9772 79.2291 64.9048 80.0554 66.2908 80.0554C67.6769 80.0554 68.6098 79.1012 68.6098 77.7844C68.6098 76.569 67.7142 76.1745 67.293 76.0572H67.2877ZM65.3472 74.7138C65.3472 74.4419 65.4165 73.5569 66.3015 73.5569C67.1864 73.5569 67.2611 74.3619 67.2611 74.7138C67.2611 74.9857 67.1918 75.8759 66.3015 75.8759C65.4112 75.8759 65.3472 74.9857 65.3472 74.7138ZM66.2855 79.5117C65.5551 79.5117 65.0594 78.8879 65.0594 77.955C65.0594 77.0221 65.5551 76.4037 66.2855 76.4037C67.0158 76.4037 67.5116 77.0274 67.5116 77.955C67.5116 78.8826 67.0318 79.5117 66.2855 79.5117Z" fill="#919195"/>
</g>
<defs>
<linearGradient id="paint0_linear_316_8577" x1="65.2939" y1="58.7048" x2="39.7958" y2="44.2792" gradientUnits="userSpaceOnUse">
<stop stop-color="white"/>
<stop offset="0.2" stop-color="#E2E993"/>
<stop offset="0.76" stop-color="#A6CE39"/>
<stop offset="1" stop-color="#8DC63F"/>
</linearGradient>
<linearGradient id="paint1_linear_316_8577" x1="63.1669" y1="49.2157" x2="39.3907" y2="33.3133" gradientUnits="userSpaceOnUse">
<stop stop-color="#E0E995"/>
<stop offset="0.07" stop-color="#D0E17E"/>
<stop offset="0.14" stop-color="#C4DB6D"/>
<stop offset="0.2" stop-color="#C1DA68"/>
<stop offset="0.4" stop-color="#9FC73B"/>
<stop offset="0.7" stop-color="#83BD40"/>
<stop offset="1" stop-color="#6CB545"/>
</linearGradient>
<linearGradient id="paint2_linear_316_8577" x1="66.4135" y1="44.3698" x2="42.6319" y2="28.4621" gradientUnits="userSpaceOnUse">
<stop stop-color="#E0E995"/>
<stop offset="0.07" stop-color="#D0E17E"/>
<stop offset="0.14" stop-color="#C4DB6D"/>
<stop offset="0.2" stop-color="#C1DA68"/>
<stop offset="0.4" stop-color="#9FC73B"/>
<stop offset="0.7" stop-color="#83BD40"/>
<stop offset="1" stop-color="#6CB545"/>
</linearGradient>
<linearGradient id="paint3_linear_316_8577" x1="54.6693" y1="61.9247" x2="30.8877" y2="46.0171" gradientUnits="userSpaceOnUse">
<stop stop-color="#E0E995"/>
<stop offset="0.07" stop-color="#D0E17E"/>
<stop offset="0.14" stop-color="#C4DB6D"/>
<stop offset="0.2" stop-color="#C1DA68"/>
<stop offset="0.4" stop-color="#9FC73B"/>
<stop offset="0.7" stop-color="#83BD40"/>
<stop offset="1" stop-color="#6CB545"/>
</linearGradient>
<linearGradient id="paint4_linear_316_8577" x1="51.7426" y1="66.3068" x2="27.9557" y2="50.3992" gradientUnits="userSpaceOnUse">
<stop stop-color="#E0E995"/>
<stop offset="0.07" stop-color="#D0E17E"/>
<stop offset="0.14" stop-color="#C4DB6D"/>
<stop offset="0.2" stop-color="#C1DA68"/>
<stop offset="0.4" stop-color="#9FC73B"/>
<stop offset="0.7" stop-color="#83BD40"/>
<stop offset="1" stop-color="#6CB545"/>
</linearGradient>
<clipPath id="clip0_316_8577">
<rect width="116.402" height="116.402" fill="white"/>
</clipPath>
</defs>
</svg>
