<svg width="500" height="117" viewBox="0 0 500 117" fill="none" xmlns="http://www.w3.org/2000/svg">
<path d="M169.859 4.4053V19.1709H166.386V13.292H162.504V10.4756H166.386V4.4053H169.859ZM161.355 19.7178C166.66 19.7451 169.914 21.4951 169.941 24.5303C169.914 27.5381 166.66 29.3155 161.355 29.3155C156.05 29.3155 152.797 27.5381 152.797 24.5303C152.797 21.4951 156.05 19.7451 161.355 19.7178ZM161.355 22.3975C158.047 22.3975 156.269 23.0811 156.269 24.5303C156.269 25.9522 158.047 26.6631 161.355 26.6631C164.664 26.6631 166.468 25.9522 166.468 24.5303C166.468 23.0811 164.664 22.3975 161.355 22.3975ZM163.242 5.9092V8.69827H158.293C158.375 11.5967 160.125 14.5225 164.008 15.8076L162.285 18.542C159.537 17.6533 157.65 15.8487 156.57 13.5928C155.463 16.1358 153.48 18.1865 150.527 19.1983L148.722 16.4365C152.81 15.0694 154.642 11.8155 154.738 8.69827H149.734V5.9092H163.242ZM195.863 23.5459V26.3897H173.086V23.5459H182.683V18.9522H175.492V5.99124H178.992V9.8467H189.847V5.99124H193.32V18.9522H186.156V23.5459H195.863ZM178.992 16.1631H189.847V12.6358H178.992V16.1631ZM219.98 17.2295V19.9639H197.23V17.2295H206.855V15.6983H200.074V5.00686H217.328V7.68655H203.574V9.08108H216.754V11.5967H203.574V13.0186H217.547V15.6983H210.355V17.2295H219.98ZM208.605 21.1123C214.101 21.085 217.246 22.5615 217.273 25.1865C217.246 27.8662 214.101 29.2881 208.605 29.2881C203.027 29.2881 199.883 27.8662 199.883 25.1865C199.883 22.5615 203.027 21.085 208.605 21.1123ZM208.605 23.6826C205.023 23.6826 203.355 24.1475 203.383 25.1865C203.355 26.253 205.023 26.7178 208.605 26.7178C212.105 26.7178 213.746 26.253 213.773 25.1865C213.746 24.1475 212.105 23.6826 208.605 23.6826ZM242.32 4.43264V22.5889H238.82V4.43264H242.32ZM242.976 26.0615V28.8506H225.64V20.8389H229.168V26.0615H242.976ZM231.027 8.20608C231 11.4873 232.75 14.7139 236.851 16.0264L235.074 18.7608C232.271 17.8311 230.33 15.9717 229.222 13.5928C228.115 16.1494 226.119 18.2002 223.207 19.1983L221.402 16.4365C225.586 15.042 227.39 11.5694 227.39 8.20608V5.79983H231.027V8.20608ZM255.09 6.04592L248.691 29.753H245.218L251.59 6.04592H255.09ZM278.851 23.5186V26.3076H256.074V23.5186H265.59V17.8858H269.062V23.5186H278.851ZM269.172 7.60452C269.172 11.1592 272.371 14.9053 278.058 15.7803L276.582 18.6787C272.207 17.8858 268.953 15.5479 267.312 12.4444C265.672 15.5342 262.445 17.8994 258.097 18.6787L256.621 15.7803C262.254 14.9053 265.425 11.1319 265.453 7.60452V5.82717H269.172V7.60452ZM303.05 23.4912V26.3897H280.273V23.4912H303.05ZM301.136 6.5928V9.38186H297.636V16.9287H301.027V19.6631H282.16V16.9287H285.496V9.38186H282.05V6.5928H301.136ZM288.996 16.9287H294.191V9.38186H288.996V16.9287ZM324.761 17.2569V20.0186H307.152V6.23733H324.57V9.05374H310.707V11.6787H323.996V14.4131H310.707V17.2569H324.761ZM327.25 23.5459V26.3897H304.472V23.5459H327.25ZM334.933 5.79983C338.105 5.79983 340.429 7.76858 340.457 10.5303C340.429 13.292 338.105 15.2334 334.933 15.2334C331.707 15.2334 329.355 13.292 329.355 10.5303C329.355 7.76858 331.707 5.79983 334.933 5.79983ZM334.933 8.37014C333.429 8.37014 332.445 9.19045 332.445 10.5303C332.445 11.8701 333.429 12.6358 334.933 12.6631C336.355 12.6358 337.34 11.8701 337.367 10.5303C337.34 9.19045 336.355 8.37014 334.933 8.37014ZM350.547 4.4053V29.2881H347.265V4.4053H350.547ZM345.515 4.81545V28.1397H342.234V23.0537H338.269V20.4014H342.234V4.81545H345.515ZM328.316 16.5459C331.652 16.5733 337.039 16.5459 340.976 15.9444L341.25 18.542C339.759 18.8291 338.119 19.0205 336.492 19.1436V27.3194H333.211V19.335C331.543 19.3897 329.97 19.4033 328.699 19.3897L328.316 16.5459ZM359.734 6.1553C363.097 6.1553 365.599 8.93069 366.105 13.4014H370.425V4.4053H373.871V29.3428H370.425V16.1905H366.133C365.763 20.9756 363.207 23.9014 359.734 23.9014C355.961 23.9014 353.254 20.4834 353.281 15.0147C353.254 9.60061 355.961 6.1553 359.734 6.1553ZM359.734 9.29983C357.875 9.29983 356.59 11.3233 356.617 15.0147C356.59 18.7334 357.875 20.7295 359.734 20.7295C361.621 20.7295 362.851 18.7334 362.851 15.0147C362.851 11.3233 361.621 9.29983 359.734 9.29983ZM399.765 15.5615V18.378H394.734V21.3858C396.224 22.1514 397.045 23.2862 397.058 24.749C397.031 27.6748 393.777 29.3155 388.39 29.3155C382.922 29.3155 379.668 27.6748 379.668 24.749C379.668 23.2315 380.543 22.0694 382.156 21.2764V18.378H377.07V15.5615H399.765ZM388.39 20.21C389.416 20.21 390.373 20.2647 391.234 20.374V18.378H385.629V20.374C386.476 20.2647 387.392 20.21 388.39 20.21ZM388.39 22.835C384.945 22.8623 383.195 23.4639 383.222 24.749C383.195 26.0615 384.945 26.6631 388.39 26.6631C391.754 26.6631 393.531 26.0615 393.558 24.749C393.531 23.4639 391.754 22.8623 388.39 22.835ZM388.418 4.78811C393.914 4.78811 397.441 6.62014 397.468 9.62795C397.441 12.5811 393.914 14.3584 388.418 14.3584C382.867 14.3584 379.34 12.5811 379.34 9.62795C379.34 6.62014 382.867 4.78811 388.418 4.78811ZM388.418 7.49514C384.945 7.49514 382.949 8.20608 382.976 9.62795C382.949 10.9951 384.945 11.7061 388.418 11.7061C391.863 11.7061 393.859 10.9951 393.859 9.62795C393.859 8.20608 391.863 7.49514 388.418 7.49514ZM421.011 4.4053V10.3936H424.375V13.292H421.011V18.9795H417.511V4.4053H421.011ZM408.187 19.9365V21.8233H417.511V19.9365H421.011V29.0147H404.715V19.9365H408.187ZM408.187 26.2803H417.511V24.503H408.187V26.2803ZM416.035 6.5928V9.32717H401.269V6.5928H406.929V4.24124H410.402V6.5928H416.035ZM408.652 10.0381C412.261 10.0381 414.777 11.7881 414.777 14.4405C414.777 17.0928 412.261 18.8428 408.652 18.8428C404.988 18.8428 402.472 17.0928 402.472 14.4405C402.472 11.7881 404.988 10.0381 408.652 10.0381ZM408.652 12.6084C406.984 12.5811 405.863 13.2647 405.89 14.4405C405.863 15.6436 406.984 16.2998 408.652 16.2998C410.32 16.2998 411.468 15.6436 411.468 14.4405C411.468 13.2647 410.32 12.5811 408.652 12.6084ZM446.988 4.4053V29.2881H443.679V16.792H441.273V28.085H438.074V4.81545H441.273V14.003H443.679V4.4053H446.988ZM435.449 7.27639V10.0928H429.679V20.7022C432.086 20.6885 434.218 20.5655 436.625 20.128L436.871 22.9717C433.836 23.5459 431.183 23.628 427.902 23.6553H426.179V7.27639H435.449ZM464.433 6.62014V9.38186H449.668V6.62014H455.328V4.26858H458.8V6.62014H464.433ZM457.05 10.1748C460.66 10.1748 463.175 12.0342 463.175 14.7686C463.175 17.503 460.66 19.3623 457.05 19.3623C453.441 19.3623 450.871 17.503 450.871 14.7686C450.871 12.0342 453.441 10.1748 457.05 10.1748ZM457.05 12.7998C455.383 12.7998 454.261 13.4834 454.289 14.7686C454.261 16.0264 455.383 16.6826 457.05 16.6826C458.718 16.6826 459.867 16.0264 459.867 14.7686C459.867 13.4834 458.718 12.7998 457.05 12.7998ZM469.41 4.4053V10.8584H472.773V13.7022H469.41V20.0186H465.91V4.4053H469.41ZM469.41 21.0576V29.2881H465.91V23.8467H452.648V21.0576H469.41ZM155.968 42.1436C159.742 42.1436 162.613 44.4951 162.613 47.8311C162.613 51.1123 159.742 53.4912 155.968 53.4912C152.113 53.4912 149.269 51.1123 149.269 47.8311C149.269 44.4951 152.113 42.1436 155.968 42.1436ZM155.968 44.9873C154.054 44.9873 152.633 46.0264 152.66 47.8311C152.633 49.6084 154.054 50.6748 155.968 50.6748C157.855 50.6748 159.25 49.6084 159.25 47.8311C159.25 46.0264 157.855 44.9873 155.968 44.9873ZM169.722 41.4053V53.874H166.222V41.4053H169.722ZM169.722 54.9131V61.667H156.488V63.2803H170.406V66.0147H153.07V59.124H166.25V57.5928H153.015V54.9131H169.722ZM192.828 41.4326V48.4326H196.191V51.3037H192.828V59.753H189.328V41.4326H192.828ZM193.73 63.0615V65.8506H176.695V57.8662H180.168V63.0615H193.73ZM177.297 43.1826V46.792H182.383V43.1826H185.883V55.7881H173.824V43.1826H177.297ZM177.297 53.0537H182.383V49.4717H177.297V53.0537ZM218.804 41.4053V66.2881H215.496V53.792H213.09V65.085H209.89V41.8155H213.09V51.003H215.496V41.4053H218.804ZM207.265 44.2764V47.0928H201.496V57.7022C203.902 57.6885 206.035 57.5655 208.441 57.128L208.687 59.9717C205.652 60.5459 203 60.628 199.718 60.6553H197.996V44.2764H207.265ZM236.25 43.6201V46.3819H221.484V43.6201H227.144V41.2686H230.617V43.6201H236.25ZM228.867 47.1748C232.476 47.1748 234.992 49.0342 234.992 51.7686C234.992 54.503 232.476 56.3623 228.867 56.3623C225.258 56.3623 222.687 54.503 222.687 51.7686C222.687 49.0342 225.258 47.1748 228.867 47.1748ZM228.867 49.7998C227.199 49.7998 226.078 50.4834 226.105 51.7686C226.078 53.0264 227.199 53.6826 228.867 53.6826C230.535 53.6826 231.683 53.0264 231.683 51.7686C231.683 50.4834 230.535 49.7998 228.867 49.7998ZM241.226 41.4053V47.8584H244.59V50.7022H241.226V57.0186H237.726V41.4053H241.226ZM241.226 58.0576V66.2881H237.726V60.8467H224.465V58.0576H241.226ZM266.765 41.4326V60.2178H263.265V58.249H258.508V55.8701H263.265V41.4326H266.765ZM267.312 63.0615V65.8506H248.773V58.4131H252.246V55.1045C250.017 55.2002 247.898 55.2139 246.011 55.2139L245.601 52.4522C250.168 52.4248 256.32 52.3701 261.57 51.7139L261.761 54.2022C259.793 54.5303 257.756 54.7627 255.746 54.9131V59.6436H252.246V63.0615H267.312ZM253.695 42.2803C257.304 42.253 259.902 44.085 259.902 46.7373C259.902 49.3897 257.304 51.1123 253.695 51.1123C250.004 51.1123 247.433 49.3897 247.433 46.7373C247.433 44.085 249.976 42.253 253.695 42.2803ZM253.695 44.8233C251.918 44.8233 250.715 45.5069 250.742 46.7373C250.715 47.9405 251.918 48.5967 253.695 48.5967C255.363 48.5967 256.566 47.9405 256.593 46.7373C256.566 45.5069 255.363 44.8233 253.695 44.8233ZM165.898 83.5225V85.5225H149.336V83.5225H156.398V80.3975H158.836V83.5225H165.898ZM157.617 86.96C161.617 86.9912 164.273 88.9287 164.304 91.9912C164.273 95.0225 161.617 96.9912 157.617 96.9912C153.617 96.9912 150.898 95.0225 150.929 91.9912C150.898 88.9287 153.617 86.9912 157.617 86.96ZM157.617 88.8662C154.992 88.8975 153.242 90.1162 153.273 91.9912C153.242 93.835 154.992 95.0225 157.617 95.0225C160.211 95.0225 161.961 93.835 161.992 91.9912C161.961 90.1162 160.211 88.8975 157.617 88.8662ZM170.992 80.5225V88.2412H175.179V90.3037H170.992V97.8975H168.554V80.5225H170.992ZM170.992 99.4287V108.304H168.554V101.429H152.804V99.4287H170.992ZM186.086 81.8975C190.242 81.8662 193.211 84.1475 193.211 87.5537C193.211 90.9287 190.242 93.2725 186.086 93.2412C181.929 93.2725 178.961 90.9287 178.961 87.5537C178.961 84.1475 181.929 81.8662 186.086 81.8975ZM186.086 83.8975C183.304 83.8662 181.336 85.3975 181.367 87.5537C181.336 89.7412 183.304 91.2412 186.086 91.21C188.898 91.2412 190.867 89.7412 190.867 87.5537C190.867 85.3975 188.898 83.8662 186.086 83.8975ZM199.836 80.5537V108.335H197.429V80.5537H199.836ZM176.867 95.6162C182.086 95.6162 189.211 95.5225 195.398 94.6162L195.554 96.46C192.898 96.9444 190.133 97.2412 187.461 97.3975V107.46H185.023V97.5537C182.195 97.6787 179.523 97.6944 177.211 97.71L176.867 95.6162ZM227.023 89.0225V91.0225H218.461V95.085H229.929V97.1162H204.586V95.085H216.054V91.0225H208.054V81.585H210.461V89.0225H227.023ZM227.242 105.647V107.71H207.836V99.3975H210.273V105.647H227.242ZM257.648 94.7412V96.7725H246.336V102.46H243.898V96.7725H232.211V94.7412H257.648ZM254.336 81.8975V91.5537H235.523V81.8975H254.336ZM237.929 83.835V89.585H251.898V83.835H237.929ZM254.804 105.647V107.71H235.461V99.71H237.929V105.647H254.804ZM290.867 80.5537V96.335H288.429V80.5537H290.867ZM290.867 97.9287V107.929H272.804V97.9287H290.867ZM275.211 99.9287V105.929H288.461V99.9287H275.211ZM277.773 84.3662C277.742 88.3037 280.742 91.7725 284.836 93.21L283.586 95.085C280.367 93.9756 277.804 91.6319 276.554 88.585C275.32 91.835 272.726 94.3975 269.398 95.6162L268.148 93.6787C272.367 92.21 275.273 88.46 275.273 84.3662V81.6475H277.773V84.3662ZM304.898 87.9912C304.898 92.8975 308.148 97.9287 312.086 99.8662L310.586 101.835C307.523 100.226 304.961 96.9444 303.742 93.085C302.492 97.1944 299.867 100.694 296.742 102.366L295.179 100.397C299.242 98.3975 302.461 93.0537 302.492 87.9912V82.9287H304.898V87.9912ZM317.086 80.5225V91.8037H321.742V93.9287H317.086V108.304H314.648V80.5225H317.086ZM341.148 87.9912C341.117 93.0537 344.586 98.1787 348.679 100.022L347.179 101.96C344.023 100.413 341.289 97.1475 339.961 93.1787C338.664 97.3819 335.929 100.882 332.679 102.522L331.117 100.46C335.242 98.5537 338.679 93.2725 338.711 87.9912V82.9287H341.148V87.9912ZM354.179 80.5225V108.366H351.711V80.5225H354.179ZM372.773 84.6162C372.773 89.3662 378.211 93.6162 383.054 94.5225L381.929 96.585C377.742 95.6162 373.32 92.6319 371.523 88.5225C369.726 92.6162 365.32 95.6006 361.117 96.585L359.992 94.5225C364.804 93.585 370.211 89.3975 370.211 84.6162V82.4912H372.773V84.6162ZM384.367 102.491V104.522H358.929V102.491H384.367ZM398.492 82.335V84.3975H390.242V87.835H397.336V89.7725H390.242V93.5537C394.258 93.5381 396.758 93.3975 399.742 92.835L399.992 94.8037C396.773 95.3975 394.148 95.5537 389.648 95.5537H387.898V82.335H398.492ZM410.179 80.5225V97.2725H407.836V80.5225H410.179ZM404.773 81.0225V97.0225H402.398V89.5537H398.648V87.5225H402.398V81.0225H404.773ZM410.179 98.5537V107.929H391.836V98.5537H410.179ZM394.242 100.554V105.929H407.773V100.554H394.242Z" fill="#878E95"/>
<g clip-path="url(#clip0_1345_13500)">
<path d="M93.7507 90.4189C93.7507 90.4189 92.8498 91.3625 92.7431 91.4798C92.8658 91.5917 94.8862 93.5322 94.8862 93.5322L93.74 94.7317C93.74 94.7317 91.7089 92.7965 91.5916 92.6792C91.485 92.7912 90.6161 93.6974 90.5095 93.8094C90.6267 93.9213 92.6578 95.8618 92.6578 95.8618C92.6578 95.8618 91.2451 97.3385 91.1279 97.4611C91.2398 97.5677 92.0181 98.3141 92.1301 98.4154C92.2474 98.2874 99.4655 90.7387 99.5881 90.6108C99.4762 90.5095 98.6925 89.7578 98.5859 89.6512C98.4686 89.7738 95.9684 92.3913 95.9684 92.3913C95.9684 92.3913 93.9426 90.4509 93.82 90.3389C93.788 90.3762 93.7454 90.4136 93.7454 90.4136L93.7507 90.4189Z" fill="#919195"/>
<path d="M96.8054 89.2727C96.6774 89.1554 92.498 85.1679 92.37 85.0452C92.338 85.0826 92.3007 85.1199 92.3007 85.1199C92.3007 85.1199 86.0368 91.677 85.9142 91.8103C86.0208 91.9169 86.8045 92.6632 86.9111 92.7645C87.039 92.6366 92.2954 87.1297 92.2954 87.1297C92.2954 87.1297 95.5953 90.2856 95.7232 90.4029L96.8054 89.2727V89.2727Z" fill="#919195"/>
<path d="M20.2044 92.4713C19.1116 93.4949 19.1436 95.3181 20.2844 96.5389C21.4252 97.7597 23.2431 97.9249 24.3359 96.9014C25.4341 95.8778 25.3968 94.0493 24.2613 92.8285C23.1205 91.6077 21.3026 91.4478 20.2044 92.4766V92.4713ZM21.2067 93.5215C21.7877 92.9778 22.7526 93.0577 23.355 93.7028C23.9574 94.3478 23.9734 95.3181 23.387 95.8618C22.8006 96.4056 21.8357 96.3256 21.2333 95.6806C20.6362 95.0355 20.6256 94.0653 21.2067 93.5215V93.5215Z" fill="#919195"/>
<path d="M30.2267 91.3198C30.2267 91.3198 29.3684 90.4029 29.2671 90.2963C29.1498 90.4029 28.009 91.4638 28.009 91.4638C28.009 91.4638 26.9055 90.275 26.7935 90.163C26.6869 90.259 25.9246 90.968 25.818 91.0693C25.9299 91.1812 27.0388 92.37 27.0388 92.37C27.0388 92.37 25.5088 93.7987 25.3915 93.9053C25.4928 94.012 26.3137 94.9022 26.4204 95.0089C26.543 94.9022 30.1734 91.5064 30.296 91.3945C30.264 91.3571 30.2267 91.3198 30.2267 91.3198V91.3198Z" fill="#919195"/>
<path d="M25.6314 86.3513C25.6314 86.3513 20.1031 86.5752 19.9326 86.5806C19.9379 86.7298 20.0232 87.9453 20.0338 88.0892C20.1991 88.0786 24.1174 87.86 24.1174 87.86C24.1174 87.86 23.6376 91.5331 23.6109 91.6983C23.7549 91.7143 24.9597 91.8849 25.1089 91.9009C25.1303 91.7303 25.7273 86.5326 25.754 86.3407C25.6954 86.3407 25.6367 86.3407 25.6367 86.3407L25.6314 86.3513Z" fill="#919195"/>
<path d="M70.8701 109.754L72.3681 109.498L70.6889 99.6468L70.5876 99.6628C70.5876 99.6628 69.3454 99.8761 69.1962 99.9027C69.2175 100.068 69.7133 102.931 69.7133 102.931L68.8337 103.085C68.8337 103.085 68.3485 100.223 68.3166 100.052L66.8132 100.308L67.8741 106.566C66.6853 106.764 63.1348 107.377 63.1348 107.377L62.3139 102.563C62.3139 102.563 65.6564 101.992 65.8163 101.966L65.6084 100.718C65.6084 100.718 65.5978 100.718 65.5818 100.718L60.6133 101.566C60.9225 103.341 61.8554 108.811 61.8767 108.955L68.1033 107.894L68.4925 110.165L70.0012 109.909C69.9745 109.738 69.0682 104.402 69.0682 104.402L69.9425 104.253C69.9425 104.253 70.8541 109.594 70.8808 109.754H70.8701Z" fill="#919195"/>
<path d="M40.4355 102.131C40.4355 102.131 40.2596 102.04 39.9717 101.886L41.8322 98.4047C41.7896 98.3834 41.7469 98.3621 41.7469 98.3621C41.7469 98.3621 33.937 94.1932 33.7878 94.1133L33.148 95.3127C33.2973 95.398 39.8438 98.8898 39.8438 98.8898C39.8438 98.8898 39.0974 100.287 38.623 101.177L31.3248 97.2799L30.6905 98.474C30.8344 98.5486 33.5532 99.9987 33.5532 99.9987C33.5532 99.9987 32.7855 101.433 32.7162 101.571L34.081 102.302C34.1556 102.163 34.9233 100.729 34.9233 100.729L36.1387 101.374C36.1387 101.374 35.3764 102.808 35.3018 102.947L36.6718 103.682C36.7465 103.544 37.5141 102.11 37.5141 102.11C37.5141 102.11 39.7425 103.299 39.8864 103.379L40.5261 102.179C40.4835 102.158 40.4408 102.136 40.4408 102.136L40.4355 102.131ZM32.2045 100.324L30.8504 99.6042L29.1765 102.744L37.3915 107.132L38.0259 105.932C37.8766 105.852 31.1596 102.27 31.1596 102.27C31.1596 102.27 32.1245 100.468 32.2045 100.324V100.324Z" fill="#919195"/>
<path d="M46.9126 106.412C46.8647 106.407 46.8167 106.396 46.8167 106.396C46.8167 106.396 45.5532 106.193 45.404 106.172L44.8496 109.685L54.1095 111.151L54.3174 109.808C54.1521 109.786 46.5661 108.582 46.5661 108.582C46.5661 108.582 46.886 106.566 46.9126 106.401V106.412ZM55.3196 103.016C55.3196 103.016 55.5702 101.443 55.5968 101.289C55.5488 101.289 55.4955 101.278 55.4955 101.278C55.4955 101.278 54.2374 101.081 54.0882 101.054L53.4378 105.138L51.9078 104.893L52.5208 100.99C52.4729 100.98 52.4249 100.974 52.4249 100.974C52.4249 100.974 46.2676 99.9987 46.0917 99.972L45.8838 101.315C46.049 101.337 50.7936 102.088 50.7936 102.088C50.7936 102.088 50.5164 103.853 50.3884 104.653C49.5355 104.519 48.8691 104.413 48.8691 104.413C48.8691 104.413 49.0717 103.133 49.093 102.984C49.045 102.984 48.9917 102.973 48.9917 102.973C48.9917 102.973 47.707 102.765 47.5577 102.744C47.5364 102.899 47.3285 104.167 47.3285 104.167C47.3285 104.167 45.1534 103.826 44.9988 103.8L44.7856 105.143L53.2192 106.476L52.974 108.038L54.4826 108.278C54.5093 108.112 55.1064 104.343 55.1064 104.343C55.1064 104.343 56.4978 104.562 56.6524 104.589L56.8603 103.261C56.7057 103.235 55.3143 103.016 55.3143 103.016H55.3196Z" fill="#919195"/>
<path d="M82.6676 93.7401C82.6676 93.7401 81.5748 94.3478 81.4362 94.4225C81.5161 94.5664 84.1976 99.4229 84.2882 99.5669C84.4162 99.4976 85.4771 98.9111 85.605 98.8365C85.525 98.6926 84.2296 96.3523 84.2296 96.3523C84.2296 96.3523 85.4344 95.6859 85.573 95.6113C85.509 95.4833 84.9973 94.5771 84.928 94.4491C84.7947 94.5237 83.5899 95.1901 83.5899 95.1901C83.5899 95.1901 82.8329 93.8254 82.7582 93.6814C82.7156 93.7081 82.673 93.7348 82.673 93.7348L82.6676 93.7401Z" fill="#919195"/>
<path d="M85.8395 99.5082C85.8395 99.5082 77.7524 103.981 77.6031 104.061C77.6725 104.189 78.1842 105.111 78.2589 105.234C78.4028 105.148 85.2584 101.363 85.2584 101.363C85.2584 101.363 86.17 103.021 86.25 103.16C86.3779 103.085 87.4388 102.499 87.5721 102.424C87.4975 102.28 86.0101 99.5935 85.9301 99.4549C85.8875 99.4762 85.8395 99.5029 85.8395 99.5029V99.5082Z" fill="#919195"/>
<path d="M80.1567 95.3394L77.7045 96.6988H77.6991L77.2513 95.8885L75.9132 96.6295L76.3611 97.4398L73.8661 98.8205L74.4899 99.94L75.3855 99.4442C75.3482 99.972 75.4495 100.51 75.716 101.012C76.4943 102.414 78.3282 102.888 79.8049 102.067C81.2869 101.251 81.8626 99.4442 81.0896 98.0422C80.8124 97.5464 80.4126 97.1786 79.9435 96.928L80.7751 96.4642L80.1567 95.3447V95.3394ZM79.1278 100.756C78.4188 101.15 77.5392 100.921 77.1714 100.249C76.7929 99.5775 77.0754 98.7139 77.7791 98.3194C78.4881 97.9302 79.3624 98.1541 79.7356 98.8312C80.1034 99.5029 79.8315 100.367 79.1278 100.761V100.756Z" fill="#919195"/>
<path d="M110.053 62.2926L108.901 61.5676C110.122 61.0078 110.159 59.7924 110.159 59.7924C110.207 58.8434 109.648 58.1611 108.843 58.1664C107.771 58.1664 107.377 59.1207 106.924 60.2135C106.433 61.3917 105.676 62.6231 104.178 62.7137C102.366 62.8257 101.139 61.2157 101.235 59.014C101.326 56.8656 102.808 55.8421 102.808 55.8421L104.173 56.4712C104.173 56.4712 102.254 57.1002 102.131 59.4139C102.072 60.4374 102.824 61.2317 103.826 61.2264C104.898 61.2211 105.282 60.3041 105.724 59.2379C106.215 58.0438 106.78 56.6951 108.491 56.6844C110.159 56.6737 111.167 57.9958 111.066 60.0536C111.066 60.0536 111.034 61.365 110.053 62.2926V62.2926Z" fill="#919195"/>
<path d="M9.78764 77.198L11.1417 77.3473C10.2941 78.3815 10.7845 79.4904 10.7845 79.4904C11.1577 80.3646 11.9573 80.7378 12.6824 80.3806C13.6473 79.9062 13.5833 78.8826 13.5087 77.6991C13.434 76.425 13.5726 74.9857 14.8841 74.25C16.4727 73.3597 18.2746 74.266 19.1542 76.2918C20.0071 78.2642 19.1275 79.8315 19.1275 79.8315L17.6242 79.8635C17.6242 79.8635 19.0742 78.4615 18.1733 76.3291C17.7788 75.3855 16.7552 74.9963 15.8543 75.4441C14.8894 75.9186 14.948 76.9048 15.0173 78.0616C15.0973 79.3517 15.1826 80.8124 13.6526 81.5694C12.1546 82.3104 10.6672 81.5641 9.86227 79.6716C9.86227 79.6716 9.30785 78.4721 9.78764 77.2087V77.198Z" fill="#919195"/>
<path d="M8.36432 43.2716L8.26836 43.3676C8.09244 43.5435 7.10087 44.5724 6.66906 46.6248C6.01335 49.7701 7.47404 52.1051 10.3634 52.7075C13.3115 53.3259 15.4652 51.8598 16.1049 48.7892C16.3555 47.5844 16.4034 46.3529 16.2488 45.1055L16.2329 44.9882L12.6451 44.2365L12.3359 45.6972L15.3639 46.3263C15.5398 47.03 15.4705 47.755 15.3639 48.2508C14.8681 50.6284 13.1835 51.6413 10.63 51.1082C8.23637 50.6071 7.02091 49.0344 7.47404 46.8487C7.70327 45.7505 8.42829 44.6683 9.32389 44.1672L9.38787 44.1299L8.36432 43.277V43.2716Z" fill="#919195"/>
<path d="M17.4536 24.5705L16.6113 25.77L18.7331 30.2054L13.8285 29.7149L12.757 31.2343L19.1435 31.6074C19.2182 31.6607 22.3368 33.8518 22.3368 33.8518L23.1951 32.6363C23.1951 32.6363 19.9752 30.3706 19.9059 30.328L17.4483 24.5759L17.4536 24.5705Z" fill="#919195"/>
<path d="M104.722 83.2487L105.314 81.916L102.36 77.9764L107.27 77.5019L108.022 75.8013L101.689 76.6809C101.598 76.6436 98.1168 75.103 98.1168 75.103L97.5144 76.4677C97.5144 76.4677 101.118 78.0563 101.187 78.0883L104.722 83.254V83.2487Z" fill="#919195"/>
<path d="M14.4949 37.6155L12.5171 31.8313L11.8454 33.1907L13.706 38.6283C13.4554 38.5057 10.0489 36.8265 10.0489 36.8265L9.39319 38.1645L17.7735 42.2961L18.4345 40.958L14.3723 38.9589L20.1138 37.5568L20.9508 35.8562L14.4896 37.6155H14.4949Z" fill="#919195"/>
<path d="M42.4986 12.5118L45.2601 7.06356L43.8154 7.52735L41.2192 12.6504C41.1339 12.3839 39.9717 8.7748 39.9717 8.7748L38.5483 9.2386L41.4324 18.1254L42.8558 17.6669L41.4537 13.3595L46.4595 16.4994L48.2614 15.913L42.4986 12.5118V12.5118Z" fill="#919195"/>
<path d="M50.2925 15.4705L51.4013 15.3586L53.1712 7.98049L56.1832 14.8894L57.4573 14.7668L59.643 5.15506L58.3583 5.28834L56.5884 12.885L53.4911 5.7628L52.6381 5.84809L50.8949 13.4288L47.9628 6.31189L46.3902 6.46116L50.2925 15.4705Z" fill="#919195"/>
<path d="M64.8035 5.85875L64.1478 5.77879L59.0193 14.6869L60.2935 14.8521L62.186 11.5096L65.0487 11.8561L66.0349 15.5505L67.7835 15.7584L64.8141 5.85875H64.8035ZM64.0625 7.90585C64.2224 8.45494 64.7022 10.566 64.8088 10.9392L62.5325 10.662L64.0571 7.90585H64.0625Z" fill="#919195"/>
<path d="M101.4 28.1212L93.6647 33.3464L94.4973 34.5789L102.232 29.3537L101.4 28.1212Z" fill="#919195"/>
<path d="M101.07 64.3712L100.834 65.8342L110.054 67.3242L110.291 65.8612L101.07 64.3712Z" fill="#919195"/>
<path d="M87.4495 20.7429C86.1434 22.646 84.768 22.9552 83.3073 21.9477C81.6547 20.8122 81.6014 19.6767 82.9821 17.6616L85.9302 13.3648L84.7094 12.5278L81.692 16.9365C81.047 17.8908 80.4552 18.9783 80.7218 20.0978C80.951 21.0627 81.6067 21.905 82.6889 22.6514C84.7574 24.0694 86.6925 23.7229 88.1372 21.6118L91.2825 17.0272L90.4082 16.4248L87.4495 20.7429V20.7429Z" fill="#919195"/>
<path d="M27.092 22.2782C28.7073 23.9308 28.7393 25.3329 27.4705 26.575C26.0365 27.977 24.9117 27.8118 23.2057 26.0632L19.5593 22.3368L18.4985 23.3764L22.2408 27.1934C23.0511 28.0037 24.0107 28.798 25.1515 28.75C26.1484 28.7074 27.1027 28.2329 28.0409 27.316C29.8375 25.5621 29.8641 23.595 28.0783 21.7664L24.192 17.7948L23.4296 18.5412L27.092 22.2729V22.2782Z" fill="#919195"/>
<path d="M11.3976 66.3335C13.642 65.8004 14.8628 66.4934 15.2732 68.2207C15.7317 70.1718 15.012 71.0514 12.6344 71.6112L7.55931 72.816L7.90582 74.2607L13.1035 73.0239C14.2177 72.7467 15.3905 72.3415 15.9396 71.3286C16.4194 70.4597 16.5474 69.3828 16.2435 68.1087C15.6624 65.6671 13.9458 64.6329 11.4616 65.2246L6.05597 66.5094L6.30119 67.549L11.3923 66.3388L11.3976 66.3335Z" fill="#919195"/>
<path d="M96.5975 38.0899L96.9866 38.8416L107.089 38.0633L106.47 36.8584L98.5166 37.6314L103.778 31.6234L103.021 30.1414L96.5975 38.0899Z" fill="#919195"/>
<path d="M100.196 43.8154C100.473 43.7301 103.181 42.8718 103.453 42.7865L104.434 45.8731L105.335 45.5853L104.359 42.4933C104.626 42.408 107.041 41.6457 107.302 41.5657L108.368 44.9296L109.136 44.6897L107.627 39.9131L98.7192 42.7225L100.249 47.5791L101.289 47.2539L100.201 43.8047L100.196 43.8154Z" fill="#919195"/>
<path d="M109.856 69.0416L109.104 68.8284L108.32 71.6165C108.011 71.5312 100.079 69.2975 100.079 69.2975L99.6788 70.7209L107.92 73.0399L107.169 75.716L107.92 75.9239L109.856 69.0363V69.0416Z" fill="#919195"/>
<path d="M100.66 49.0504L100.841 50.5218L105.346 49.93L101.363 54.4987L101.566 56.0713L105.548 51.5293C105.809 53.0487 107.041 54.2535 108.39 54.0775C109.92 53.8803 110.575 52.8194 110.298 50.7617L109.92 47.8403L100.66 49.0558V49.0504ZM106.225 49.8128C106.497 49.7754 109.045 49.4449 109.317 49.4076L109.504 50.815C109.658 51.9825 109.04 52.5635 108.203 52.6435C107.329 52.7235 106.609 52.3556 106.401 51.0389L106.231 49.8181L106.225 49.8128Z" fill="#919195"/>
<path d="M33.6119 11.4883L32.7056 12.0587L36.2667 17.6722C32.9775 16.8193 27.2573 15.5078 27.2573 15.5078L26.6176 15.913L31.6127 23.8029L32.5137 23.2271C32.5137 23.2271 30.4399 19.9432 28.7767 17.315L38.0686 19.7087L38.607 19.3675L33.6065 11.4776L33.6119 11.4883Z" fill="#919195"/>
<path d="M5.46956 54.9785L5.49089 56.05L12.1386 55.9167C9.7077 58.2837 5.62416 62.4952 5.62416 62.4952L5.63482 63.2522L14.9747 63.0656L14.9534 61.9994C14.9534 61.9994 11.0671 62.0794 7.95914 62.138L14.8201 55.4316L14.8041 54.7919L5.46423 54.9838L5.46956 54.9785Z" fill="#919195"/>
<path d="M78.8666 9.6171L77.8537 9.27592L75.7267 15.5718C74.3246 12.4852 71.7391 7.21283 71.7391 7.21283L71.0194 6.9676L68.0341 15.817L69.0469 16.1636C69.0469 16.1636 70.2944 12.4798 71.2806 9.5318L75.2682 18.264L75.8759 18.4665L78.856 9.6171H78.8666Z" fill="#919195"/>
<path d="M99.5508 25.3862L98.8205 24.6025L93.948 29.1232C94.1878 25.7433 94.4384 19.8739 94.4384 19.8739L93.916 19.3195L87.071 25.674L87.8013 26.4577C87.8013 26.4577 90.6534 23.8189 92.9297 21.7025L92.2687 31.2769L92.7005 31.746L99.5508 25.3915V25.3862Z" fill="#919195"/>
<path d="M61.5676 46.5289C61.5676 38.9002 67.7408 32.7109 75.3482 32.7109C77.1927 32.7109 78.9466 33.0788 80.5512 33.7345C68.3592 22.4861 49.3596 22.774 37.5301 34.6088C26.0632 46.0757 25.4395 64.2704 35.643 76.4783C38.2925 73.0079 41.9175 69.0096 46.3689 65.8857C49.8447 63.4441 54.6639 60.9972 58.5396 60.6346C62.2073 60.2881 67.6715 60.64 70.9768 62.2286C68.3912 59.5791 65.6618 56.6044 64.329 54.8239C62.5964 52.5156 61.5676 49.6422 61.5676 46.5289V46.5289Z" fill="url(#paint0_linear_1345_13500)"/>
<path d="M60.592 56.6311L46.0278 28.5794C43.3356 29.8749 40.7981 31.5808 38.4897 33.6972L60.4961 56.5938L60.592 56.6311V56.6311Z" fill="url(#paint1_linear_1345_13500)"/>
<path d="M60.6667 56.6631L62.5965 25.674C60.0749 25.4235 57.5321 25.4768 55.0265 25.8393L60.64 56.6471L60.6667 56.6577V56.6631Z" fill="url(#paint2_linear_1345_13500)"/>
<path d="M60.496 56.5991L30.4933 45.452C29.475 48.1122 28.8353 50.8896 28.5741 53.6937L60.576 56.6791L60.496 56.5991V56.5991Z" fill="url(#paint3_linear_1345_13500)"/>
<path d="M28.7607 61.0451C29.0752 63.2149 29.619 65.3473 30.392 67.421L60.4907 56.7537L28.7607 61.0398V61.0451Z" fill="url(#paint4_linear_1345_13500)"/>
<path d="M35.0673 84.075C34.1663 83.2914 32.6203 81.8307 31.2343 80.0448C24.8957 72.9279 17.6456 54.2641 29.7043 37.3329C34.6781 30.3546 41.8163 25.6527 48.9118 23.7496C65.4539 19.3088 78.163 27.1187 83.9791 33.42C84.6241 34.1237 84.5335 35.0193 84.0377 35.4298C83.318 36.0375 82.6677 35.723 81.2176 35.2965C78.9466 34.6408 76.9955 34.4862 74.9004 34.7527C70.0439 35.3764 65.8324 39.8811 66.4188 46.1717C66.9466 51.9185 71.3766 56.066 74.4899 58.8115C85.4131 68.4339 81.7614 78.7494 80.8711 81.0097C77.8538 88.7077 70.1078 94.1293 60.0696 94.1293C55.9008 94.1293 49.8767 93.0524 43.8154 89.2088C43.5808 89.1075 43.3516 88.7929 43.6395 88.2758C44.1033 87.103 46.0331 83.6912 46.8701 82.7103C49.8767 86.1861 54.9572 89.4593 60.6027 89.6672C68.3113 89.9498 73.2851 85.7756 75.103 80.4766C77.1501 74.5219 74.975 68.4606 69.2122 62.9856C64.2491 58.2677 59.8137 53.9016 59.5525 46.4169C59.222 36.8318 67.5703 31.133 75.3215 31.5168C75.5561 31.5275 64.6063 23.6269 50.5378 28.3289C43.6555 30.6425 39.54 34.6994 37.5568 37.0077C37.2636 37.3649 37.4502 37.6421 37.5515 37.786C37.7701 38.1006 42.552 44.7643 42.552 44.7643L33.9318 42.7812C33.9318 42.7812 33.5692 42.6906 33.3933 42.9891C30.6532 47.7177 26.6123 61.3757 35.6323 73.8235C35.6323 73.8235 43.3143 61.6582 58.5716 60.6187C59.5845 60.5494 59.4565 60.9119 58.7902 61.1571C45.1641 66.1629 39.7852 76.1585 36.3094 83.8618C36.0961 84.3362 35.5311 84.4802 35.0726 84.0697L35.0673 84.075Z" fill="#00467F"/>
<path d="M49.1144 74.6871C49.1144 74.6871 49.9674 74.3086 50.2072 74.1754V80.0821H51.2734V73.1305L51.1029 73.0185L51.0495 73.0452C50.2712 73.429 49.4716 73.7915 48.7999 74.0687L49.1144 74.6871V74.6871Z" fill="#919195"/>
<path d="M54.7866 76.6116C55.6555 76.6116 56.0767 77.0594 56.0767 77.9764C56.0767 78.8933 55.4956 79.5223 54.5893 79.5223C53.939 79.5223 53.4965 79.0852 53.3366 78.8986L53.2033 78.744L52.9474 79.6609L53.0327 79.7036C53.4059 79.8795 53.875 80.0608 54.5733 80.0608C56.098 80.0608 57.2068 79.1278 57.2068 77.8484C57.2068 76.6756 56.2952 76.3397 55.7462 76.2438C56.3486 75.9879 56.887 75.4388 56.887 74.6125C56.887 73.6316 56.1193 73.0345 54.8879 73.0292C53.843 73.0292 53.3099 73.7116 53.3099 73.7116L53.7684 74.5059L53.843 74.282C53.9656 73.9248 54.3548 73.5623 54.8505 73.5623C55.2824 73.5623 55.8048 73.8502 55.8048 74.6765C55.8048 75.3109 55.6235 76.0785 54.7866 76.0785L54.2322 76.0305V76.6863C54.2322 76.6863 54.5467 76.6063 54.7866 76.6116V76.6116Z" fill="#919195"/>
<path d="M58.6675 78.6747L58.9447 79.7996C58.9447 79.7996 59.3925 80.0554 60.0163 80.0554C61.7968 80.0448 63.0443 78.3815 63.0443 75.9826C63.0443 73.3117 61.4183 73.0239 60.7146 73.0239C59.3606 73.0239 58.4063 73.9408 58.4063 75.2522C58.4063 76.5636 59.1846 77.326 60.4374 77.326C61.0718 77.326 61.5729 77.0754 61.9354 76.6116C61.8608 78.1043 61.2744 79.469 60.0536 79.4744C59.0727 79.4744 58.6569 78.6694 58.6569 78.6694L58.6675 78.6747ZM60.608 76.7449C59.8617 76.7449 59.4938 76.2544 59.4938 75.2522C59.4938 74.25 59.9843 73.557 60.7093 73.557C61.4343 73.557 61.9194 74.1327 61.9194 74.9963C61.9194 75.86 61.4716 76.7449 60.608 76.7449V76.7449Z" fill="#919195"/>
<path d="M67.2877 76.0572C67.8954 75.7853 68.2899 75.2362 68.2899 74.5858C68.2899 73.8662 67.7675 73.0239 66.2908 73.0239C65.1713 73.0239 64.329 73.7436 64.329 74.7031C64.329 75.4122 64.8088 75.9133 65.3312 76.1105C64.4623 76.4517 63.9772 77.1127 63.9772 78.0083C63.9772 79.2291 64.9048 80.0554 66.2908 80.0554C67.6769 80.0554 68.6098 79.1012 68.6098 77.7844C68.6098 76.569 67.7142 76.1745 67.293 76.0572H67.2877ZM65.3472 74.7138C65.3472 74.4419 65.4165 73.557 66.3015 73.557C67.1864 73.557 67.2611 74.3619 67.2611 74.7138C67.2611 74.9857 67.1918 75.8759 66.3015 75.8759C65.4112 75.8759 65.3472 74.9857 65.3472 74.7138ZM66.2855 79.5117C65.5551 79.5117 65.0594 78.888 65.0594 77.955C65.0594 77.0221 65.5551 76.4037 66.2855 76.4037C67.0158 76.4037 67.5116 77.0274 67.5116 77.955C67.5116 78.8826 67.0318 79.5117 66.2855 79.5117Z" fill="#919195"/>
</g>
<defs>
<linearGradient id="paint0_linear_1345_13500" x1="65.2939" y1="58.7048" x2="39.7958" y2="44.2792" gradientUnits="userSpaceOnUse">
<stop stop-color="white"/>
<stop offset="0.2" stop-color="#E2E993"/>
<stop offset="0.76" stop-color="#A6CE39"/>
<stop offset="1" stop-color="#8DC63F"/>
</linearGradient>
<linearGradient id="paint1_linear_1345_13500" x1="63.1669" y1="49.2157" x2="39.3907" y2="33.3133" gradientUnits="userSpaceOnUse">
<stop stop-color="#E0E995"/>
<stop offset="0.07" stop-color="#D0E17E"/>
<stop offset="0.14" stop-color="#C4DB6D"/>
<stop offset="0.2" stop-color="#C1DA68"/>
<stop offset="0.4" stop-color="#9FC73B"/>
<stop offset="0.7" stop-color="#83BD40"/>
<stop offset="1" stop-color="#6CB545"/>
</linearGradient>
<linearGradient id="paint2_linear_1345_13500" x1="66.4135" y1="44.3698" x2="42.6319" y2="28.4621" gradientUnits="userSpaceOnUse">
<stop stop-color="#E0E995"/>
<stop offset="0.07" stop-color="#D0E17E"/>
<stop offset="0.14" stop-color="#C4DB6D"/>
<stop offset="0.2" stop-color="#C1DA68"/>
<stop offset="0.4" stop-color="#9FC73B"/>
<stop offset="0.7" stop-color="#83BD40"/>
<stop offset="1" stop-color="#6CB545"/>
</linearGradient>
<linearGradient id="paint3_linear_1345_13500" x1="54.6693" y1="61.9248" x2="30.8877" y2="46.0171" gradientUnits="userSpaceOnUse">
<stop stop-color="#E0E995"/>
<stop offset="0.07" stop-color="#D0E17E"/>
<stop offset="0.14" stop-color="#C4DB6D"/>
<stop offset="0.2" stop-color="#C1DA68"/>
<stop offset="0.4" stop-color="#9FC73B"/>
<stop offset="0.7" stop-color="#83BD40"/>
<stop offset="1" stop-color="#6CB545"/>
</linearGradient>
<linearGradient id="paint4_linear_1345_13500" x1="51.7426" y1="66.3068" x2="27.9557" y2="50.3992" gradientUnits="userSpaceOnUse">
<stop stop-color="#E0E995"/>
<stop offset="0.07" stop-color="#D0E17E"/>
<stop offset="0.14" stop-color="#C4DB6D"/>
<stop offset="0.2" stop-color="#C1DA68"/>
<stop offset="0.4" stop-color="#9FC73B"/>
<stop offset="0.7" stop-color="#83BD40"/>
<stop offset="1" stop-color="#6CB545"/>
</linearGradient>
<clipPath id="clip0_1345_13500">
<rect width="116.402" height="116.402" fill="white"/>
</clipPath>
</defs>
</svg>
