<svg width="134" height="134" viewBox="0 0 134 134" fill="none" xmlns="http://www.w3.org/2000/svg">
<g clip-path="url(#clip0_359_37475)">
<path d="M107.924 104.089C107.924 104.089 106.886 105.175 106.764 105.31C106.905 105.439 109.231 107.673 109.231 107.673L107.911 109.054C107.911 109.054 105.573 106.826 105.438 106.691C105.315 106.82 104.315 107.863 104.192 107.992C104.327 108.121 106.666 110.355 106.666 110.355C106.666 110.355 105.039 112.055 104.904 112.196C105.033 112.318 105.929 113.178 106.058 113.294C106.193 113.147 114.502 104.457 114.644 104.31C114.515 104.193 113.613 103.328 113.49 103.205C113.355 103.346 110.477 106.359 110.477 106.359C110.477 106.359 108.145 104.126 108.003 103.997C107.967 104.04 107.918 104.083 107.918 104.083L107.924 104.089Z" fill="#919195"/>
<path d="M111.44 102.769C111.293 102.634 106.481 98.0435 106.334 97.9023C106.297 97.9453 106.254 97.9883 106.254 97.9883C106.254 97.9883 99.0435 105.537 98.9023 105.69C99.0251 105.813 99.9272 106.672 100.05 106.789C100.197 106.641 106.248 100.302 106.248 100.302C106.248 100.302 110.047 103.935 110.194 104.07L111.44 102.769Z" fill="#919195"/>
<path d="M23.2587 106.451C22.0006 107.629 22.0374 109.728 23.3507 111.133C24.664 112.539 26.7567 112.729 28.0148 111.551C29.279 110.372 29.2361 108.267 27.9289 106.862C26.6156 105.457 24.5229 105.273 23.2587 106.457V106.451ZM24.4124 107.66C25.0814 107.034 26.1921 107.126 26.8856 107.868C27.5791 108.611 27.5975 109.728 26.9224 110.354C26.2474 110.98 25.1366 110.888 24.4431 110.145C23.7558 109.403 23.7435 108.286 24.4124 107.66Z" fill="#919195"/>
<path d="M34.7957 105.125C34.7957 105.125 33.8076 104.069 33.691 103.946C33.556 104.069 32.2427 105.29 32.2427 105.29C32.2427 105.29 30.9724 103.922 30.8435 103.793C30.7208 103.903 29.8432 104.72 29.7204 104.836C29.8493 104.965 31.1258 106.334 31.1258 106.334C31.1258 106.334 29.3645 107.978 29.2295 108.101C29.3461 108.224 30.2912 109.249 30.4139 109.371C30.5551 109.249 34.7343 105.339 34.8755 105.211C34.8387 105.168 34.7957 105.125 34.7957 105.125Z" fill="#919195"/>
<path d="M29.5057 99.4068C29.5057 99.4068 23.1417 99.6646 22.9453 99.6707C22.9514 99.8425 23.0496 101.242 23.0619 101.407C23.2522 101.395 27.7628 101.144 27.7628 101.144C27.7628 101.144 27.2105 105.372 27.1798 105.562C27.3455 105.581 28.7324 105.777 28.9043 105.795C28.9288 105.599 29.6162 99.6155 29.6468 99.3945C29.5793 99.3945 29.5118 99.3945 29.5118 99.3945L29.5057 99.4068Z" fill="#919195"/>
<path d="M81.5838 126.347L83.3083 126.052L81.3752 114.711L81.2586 114.729C81.2586 114.729 79.8287 114.975 79.6568 115.006C79.6814 115.196 80.2521 118.491 80.2521 118.491L79.2395 118.669C79.2395 118.669 78.6811 115.374 78.6442 115.177L76.9136 115.472L78.1349 122.677C76.7663 122.904 72.6791 123.609 72.6791 123.609L71.7341 118.068C71.7341 118.068 75.5819 117.411 75.766 117.381L75.5267 115.944C75.5267 115.944 75.5144 115.944 75.496 115.944L69.7764 116.92C70.1323 118.964 71.2063 125.26 71.2308 125.426L78.3988 124.205L78.8468 126.819L80.5835 126.525C80.5528 126.328 79.5095 120.185 79.5095 120.185L80.516 120.013C80.516 120.013 81.5654 126.162 81.5961 126.347H81.5838Z" fill="#919195"/>
<path d="M46.5481 117.572C46.5481 117.572 46.3456 117.467 46.0142 117.289L48.156 113.282C48.1069 113.257 48.0578 113.233 48.0578 113.233C48.0578 113.233 39.0672 108.434 38.8954 108.342L38.1589 109.723C38.3308 109.821 45.8669 113.84 45.8669 113.84C45.8669 113.84 45.0078 115.448 44.4616 116.473L36.0601 111.987L35.3298 113.362C35.4955 113.448 38.6253 115.117 38.6253 115.117C38.6253 115.117 37.7416 116.768 37.6618 116.927L39.2329 117.768C39.3188 117.609 40.2025 115.958 40.2025 115.958L41.6018 116.7C41.6018 116.7 40.7242 118.351 40.6383 118.511L42.2154 119.358C42.3014 119.198 43.1851 117.547 43.1851 117.547C43.1851 117.547 45.7503 118.916 45.916 119.008L46.6524 117.627C46.6034 117.602 46.5543 117.578 46.5543 117.578L46.5481 117.572ZM37.0727 115.491L35.5139 114.663L33.5869 118.277L43.0439 123.328L43.7742 121.947C43.6024 121.855 35.8699 117.731 35.8699 117.731C35.8699 117.731 36.9806 115.657 37.0727 115.491Z" fill="#919195"/>
<path d="M54.0043 122.499C53.9491 122.493 53.8938 122.481 53.8938 122.481C53.8938 122.481 52.4394 122.248 52.2675 122.223L51.6293 126.267L62.2892 127.955L62.5285 126.409C62.3383 126.384 53.6054 124.997 53.6054 124.997C53.6054 124.997 53.9736 122.677 54.0043 122.487V122.499ZM63.6822 118.59C63.6822 118.59 63.9707 116.78 64.0014 116.602C63.9461 116.602 63.8848 116.589 63.8848 116.589C63.8848 116.589 62.4364 116.362 62.2646 116.332L61.5159 121.033L59.7546 120.75L60.4604 116.258C60.4051 116.246 60.3499 116.24 60.3499 116.24C60.3499 116.24 53.2617 115.117 53.0592 115.086L52.8199 116.632C53.0101 116.657 58.472 117.522 58.472 117.522C58.472 117.522 58.1529 119.554 58.0056 120.474C57.0237 120.321 56.2566 120.198 56.2566 120.198C56.2566 120.198 56.4898 118.725 56.5143 118.553C56.4591 118.553 56.3977 118.541 56.3977 118.541C56.3977 118.541 54.9187 118.302 54.7469 118.277C54.7223 118.455 54.483 119.916 54.483 119.916C54.483 119.916 51.9791 119.523 51.8011 119.492L51.5557 121.039L61.2643 122.573L60.982 124.371L62.7187 124.647C62.7494 124.457 63.4368 120.118 63.4368 120.118C63.4368 120.118 65.0385 120.37 65.2165 120.401L65.4558 118.872C65.2779 118.842 63.6761 118.59 63.6761 118.59H63.6822Z" fill="#919195"/>
<path d="M95.1647 107.911C95.1647 107.911 93.9066 108.611 93.7471 108.697C93.8391 108.862 96.926 114.453 97.0303 114.619C97.1776 114.539 98.3989 113.864 98.5462 113.778C98.4541 113.612 96.9628 110.918 96.9628 110.918C96.9628 110.918 98.3498 110.151 98.5093 110.065C98.4357 109.918 97.8465 108.875 97.7668 108.727C97.6133 108.813 96.2264 109.581 96.2264 109.581C96.2264 109.581 95.355 108.009 95.269 107.844C95.2199 107.874 95.1708 107.905 95.1708 107.905L95.1647 107.911Z" fill="#919195"/>
<path d="M98.8165 114.552C98.8165 114.552 89.5068 119.7 89.335 119.793C89.4147 119.94 90.0039 121.002 90.0898 121.143C90.2555 121.044 98.1476 116.687 98.1476 116.687C98.1476 116.687 99.197 118.596 99.2891 118.755C99.4363 118.669 100.658 117.994 100.811 117.909C100.725 117.743 99.0129 114.65 98.9209 114.49C98.8718 114.515 98.8165 114.545 98.8165 114.545V114.552Z" fill="#919195"/>
<path d="M92.2748 109.752L89.4518 111.317H89.4457L88.9302 110.384L87.3898 111.237L87.9053 112.17L85.0332 113.759L85.7512 115.048L86.7822 114.477C86.7393 115.085 86.8559 115.705 87.1627 116.282C88.0587 117.896 90.1698 118.442 91.8698 117.497C93.5758 116.558 94.2386 114.477 93.3488 112.863C93.0296 112.293 92.5694 111.869 92.0293 111.581L92.9867 111.047L92.2748 109.758V109.752ZM91.0904 115.987C90.2741 116.441 89.2616 116.177 88.8381 115.404C88.4024 114.631 88.7276 113.637 89.5377 113.182C90.3539 112.735 91.3604 112.992 91.79 113.772C92.2134 114.545 91.9004 115.539 91.0904 115.993V115.987Z" fill="#919195"/>
<path d="M126.691 71.7089L125.365 70.8743C126.771 70.2299 126.813 68.8307 126.813 68.8307C126.869 67.7383 126.224 66.9528 125.298 66.9589C124.064 66.9589 123.61 68.0574 123.088 69.3155C122.524 70.6718 121.652 72.0894 119.928 72.1937C117.841 72.3226 116.43 70.4692 116.54 67.9347C116.645 65.4615 118.351 64.2832 118.351 64.2832L119.922 65.0074C119.922 65.0074 117.712 65.7315 117.571 68.3949C117.504 69.5732 118.369 70.4876 119.523 70.4815C120.756 70.4754 121.198 69.4198 121.708 68.1924C122.272 66.8178 122.923 65.2651 124.893 65.2528C126.813 65.2406 127.973 66.7625 127.857 69.1314C127.857 69.1314 127.82 70.6411 126.691 71.7089Z" fill="#919195"/>
<path d="M11.267 88.8675L12.8258 89.0393C11.85 90.2299 12.4146 91.5064 12.4146 91.5064C12.8442 92.5128 13.7648 92.9424 14.5994 92.5312C15.7102 91.985 15.6365 90.8068 15.5506 89.4444C15.4647 87.9776 15.6242 86.3207 17.1339 85.4738C18.9627 84.4489 21.037 85.4922 22.0496 87.8242C23.0315 90.0949 22.0189 91.8991 22.0189 91.8991L20.2883 91.9359C20.2883 91.9359 21.9576 90.3219 20.9204 87.8672C20.4663 86.7809 19.288 86.3329 18.2508 86.8484C17.1401 87.3946 17.2076 88.5299 17.2874 89.8617C17.3794 91.3468 17.4776 93.0283 15.7163 93.8998C13.9918 94.7528 12.2796 93.8936 11.3529 91.715C11.3529 91.715 10.7147 90.3342 11.267 88.8798V88.8675Z" fill="#919195"/>
<path d="M9.62805 49.8125L9.51759 49.923C9.31507 50.1255 8.1736 51.3099 7.67651 53.6726C6.92167 57.2934 8.60319 59.9814 11.9294 60.6749C15.3231 61.3868 17.8025 59.6991 18.5389 56.1642C18.8273 54.7773 18.8826 53.3596 18.7046 51.9236L18.6862 51.7886L14.556 50.9233L14.2001 52.6048L17.6859 53.329C17.8884 54.139 17.8086 54.9737 17.6859 55.5444C17.1151 58.2815 15.1758 59.4475 12.2363 58.8338C9.48077 58.2569 8.08155 56.4465 8.60319 53.9304C8.86707 52.6662 9.7017 51.4204 10.7327 50.8435L10.8063 50.8005L9.62805 49.8186V49.8125Z" fill="#919195"/>
<path d="M20.0922 28.2852L19.1226 29.666L21.5651 34.7719L15.9191 34.2073L14.6855 35.9563L22.0376 36.3859C22.1235 36.4473 25.7136 38.9696 25.7136 38.9696L26.7017 37.5703C26.7017 37.5703 22.995 34.9621 22.9152 34.913L20.086 28.2913L20.0922 28.2852Z" fill="#919195"/>
<path d="M120.554 95.8343L121.235 94.3L117.835 89.7648L123.487 89.2187L124.353 87.261L117.062 88.2736C116.958 88.2306 112.95 86.457 112.95 86.457L112.257 88.0281C112.257 88.0281 116.405 89.8569 116.485 89.8937L120.554 95.8404V95.8343Z" fill="#919195"/>
<path d="M16.6855 43.3012L14.4087 36.6426L13.6355 38.2075L15.7773 44.4672C15.4888 44.326 11.5673 42.3929 11.5673 42.3929L10.8125 43.9333L20.4598 48.6894L21.2207 47.149L16.5444 44.8477L23.1539 43.2336L24.1174 41.276L16.6794 43.3012H16.6855Z" fill="#919195"/>
<path d="M48.9234 14.4028L52.1024 8.13086L50.4393 8.66477L47.4506 14.5624C47.3524 14.2555 46.0145 10.1008 46.0145 10.1008L44.376 10.6347L47.6961 20.865L49.3346 20.3372L47.7206 15.3786L53.4832 18.9932L55.5575 18.3182L48.9234 14.4028Z" fill="#919195"/>
<path d="M57.8956 17.8086L59.172 17.6797L61.2095 9.18617L64.6769 17.1396L66.1436 16.9985L68.6597 5.93359L67.1807 6.08702L65.1433 14.8322L61.5777 6.6332L60.5958 6.7314L58.589 15.4581L55.2137 7.26531L53.4033 7.43714L57.8956 17.8086Z" fill="#919195"/>
<path d="M74.6 6.7444L73.8451 6.65234L67.9414 16.9072L69.4081 17.0974L71.5867 13.2495L74.8823 13.6484L76.0176 17.9013L78.0305 18.1407L74.6123 6.7444H74.6ZM73.7469 9.10098C73.9311 9.73308 74.4834 12.1633 74.6061 12.5929L71.9856 12.2738L73.7408 9.10098H73.7469Z" fill="#919195"/>
<path d="M116.73 32.3715L107.825 38.3867L108.784 39.8055L117.688 33.7904L116.73 32.3715Z" fill="#919195"/>
<path d="M116.35 74.1029L116.078 75.7871L126.692 77.5024L126.965 75.8182L116.35 74.1029Z" fill="#919195"/>
<path d="M100.67 23.8789C99.1663 26.0698 97.5829 26.4257 95.9014 25.2658C93.999 23.9587 93.9376 22.6515 95.5271 20.3317L98.9208 15.3854L97.5154 14.4219L94.0419 19.4971C93.2994 20.5956 92.6181 21.8476 92.925 23.1363C93.1889 24.2471 93.9437 25.2167 95.1895 26.0759C97.5707 27.7083 99.7984 27.3094 101.461 24.8792L105.082 19.6014L104.076 18.908L100.67 23.8789Z" fill="#919195"/>
<path d="M31.1877 25.6455C33.0472 27.548 33.084 29.162 31.6234 30.5919C29.9725 32.2059 28.6777 32.0157 26.7138 30.0028L22.5162 25.713L21.2949 26.9097L25.6031 31.3038C26.5359 32.2366 27.6405 33.151 28.9538 33.0958C30.1014 33.0467 31.1999 32.5005 32.28 31.4449C34.3482 29.4259 34.3789 27.1614 32.323 25.0564L27.8492 20.4844L26.9716 21.3435L31.1877 25.6394V25.6455Z" fill="#919195"/>
<path d="M13.1209 76.3604C15.7045 75.7468 17.1099 76.5446 17.5824 78.5329C18.1102 80.779 17.2817 81.7916 14.5447 82.436L8.7023 83.823L9.1012 85.4861L15.0847 84.0623C16.3673 83.7432 17.7175 83.2768 18.3496 82.1108C18.9019 81.1104 19.0492 79.8708 18.6994 78.404C18.0304 75.5933 16.0543 74.4028 13.1945 75.084L6.97168 76.563L7.25398 77.7597L13.1148 76.3666L13.1209 76.3604Z" fill="#919195"/>
<path d="M111.201 43.8474L111.649 44.7127L123.279 43.8168L122.567 42.4298L113.41 43.3197L119.468 36.4033L118.596 34.6973L111.201 43.8474Z" fill="#919195"/>
<path d="M115.343 50.4395C115.663 50.3413 118.78 49.3533 119.093 49.2551L120.222 52.8084L121.259 52.477L120.136 48.9175C120.443 48.8193 123.223 47.9418 123.524 47.8497L124.751 51.7221L125.635 51.446L123.898 45.9473L113.644 49.1814L115.405 54.7722L116.602 54.3978L115.35 50.4272L115.343 50.4395Z" fill="#919195"/>
<path d="M126.463 79.4779L125.598 79.2324L124.696 82.442C124.34 82.3438 115.208 79.7725 115.208 79.7725L114.748 81.411L124.236 84.0806L123.37 87.1613L124.236 87.4007L126.463 79.4718V79.4779Z" fill="#919195"/>
<path d="M115.877 56.4654L116.086 58.1591L121.271 57.4779L116.687 62.7373L116.92 64.5477L121.505 59.319C121.805 61.0681 123.223 62.455 124.776 62.2525C126.537 62.0254 127.292 60.8042 126.973 58.4353L126.537 55.0723L115.877 56.4715V56.4654ZM122.284 57.3429C122.597 57.3 125.53 56.9195 125.843 56.8765L126.058 58.4967C126.236 59.8407 125.524 60.5096 124.561 60.6016C123.554 60.6937 122.726 60.2703 122.486 58.7544L122.29 57.3491L122.284 57.3429Z" fill="#919195"/>
<path d="M38.6933 13.2252L37.65 13.8818L41.7495 20.344C37.963 19.3621 31.378 17.8524 31.378 17.8524L30.6416 18.3188L36.3919 27.4015L37.4291 26.7387C37.4291 26.7387 35.0418 22.9583 33.1271 19.9328L43.8237 22.6883L44.4436 22.2956L38.6871 13.2129L38.6933 13.2252Z" fill="#919195"/>
<path d="M6.29618 63.289L6.32072 64.5225L13.9735 64.3691C11.175 67.0939 6.47415 71.9421 6.47415 71.9421L6.48642 72.8135L17.2383 72.5987L17.2138 71.3714C17.2138 71.3714 12.74 71.4634 9.16213 71.5309L17.0604 63.8107L17.042 63.0742L6.29004 63.2951L6.29618 63.289Z" fill="#919195"/>
<path d="M90.7896 11.0696L89.6236 10.6768L87.1749 17.9245C85.5609 14.3713 82.5845 8.30183 82.5845 8.30183L81.756 8.01953L78.3193 18.2068L79.4854 18.6057C79.4854 18.6057 80.9214 14.3651 82.0567 10.9714L86.6472 21.0237L87.3468 21.2569L90.7773 11.0696H90.7896Z" fill="#919195"/>
<path d="M114.601 29.2241L113.76 28.3219L108.151 33.5261C108.427 29.6352 108.716 22.8785 108.716 22.8785L108.114 22.2402L100.234 29.5555L101.075 30.4576C101.075 30.4576 104.358 27.4198 106.979 24.9834L106.218 36.0054L106.715 36.5454L114.601 29.2302V29.2241Z" fill="#919195"/>
<path d="M70.8755 53.5638C70.8755 44.7818 77.9821 37.6568 86.7395 37.6568C88.8629 37.6568 90.8819 38.0803 92.7291 38.8351C78.694 25.8862 56.8219 26.2176 43.2041 39.8416C30.0035 53.0421 29.2855 73.9875 41.0316 88.0411C44.0817 84.0459 48.2548 79.4432 53.3791 75.847C57.3804 73.0363 62.9282 70.2194 67.3897 69.8021C71.6119 69.4032 77.9023 69.8082 81.7072 71.637C78.7308 68.587 75.5887 65.1626 74.0544 63.1128C72.0599 60.4555 70.8755 57.1477 70.8755 53.5638Z" fill="url(#paint0_linear_359_37475)"/>
<path d="M69.7523 65.1929L52.9862 32.9004C49.8871 34.3917 46.9659 36.3555 44.3086 38.7918L69.6419 65.15L69.7523 65.1929Z" fill="url(#paint1_linear_359_37475)"/>
<path d="M69.8386 65.2289L72.0602 29.5549C69.1574 29.2665 66.2301 29.3278 63.3457 29.7451L69.8079 65.2105L69.8386 65.2228V65.2289Z" fill="url(#paint2_linear_359_37475)"/>
<path d="M69.6415 65.1565L35.1029 52.3242C33.9307 55.3865 33.1943 58.5839 32.8936 61.8119L69.7336 65.2486L69.6415 65.1565Z" fill="url(#paint3_linear_359_37475)"/>
<path d="M33.1084 70.2742C33.4705 72.772 34.0964 75.2267 34.9863 77.614L69.6354 65.334L33.1084 70.2681V70.2742Z" fill="url(#paint4_linear_359_37475)"/>
<path d="M40.3688 96.7859C39.3317 95.8837 37.552 94.2022 35.9564 92.1463C28.6595 83.9535 20.3133 62.4681 34.1951 42.9772C39.9208 34.9439 48.1382 29.5312 56.3064 27.3403C75.3494 22.2282 89.9798 31.2188 96.6752 38.4727C97.4178 39.2828 97.3134 40.3138 96.7427 40.7863C95.9142 41.4859 95.1655 41.1238 93.4963 40.6329C90.8819 39.878 88.6358 39.7001 86.224 40.0069C80.6333 40.7249 75.7851 45.9106 76.4601 53.1522C77.0677 59.7678 82.1675 64.5424 85.7515 67.7029C98.326 78.7801 94.1222 90.6551 93.0974 93.2571C89.6239 102.119 80.7069 108.36 69.1511 108.36C64.352 108.36 57.4172 107.12 50.4395 102.696C50.1695 102.579 49.9056 102.217 50.237 101.622C50.7709 100.272 52.9925 96.344 53.956 95.2148C57.4172 99.2161 63.2657 102.984 69.7647 103.223C78.6388 103.549 84.3645 98.7435 86.4572 92.6434C88.8138 85.7885 86.3099 78.8108 79.6759 72.5081C73.9624 67.0769 68.8565 62.0508 68.5558 53.4345C68.1753 42.4003 77.7857 35.8399 86.7088 36.2818C86.9788 36.2941 74.3736 27.1991 58.1782 32.6119C50.2554 35.2753 45.5177 39.9455 43.2348 42.6028C42.8972 43.014 43.112 43.3331 43.2286 43.4988C43.4802 43.8609 48.9851 51.5321 48.9851 51.5321L39.0617 49.2491C39.0617 49.2491 38.6443 49.1448 38.4418 49.4885C35.2874 54.9319 30.6356 70.6548 41.0193 84.9845C41.0193 84.9845 49.8627 70.98 67.4266 69.7833C68.5926 69.7036 68.4453 70.1209 67.6782 70.4032C51.9922 76.1657 45.8 87.6725 41.7987 96.5404C41.5532 97.0866 40.9027 97.2523 40.375 96.7797L40.3688 96.7859Z" fill="#00467F"/>
<path d="M56.5398 85.9795C56.5398 85.9795 57.5217 85.5437 57.7979 85.3903V92.19H59.0253V84.1875L58.8289 84.0586L58.7675 84.0893C57.8715 84.5311 56.951 84.9485 56.1777 85.2676L56.5398 85.9795Z" fill="#919195"/>
<path d="M63.0694 88.1943C64.0697 88.1943 64.5545 88.7098 64.5545 89.7654C64.5545 90.8209 63.8856 91.5451 62.8423 91.5451C62.0936 91.5451 61.5843 91.0419 61.4001 90.8271L61.2467 90.6491L60.9521 91.7047L61.0503 91.7538C61.4799 91.9563 62.02 92.1649 62.8239 92.1649C64.5791 92.1649 65.8556 91.091 65.8556 89.6181C65.8556 88.268 64.8061 87.8813 64.174 87.7709C64.8675 87.4763 65.4873 86.8442 65.4873 85.893C65.4873 84.7638 64.6036 84.0764 63.186 84.0703C61.9832 84.0703 61.3695 84.8558 61.3695 84.8558L61.8972 85.7702L61.9832 85.5125C62.1243 85.1013 62.5723 84.684 63.143 84.684C63.6401 84.684 64.2415 85.0154 64.2415 85.9666C64.2415 86.6969 64.0329 87.5806 63.0694 87.5806L62.4312 87.5254V88.2803C62.4312 88.2803 62.7932 88.1882 63.0694 88.1943Z" fill="#919195"/>
<path d="M67.537 90.5696L67.8562 91.8645C67.8562 91.8645 68.3717 92.1591 69.0897 92.1591C71.1394 92.1468 72.5755 90.2321 72.5755 87.4705C72.5755 84.3958 70.7037 84.0645 69.8936 84.0645C68.3348 84.0645 67.2363 85.12 67.2363 86.6297C67.2363 88.1394 68.1323 89.017 69.5745 89.017C70.3048 89.017 70.8817 88.7285 71.299 88.1946C71.2131 89.913 70.538 91.484 69.1326 91.4901C68.0034 91.4901 67.5248 90.5635 67.5248 90.5635L67.537 90.5696ZM69.7709 88.348C68.9117 88.348 68.4883 87.7834 68.4883 86.6297C68.4883 85.476 69.0529 84.6781 69.8875 84.6781C70.7221 84.6781 71.2806 85.3409 71.2806 86.3351C71.2806 87.3293 70.7651 88.348 69.7709 88.348Z" fill="#919195"/>
<path d="M77.4605 87.5564C78.1601 87.2434 78.6142 86.6113 78.6142 85.8626C78.6142 85.0341 78.0128 84.0645 76.3128 84.0645C75.0241 84.0645 74.0544 84.8929 74.0544 85.9976C74.0544 86.8138 74.6068 87.3907 75.2082 87.6177C74.2079 88.0105 73.6494 88.7715 73.6494 89.8025C73.6494 91.2079 74.7172 92.1591 76.3128 92.1591C77.9084 92.1591 78.9824 91.0606 78.9824 89.5447C78.9824 88.1455 77.9514 87.6914 77.4666 87.5564H77.4605ZM75.2266 86.0099C75.2266 85.6969 75.3064 84.6781 76.3251 84.6781C77.3438 84.6781 77.4298 85.6048 77.4298 86.0099C77.4298 86.3228 77.35 87.3477 76.3251 87.3477C75.3003 87.3477 75.2266 86.3228 75.2266 86.0099ZM76.3067 91.5331C75.4659 91.5331 74.8952 90.8151 74.8952 89.7411C74.8952 88.6672 75.4659 87.9553 76.3067 87.9553C77.1475 87.9553 77.7182 88.6733 77.7182 89.7411C77.7182 90.8089 77.1659 91.5331 76.3067 91.5331Z" fill="#919195"/>
</g>
<defs>
<linearGradient id="paint0_linear_359_37475" x1="75.1652" y1="67.5805" x2="45.8123" y2="50.974" gradientUnits="userSpaceOnUse">
<stop stop-color="white"/>
<stop offset="0.2" stop-color="#E2E993"/>
<stop offset="0.76" stop-color="#A6CE39"/>
<stop offset="1" stop-color="#8DC63F"/>
</linearGradient>
<linearGradient id="paint1_linear_359_37475" x1="72.7165" y1="56.6565" x2="45.3457" y2="38.35" gradientUnits="userSpaceOnUse">
<stop stop-color="#E0E995"/>
<stop offset="0.07" stop-color="#D0E17E"/>
<stop offset="0.14" stop-color="#C4DB6D"/>
<stop offset="0.2" stop-color="#C1DA68"/>
<stop offset="0.4" stop-color="#9FC73B"/>
<stop offset="0.7" stop-color="#83BD40"/>
<stop offset="1" stop-color="#6CB545"/>
</linearGradient>
<linearGradient id="paint2_linear_359_37475" x1="76.4542" y1="51.0771" x2="49.0773" y2="32.7645" gradientUnits="userSpaceOnUse">
<stop stop-color="#E0E995"/>
<stop offset="0.07" stop-color="#D0E17E"/>
<stop offset="0.14" stop-color="#C4DB6D"/>
<stop offset="0.2" stop-color="#C1DA68"/>
<stop offset="0.4" stop-color="#9FC73B"/>
<stop offset="0.7" stop-color="#83BD40"/>
<stop offset="1" stop-color="#6CB545"/>
</linearGradient>
<linearGradient id="paint3_linear_359_37475" x1="62.9339" y1="71.2873" x2="35.557" y2="52.9747" gradientUnits="userSpaceOnUse">
<stop stop-color="#E0E995"/>
<stop offset="0.07" stop-color="#D0E17E"/>
<stop offset="0.14" stop-color="#C4DB6D"/>
<stop offset="0.2" stop-color="#C1DA68"/>
<stop offset="0.4" stop-color="#9FC73B"/>
<stop offset="0.7" stop-color="#83BD40"/>
<stop offset="1" stop-color="#6CB545"/>
</linearGradient>
<linearGradient id="paint4_linear_359_37475" x1="59.5647" y1="76.3314" x2="32.1817" y2="58.0188" gradientUnits="userSpaceOnUse">
<stop stop-color="#E0E995"/>
<stop offset="0.07" stop-color="#D0E17E"/>
<stop offset="0.14" stop-color="#C4DB6D"/>
<stop offset="0.2" stop-color="#C1DA68"/>
<stop offset="0.4" stop-color="#9FC73B"/>
<stop offset="0.7" stop-color="#83BD40"/>
<stop offset="1" stop-color="#6CB545"/>
</linearGradient>
<clipPath id="clip0_359_37475">
<rect width="134" height="134" fill="white"/>
</clipPath>
</defs>
</svg>
