<svg width="200" height="47" viewBox="0 0 200 47" fill="none" xmlns="http://www.w3.org/2000/svg">
<path d="M70.1147 5.9328V13.3156H68.3784V10.3762H66.437V8.96796H68.3784V5.9328H70.1147ZM65.8628 13.5891C68.5151 13.6027 70.1421 14.4777 70.1558 15.9953C70.1421 17.4992 68.5151 18.3879 65.8628 18.3879C63.2104 18.3879 61.5835 17.4992 61.5835 15.9953C61.5835 14.4777 63.2104 13.6027 65.8628 13.5891ZM65.8628 14.9289C64.2085 14.9289 63.3198 15.2707 63.3198 15.9953C63.3198 16.7062 64.2085 17.0617 65.8628 17.0617C67.5171 17.0617 68.4194 16.7062 68.4194 15.9953C68.4194 15.2707 67.5171 14.9289 65.8628 14.9289ZM66.8062 6.68475V8.07928H64.3315C64.3726 9.5285 65.2476 10.9914 67.189 11.634L66.3276 13.0012C64.9536 12.5568 64.0103 11.6545 63.4702 10.5266C62.9165 11.798 61.9253 12.8234 60.4487 13.3293L59.5464 11.9484C61.5903 11.2648 62.5063 9.63788 62.5542 8.07928H60.0522V6.68475H66.8062ZM83.1167 15.5031V16.925H71.728V15.5031H76.5269V13.2062H72.9312V6.72577H74.6812V8.6535H80.1089V6.72577H81.8452V13.2062H78.2632V15.5031H83.1167ZM74.6812 11.8117H80.1089V10.048H74.6812V11.8117ZM95.1753 12.3449V13.7121H83.8003V12.3449H88.6128V11.5793H85.2222V6.23358H93.8491V7.57343H86.9722V8.27069H93.562V9.5285H86.9722V10.2394H93.9585V11.5793H90.3628V12.3449H95.1753ZM89.4878 14.2863C92.2358 14.2726 93.8081 15.0109 93.8218 16.3234C93.8081 17.6633 92.2358 18.3742 89.4878 18.3742C86.6987 18.3742 85.1265 17.6633 85.1265 16.3234C85.1265 15.0109 86.6987 14.2726 89.4878 14.2863ZM89.4878 15.5715C87.6968 15.5715 86.8628 15.8039 86.8765 16.3234C86.8628 16.8566 87.6968 17.0891 89.4878 17.0891C91.2378 17.0891 92.0581 16.8566 92.0718 16.3234C92.0581 15.8039 91.2378 15.5715 89.4878 15.5715ZM106.345 5.94647V15.0246H104.595V5.94647H106.345ZM106.673 16.7609V18.1555H98.0054V14.1496H99.769V16.7609H106.673ZM100.699 7.83319C100.685 9.47382 101.56 11.0871 103.611 11.7433L102.722 13.1105C101.321 12.6457 100.35 11.716 99.7964 10.5266C99.2427 11.8049 98.2446 12.8303 96.7886 13.3293L95.8862 11.9484C97.978 11.2512 98.8804 9.51483 98.8804 7.83319V6.63007H100.699V7.83319ZM118.787 5.9328V18.3742H117.132V12.1262H115.929V17.7726H114.33V6.13788H115.929V10.7316H117.132V5.9328H118.787ZM113.017 7.36835V8.77655H110.132V14.0812C111.335 14.0744 112.402 14.0129 113.605 13.7941L113.728 15.216C112.21 15.5031 110.884 15.5441 109.244 15.5578H108.382V7.36835H113.017ZM127.509 7.04022V8.42108H120.126V7.04022H122.957V5.86444H124.693V7.04022H127.509ZM123.818 8.81757C125.623 8.81757 126.88 9.74725 126.88 11.1144C126.88 12.4816 125.623 13.4113 123.818 13.4113C122.013 13.4113 120.728 12.4816 120.728 11.1144C120.728 9.74725 122.013 8.81757 123.818 8.81757ZM123.818 10.1301C122.984 10.1301 122.423 10.4719 122.437 11.1144C122.423 11.7433 122.984 12.0715 123.818 12.0715C124.652 12.0715 125.226 11.7433 125.226 11.1144C125.226 10.4719 124.652 10.1301 123.818 10.1301ZM129.998 5.9328V9.15936H131.679V10.5812H129.998V13.7394H128.248V5.9328H129.998ZM129.998 14.259V18.3742H128.248V15.6535H121.617V14.259H129.998ZM146.212 5.9328V18.3742H144.558V12.1262H143.355V17.7726H141.755V6.13788H143.355V10.7316H144.558V5.9328H146.212ZM140.443 7.36835V8.77655H137.558V14.0812C138.761 14.0744 139.828 14.0129 141.031 13.7941L141.154 15.216C139.636 15.5031 138.31 15.5441 136.669 15.5578H135.808V7.36835H140.443ZM154.935 7.04022V8.42108H147.552V7.04022H150.382V5.86444H152.119V7.04022H154.935ZM151.244 8.81757C153.048 8.81757 154.306 9.74725 154.306 11.1144C154.306 12.4816 153.048 13.4113 151.244 13.4113C149.439 13.4113 148.154 12.4816 148.154 11.1144C148.154 9.74725 149.439 8.81757 151.244 8.81757ZM151.244 10.1301C150.41 10.1301 149.849 10.4719 149.863 11.1144C149.849 11.7433 150.41 12.0715 151.244 12.0715C152.078 12.0715 152.652 11.7433 152.652 11.1144C152.652 10.4719 152.078 10.1301 151.244 10.1301ZM157.423 5.9328V9.15936H159.105V10.5812H157.423V13.7394H155.673V5.9328H157.423ZM157.423 14.259V18.3742H155.673V15.6535H149.042V14.259H157.423ZM170.193 5.94647V15.3391H168.443V14.3547H166.064V13.1652H168.443V5.94647H170.193ZM170.466 16.7609V18.1555H161.197V14.4367H162.933V12.7824C161.819 12.8303 160.759 12.8371 159.816 12.8371L159.611 11.4562C161.894 11.4426 164.97 11.4152 167.595 11.0871L167.691 12.3312C166.707 12.4953 165.688 12.6115 164.683 12.6867V15.0519H162.933V16.7609H170.466ZM163.658 6.3703C165.462 6.35663 166.761 7.27264 166.761 8.59882C166.761 9.92499 165.462 10.7863 163.658 10.7863C161.812 10.7863 160.527 9.92499 160.527 8.59882C160.527 7.27264 161.798 6.35663 163.658 6.3703ZM163.658 7.64178C162.769 7.64178 162.167 7.98358 162.181 8.59882C162.167 9.20038 162.769 9.5285 163.658 9.5285C164.492 9.5285 165.093 9.20038 165.107 8.59882C165.093 7.98358 164.492 7.64178 163.658 7.64178ZM68.1343 26.9914V27.9914H59.853V26.9914H63.3843V25.4289H64.603V26.9914H68.1343ZM63.9937 28.7101C65.9937 28.7258 67.3218 29.6945 67.3374 31.2258C67.3218 32.7414 65.9937 33.7258 63.9937 33.7258C61.9937 33.7258 60.6343 32.7414 60.6499 31.2258C60.6343 29.6945 61.9937 28.7258 63.9937 28.7101ZM63.9937 29.6633C62.6812 29.6789 61.8062 30.2883 61.8218 31.2258C61.8062 32.1476 62.6812 32.7414 63.9937 32.7414C65.2905 32.7414 66.1655 32.1476 66.1812 31.2258C66.1655 30.2883 65.2905 29.6789 63.9937 29.6633ZM70.6812 25.4914V29.3508H72.7749V30.382H70.6812V34.1789H69.4624V25.4914H70.6812ZM70.6812 34.9445V39.382H69.4624V35.9445H61.5874V34.9445H70.6812ZM78.228 26.1789C80.3062 26.1633 81.7905 27.3039 81.7905 29.007C81.7905 30.6945 80.3062 31.8664 78.228 31.8508C76.1499 31.8664 74.6655 30.6945 74.6655 29.007C74.6655 27.3039 76.1499 26.1633 78.228 26.1789ZM78.228 27.1789C76.8374 27.1633 75.853 27.9289 75.8687 29.007C75.853 30.1008 76.8374 30.8508 78.228 30.8351C79.6343 30.8508 80.6187 30.1008 80.6187 29.007C80.6187 27.9289 79.6343 27.1633 78.228 27.1789ZM85.103 25.507V39.3976H83.8999V25.507H85.103ZM73.6187 33.0383C76.228 33.0383 79.7905 32.9914 82.8843 32.5383L82.9624 33.4601C81.6343 33.7023 80.2515 33.8508 78.9155 33.9289V38.9601H77.6968V34.007C76.2827 34.0695 74.9468 34.0773 73.7905 34.0851L73.6187 33.0383ZM98.6968 29.7414V30.7414H94.4155V32.7726H100.15V33.7883H87.478V32.7726H93.2124V30.7414H89.2124V26.0226H90.4155V29.7414H98.6968ZM98.8062 38.0539V39.0851H89.103V34.9289H90.3218V38.0539H98.8062ZM114.009 32.6008V33.6164H108.353V36.4601H107.134V33.6164H101.291V32.6008H114.009ZM112.353 26.1789V31.007H102.947V26.1789H112.353ZM104.15 27.1476V30.0226H111.134V27.1476H104.15ZM112.587 38.0539V39.0851H102.916V35.0851H104.15V38.0539H112.587ZM130.619 25.507V33.3976H129.4V25.507H130.619ZM130.619 34.1945V39.1945H121.587V34.1945H130.619ZM122.791 35.1945V38.1945H129.416V35.1945H122.791ZM124.072 27.4133C124.056 29.382 125.556 31.1164 127.603 31.8351L126.978 32.7726C125.369 32.218 124.087 31.0461 123.462 29.5226C122.845 31.1476 121.548 32.4289 119.884 33.0383L119.259 32.0695C121.369 31.3351 122.822 29.4601 122.822 27.4133V26.0539H124.072V27.4133ZM137.634 29.2258C137.634 31.6789 139.259 34.1945 141.228 35.1633L140.478 36.1476C138.947 35.343 137.666 33.7023 137.056 31.7726C136.431 33.8273 135.119 35.5773 133.556 36.4133L132.775 35.4289C134.806 34.4289 136.416 31.757 136.431 29.2258V26.6945H137.634V29.2258ZM143.728 25.4914V31.132H146.056V32.1945H143.728V39.382H142.509V25.4914H143.728ZM155.759 29.2258C155.744 31.757 157.478 34.3195 159.525 35.2414L158.775 36.2101C157.197 35.4367 155.83 33.8039 155.166 31.8195C154.517 33.9211 153.15 35.6711 151.525 36.4914L150.744 35.4601C152.806 34.507 154.525 31.8664 154.541 29.2258V26.6945H155.759V29.2258ZM162.275 25.4914V39.4133H161.041V25.4914H162.275ZM171.572 27.5383C171.572 29.9133 174.291 32.0383 176.712 32.4914L176.15 33.5226C174.056 33.0383 171.845 31.5461 170.947 29.4914C170.048 31.5383 167.845 33.0305 165.744 33.5226L165.181 32.4914C167.587 32.0226 170.291 29.9289 170.291 27.5383V26.4758H171.572V27.5383ZM177.369 36.4758V37.4914H164.65V36.4758H177.369ZM184.431 26.3976V27.4289H180.306V29.1476H183.853V30.1164H180.306V32.007C182.314 31.9992 183.564 31.9289 185.056 31.6476L185.181 32.632C183.572 32.9289 182.259 33.007 180.009 33.007H179.134V26.3976H184.431ZM190.275 25.4914V33.8664H189.103V25.4914H190.275ZM187.572 25.7414V33.7414H186.384V30.007H184.509V28.9914H186.384V25.7414H187.572ZM190.275 34.507V39.1945H181.103V34.507H190.275ZM182.306 35.507V38.1945H189.072V35.507H182.306Z" fill="#878E95"/>
<g clip-path="url(#clip0_546_4522)">
<path d="M37.5002 36.1676C37.5002 36.1676 37.1399 36.545 37.0972 36.5919C37.1463 36.6367 37.9544 37.4129 37.9544 37.4129L37.496 37.8927C37.496 37.8927 36.6835 37.1186 36.6366 37.0717C36.594 37.1165 36.2464 37.479 36.2037 37.5238C36.2506 37.5686 37.0631 38.3448 37.0631 38.3448C37.0631 38.3448 36.498 38.9354 36.4511 38.9845C36.4959 39.0271 36.8072 39.3257 36.852 39.3662C36.8989 39.315 39.7862 36.2955 39.8352 36.2444C39.7904 36.2039 39.477 35.9032 39.4343 35.8605C39.3874 35.9096 38.3873 36.9566 38.3873 36.9566C38.3873 36.9566 37.577 36.1804 37.528 36.1356C37.5152 36.1505 37.4981 36.1655 37.4981 36.1655L37.5002 36.1676Z" fill="#919195"/>
<path d="M38.7221 35.7091C38.6709 35.6622 36.9991 34.0672 36.9479 34.0181C36.9351 34.0331 36.9202 34.048 36.9202 34.048C36.9202 34.048 34.4146 36.6708 34.3656 36.7241C34.4082 36.7668 34.7217 37.0653 34.7644 37.1058C34.8155 37.0547 36.9181 34.8519 36.9181 34.8519C36.9181 34.8519 38.238 36.1143 38.2892 36.1612L38.7221 35.7091Z" fill="#919195"/>
<path d="M8.08172 36.9885C7.64458 37.398 7.65737 38.1272 8.11371 38.6156C8.57004 39.1039 9.29719 39.17 9.73433 38.7606C10.1736 38.3511 10.1587 37.6197 9.70447 37.1314C9.24814 36.6431 8.52099 36.5791 8.08172 36.9907V36.9885ZM8.48261 37.4086C8.71504 37.1911 9.10101 37.2231 9.34197 37.4811C9.58293 37.7391 9.58932 38.1272 9.35476 38.3447C9.1202 38.5623 8.73423 38.5303 8.49327 38.2722C8.25445 38.0142 8.25018 37.6261 8.48261 37.4086Z" fill="#919195"/>
<path d="M12.0906 36.528C12.0906 36.528 11.7473 36.1612 11.7067 36.1186C11.6598 36.1612 11.2035 36.5856 11.2035 36.5856C11.2035 36.5856 10.7621 36.11 10.7173 36.0652C10.6747 36.1036 10.3697 36.3872 10.3271 36.4278C10.3719 36.4725 10.8154 36.9481 10.8154 36.9481C10.8154 36.9481 10.2034 37.5195 10.1565 37.5622C10.197 37.6048 10.5254 37.9609 10.568 38.0036C10.6171 37.9609 12.0693 36.6026 12.1183 36.5578C12.1055 36.5429 12.0906 36.528 12.0906 36.528Z" fill="#919195"/>
<path d="M10.2526 34.5406C10.2526 34.5406 8.04126 34.6301 7.97302 34.6323C7.97515 34.692 8.00927 35.1782 8.01354 35.2357C8.07964 35.2315 9.64695 35.144 9.64695 35.144C9.64695 35.144 9.45504 36.6133 9.44438 36.6794C9.50195 36.6858 9.98387 36.754 10.0436 36.7604C10.0521 36.6922 10.2909 34.6131 10.3016 34.5363C10.2781 34.5363 10.2547 34.5363 10.2547 34.5363L10.2526 34.5406Z" fill="#919195"/>
<path d="M28.348 43.9018L28.9472 43.7994L28.2755 39.8588L28.235 39.8652C28.235 39.8652 27.7381 39.9505 27.6784 39.9611C27.6869 40.0272 27.8852 41.1723 27.8852 41.1723L27.5334 41.2342C27.5334 41.2342 27.3393 40.0891 27.3266 40.0208L26.7252 40.1232L27.1496 42.6266C26.674 42.7055 25.2539 42.9507 25.2539 42.9507L24.9255 41.0252C24.9255 41.0252 26.2625 40.797 26.3265 40.7864L26.2433 40.2874C26.2433 40.2874 26.239 40.2874 26.2326 40.2874L24.2452 40.6264C24.3689 41.3365 24.7421 43.5244 24.7506 43.5819L27.2413 43.1576L27.3969 44.066L28.0004 43.9636C27.9897 43.8954 27.6272 41.7609 27.6272 41.7609L27.9769 41.7012C27.9769 41.7012 28.3416 43.8378 28.3522 43.9018H28.348Z" fill="#919195"/>
<path d="M16.1742 40.8524C16.1742 40.8524 16.1038 40.8162 15.9886 40.7544L16.7328 39.3619C16.7158 39.3534 16.6987 39.3448 16.6987 39.3448C16.6987 39.3448 13.5748 37.6773 13.5151 37.6453L13.2592 38.1251C13.3189 38.1592 15.9375 39.556 15.9375 39.556C15.9375 39.556 15.6389 40.1146 15.4491 40.4707L12.5299 38.912L12.2761 39.3896C12.3337 39.4195 13.4212 39.9995 13.4212 39.9995C13.4212 39.9995 13.1142 40.5731 13.0864 40.6285L13.6323 40.9207C13.6622 40.8652 13.9693 40.2916 13.9693 40.2916L14.4554 40.5496C14.4554 40.5496 14.1505 41.1233 14.1207 41.1787L14.6687 41.473C14.6985 41.4175 15.0056 40.8439 15.0056 40.8439C15.0056 40.8439 15.8969 41.3194 15.9545 41.3514L16.2104 40.8716C16.1933 40.8631 16.1763 40.8546 16.1763 40.8546L16.1742 40.8524ZM12.8817 40.1296L12.3401 39.8417L11.6705 41.0977L14.9566 42.8526L15.2103 42.3728C15.1506 42.3409 12.4638 40.9079 12.4638 40.9079C12.4638 40.9079 12.8497 40.1871 12.8817 40.1296Z" fill="#919195"/>
<path d="M18.765 42.5648C18.7458 42.5626 18.7266 42.5584 18.7266 42.5584C18.7266 42.5584 18.2212 42.4773 18.1615 42.4688L17.9398 43.8741L21.6437 44.4605L21.7269 43.9231C21.6608 43.9146 18.6264 43.4326 18.6264 43.4326C18.6264 43.4326 18.7543 42.6266 18.765 42.5605V42.5648ZM22.1278 41.2064C22.1278 41.2064 22.228 40.5774 22.2387 40.5155C22.2195 40.5155 22.1982 40.5113 22.1982 40.5113C22.1982 40.5113 21.6949 40.4324 21.6352 40.4217L21.3751 42.0551L20.7631 41.957L21.0083 40.3961C20.9891 40.3919 20.9699 40.3897 20.9699 40.3897C20.9699 40.3897 18.507 39.9995 18.4366 39.9888L18.3535 40.5262C18.4196 40.5347 20.3174 40.8354 20.3174 40.8354C20.3174 40.8354 20.2065 41.5412 20.1553 41.8611C19.8141 41.8078 19.5476 41.7651 19.5476 41.7651C19.5476 41.7651 19.6286 41.2533 19.6372 41.1936C19.618 41.1936 19.5966 41.1894 19.5966 41.1894C19.5966 41.1894 19.0827 41.1062 19.023 41.0977C19.0145 41.1595 18.9313 41.667 18.9313 41.667C18.9313 41.667 18.0613 41.5306 17.9995 41.5199L17.9142 42.0573L21.2876 42.5904L21.1895 43.2151L21.793 43.3111C21.8037 43.245 22.0425 41.7374 22.0425 41.7374C22.0425 41.7374 22.5991 41.8248 22.6609 41.8355L22.7441 41.3045C22.6822 41.2939 22.1257 41.2064 22.1257 41.2064H22.1278Z" fill="#919195"/>
<path d="M33.067 37.4961C33.067 37.4961 32.6299 37.7391 32.5745 37.769C32.6064 37.8266 33.679 39.7692 33.7153 39.8268C33.7665 39.799 34.1908 39.5645 34.242 39.5346C34.21 39.477 33.6918 38.5409 33.6918 38.5409C33.6918 38.5409 34.1738 38.2744 34.2292 38.2445C34.2036 38.1933 33.9989 37.8308 33.9712 37.7797C33.9179 37.8095 33.436 38.0761 33.436 38.0761C33.436 38.0761 33.1332 37.5302 33.1033 37.4726C33.0862 37.4833 33.0692 37.4939 33.0692 37.4939L33.067 37.4961Z" fill="#919195"/>
<path d="M34.3358 39.8033C34.3358 39.8033 31.101 41.5924 31.0413 41.6244C31.069 41.6755 31.2737 42.0445 31.3035 42.0935C31.3611 42.0594 34.1034 40.5454 34.1034 40.5454C34.1034 40.5454 34.468 41.2086 34.5 41.264C34.5512 41.2341 34.9755 40.9996 35.0288 40.9697C34.999 40.9122 34.404 39.8374 34.3721 39.782C34.355 39.7905 34.3358 39.8012 34.3358 39.8012V39.8033Z" fill="#919195"/>
<path d="M32.0626 38.1358L31.0817 38.6796H31.0796L30.9005 38.3554L30.3652 38.6518L30.5443 38.976L29.5464 39.5283L29.7959 39.9761L30.1541 39.7777C30.1392 39.9889 30.1797 40.2042 30.2863 40.4047C30.5977 40.9655 31.3312 41.1553 31.9219 40.8269C32.5147 40.5006 32.745 39.7777 32.4358 39.2169C32.3249 39.0186 32.165 38.8715 31.9773 38.7713L32.31 38.5857L32.0626 38.1379V38.1358ZM31.6511 40.3023C31.3675 40.4601 31.0156 40.3684 30.8685 40.0997C30.7171 39.8311 30.8301 39.4856 31.1116 39.3278C31.3952 39.1721 31.7449 39.2617 31.8942 39.5325C32.0413 39.8012 31.9325 40.1467 31.6511 40.3044V40.3023Z" fill="#919195"/>
<path d="M44.0212 24.9171L43.5606 24.627C44.0489 24.4031 44.0638 23.917 44.0638 23.917C44.083 23.5374 43.8591 23.2644 43.5371 23.2666C43.1085 23.2666 42.9507 23.6483 42.7694 24.0854C42.5733 24.5567 42.2705 25.0493 41.6713 25.0855C40.9462 25.1303 40.4558 24.4863 40.4942 23.6056C40.5304 22.7463 41.1232 22.3369 41.1232 22.3369L41.6691 22.5885C41.6691 22.5885 40.9015 22.8401 40.8524 23.7656C40.829 24.175 41.1296 24.4927 41.5305 24.4906C41.9591 24.4884 42.1127 24.1217 42.2896 23.6952C42.4858 23.2175 42.7119 22.678 43.3964 22.6738C44.0638 22.6695 44.4668 23.1983 44.4263 24.0214C44.4263 24.0214 44.4135 24.546 44.0212 24.9171Z" fill="#919195"/>
<path d="M3.91498 30.8792L4.45661 30.9389C4.11756 31.3526 4.31374 31.7961 4.31374 31.7961C4.46301 32.1458 4.78287 32.2951 5.07287 32.1522C5.45884 31.9624 5.43325 31.553 5.40339 31.0796C5.37354 30.57 5.42898 29.9942 5.95355 29.7C6.589 29.3439 7.30975 29.7064 7.6616 30.5167C8.00278 31.3057 7.65094 31.9326 7.65094 31.9326L7.0496 31.9454C7.0496 31.9454 7.62961 31.3846 7.26924 30.5316C7.11144 30.1542 6.70202 29.9985 6.34165 30.1776C5.95568 30.3674 5.97914 30.7619 6.00686 31.2246C6.03885 31.7407 6.07297 32.3249 5.46097 32.6277C4.86176 32.9241 4.26683 32.6256 3.94483 31.8686C3.94483 31.8686 3.72307 31.3888 3.91498 30.8834V30.8792Z" fill="#919195"/>
<path d="M3.3457 17.3087L3.30732 17.347C3.23695 17.4174 2.84032 17.829 2.6676 18.6499C2.40532 19.908 2.98959 20.842 4.14535 21.083C5.32456 21.3304 6.18605 20.7439 6.44194 19.5157C6.54216 19.0338 6.56135 18.5412 6.49951 18.0422L6.49312 17.9953L5.05802 17.6946L4.93434 18.2789L6.14554 18.5305C6.21591 18.812 6.18818 19.102 6.14554 19.3003C5.94722 20.2514 5.27339 20.6565 4.25197 20.4433C3.29452 20.2428 2.80834 19.6138 2.98959 18.7395C3.08129 18.3002 3.37129 17.8673 3.72953 17.6669L3.75512 17.652L3.3457 17.3108V17.3087Z" fill="#919195"/>
<path d="M6.98142 9.82819L6.6445 10.308L7.4932 12.0821L5.53139 11.8859L5.10278 12.4937L7.65739 12.6429C7.68725 12.6643 8.9347 13.5407 8.9347 13.5407L9.27801 13.0545C9.27801 13.0545 7.99005 12.1482 7.96232 12.1312L6.97929 9.83032L6.98142 9.82819Z" fill="#919195"/>
<path d="M41.8887 33.2994L42.1254 32.7663L40.9441 31.1905L42.908 31.0007L43.2087 30.3205L40.6754 30.6723C40.6392 30.6574 39.2467 30.0411 39.2467 30.0411L39.0057 30.587C39.0057 30.587 40.4472 31.2225 40.475 31.2353L41.8887 33.3016V33.2994Z" fill="#919195"/>
<path d="M5.7979 15.0462L5.00679 12.7325L4.7381 13.2763L5.48231 15.4513C5.38209 15.4023 4.01949 14.7306 4.01949 14.7306L3.7572 15.2658L7.10933 16.9184L7.37374 16.3832L5.74886 15.5836L8.04545 15.0227L8.38023 14.3425L5.79577 15.0462H5.7979Z" fill="#919195"/>
<path d="M16.9994 5.00475L18.104 2.82544L17.5261 3.01096L16.4876 5.06019C16.4535 4.95357 15.9887 3.50994 15.9887 3.50994L15.4193 3.69546L16.5729 7.25016L17.1423 7.06677L16.5815 5.3438L18.5838 6.59978L19.3045 6.36522L16.9994 5.00475Z" fill="#919195"/>
<path d="M20.1169 6.1882L20.5605 6.14342L21.2684 3.19218L22.4732 5.95577L22.9829 5.90672L23.8572 2.06201L23.3433 2.11532L22.6353 5.15398L21.3964 2.3051L21.0552 2.33922L20.3579 5.37149L19.1851 2.52474L18.556 2.58445L20.1169 6.1882Z" fill="#919195"/>
<path d="M25.9213 2.34351L25.659 2.31152L23.6077 5.87475L24.1173 5.94086L24.8743 4.60385L26.0194 4.74245L26.4139 6.2202L27.1133 6.30337L25.9256 2.34351H25.9213ZM25.6249 3.16235C25.6889 3.38199 25.8808 4.22641 25.9234 4.37568L25.0129 4.2648L25.6228 3.16235H25.6249Z" fill="#919195"/>
<path d="M40.5598 11.2485L37.4658 13.3386L37.7988 13.8316L40.8929 11.7415L40.5598 11.2485Z" fill="#919195"/>
<path d="M40.4281 25.7485L40.3335 26.3337L44.0216 26.9297L44.1162 26.3445L40.4281 25.7485Z" fill="#919195"/>
<path d="M34.9797 8.29713C34.4573 9.05839 33.9071 9.18207 33.3229 8.77905C32.6618 8.32485 32.6405 7.87065 33.1928 7.06461L34.372 5.34589L33.8837 5.01111L32.6767 6.7746C32.4187 7.1563 32.182 7.59131 32.2886 8.03911C32.3803 8.42507 32.6426 8.76199 33.0755 9.06053C33.9029 9.62774 34.6769 9.48914 35.2548 8.64471L36.5129 6.81085L36.1632 6.56989L34.9797 8.29713Z" fill="#919195"/>
<path d="M10.8368 8.91126C11.483 9.57231 11.4957 10.1331 10.9882 10.63C10.4146 11.1908 9.96469 11.1247 9.28232 10.4253L7.82376 8.93472L7.39941 9.35054L8.89636 10.8773C9.22048 11.2015 9.60431 11.5192 10.0606 11.5C10.4594 11.4829 10.8411 11.2931 11.2164 10.9264C11.935 10.2248 11.9457 9.43797 11.2313 8.70655L9.67681 7.11792L9.37188 7.41645L10.8368 8.90913V8.91126Z" fill="#919195"/>
<path d="M4.55902 26.5334C5.45676 26.3202 5.94508 26.5974 6.10927 27.2883C6.29266 28.0687 6.00479 28.4206 5.05374 28.6445L3.0237 29.1264L3.1623 29.7043L5.24139 29.2096C5.68706 29.0987 6.15619 28.9366 6.37582 28.5315C6.56774 28.1839 6.61892 27.7531 6.49737 27.2435C6.26494 26.2669 5.57831 25.8532 4.58461 26.0899L2.42236 26.6038L2.52045 27.0196L4.55689 26.5355L4.55902 26.5334Z" fill="#919195"/>
<path d="M38.6389 15.2359L38.7946 15.5366L42.8355 15.2253L42.5881 14.7433L39.4066 15.0525L41.5113 12.6493L41.2085 12.0565L38.6389 15.2359Z" fill="#919195"/>
<path d="M40.0783 17.5261C40.1892 17.492 41.2725 17.1487 41.3812 17.1146L41.7736 18.3492L42.134 18.2341L41.7437 16.9973C41.8504 16.9632 42.8163 16.6582 42.9208 16.6263L43.3473 17.9718L43.6544 17.8758L43.0509 15.9652L39.4877 17.089L40.0997 19.0316L40.5155 18.9015L40.0805 17.5219L40.0783 17.5261Z" fill="#919195"/>
<path d="M43.9422 27.6167L43.6415 27.5314L43.3281 28.6466C43.2044 28.6125 40.0314 27.719 40.0314 27.719L39.8715 28.2884L43.1681 29.216L42.8675 30.2864L43.1681 30.3696L43.9422 27.6145V27.6167Z" fill="#919195"/>
<path d="M40.2638 19.6202L40.3363 20.2087L42.1382 19.972L40.5453 21.7995L40.6263 22.4285L42.2192 20.6117C42.3237 21.2195 42.8163 21.7014 43.3558 21.631C43.9678 21.5521 44.23 21.1278 44.1192 20.3047L43.9678 19.1361L40.2638 19.6223V19.6202ZM42.49 19.9251C42.5988 19.9102 43.6181 19.778 43.7268 19.763L43.8014 20.326C43.8633 20.793 43.6159 21.0254 43.2811 21.0574C42.9314 21.0894 42.6435 20.9422 42.5604 20.4155L42.4921 19.9272L42.49 19.9251Z" fill="#919195"/>
<path d="M13.4447 4.59527L13.0822 4.82343L14.5066 7.06885C13.1909 6.72766 10.9029 6.20309 10.9029 6.20309L10.647 6.36516L12.645 9.5211L13.0054 9.2908C13.0054 9.2908 12.1759 7.97725 11.5106 6.92598L15.2274 7.88342L15.4427 7.74695L13.4425 4.591L13.4447 4.59527Z" fill="#919195"/>
<path d="M2.1878 21.9914L2.19633 22.42L4.85543 22.3667C3.88306 23.3135 2.24964 24.9981 2.24964 24.9981L2.25391 25.3009L5.98986 25.2262L5.98133 24.7997C5.98133 24.7997 4.42682 24.8317 3.18363 24.8552L5.92802 22.1726L5.92163 21.9167L2.18567 21.9935L2.1878 21.9914Z" fill="#919195"/>
<path d="M31.5466 3.84685L31.1415 3.71038L30.2907 6.22873C29.7298 4.99408 28.6956 2.88514 28.6956 2.88514L28.4078 2.78705L27.2136 6.32682L27.6188 6.46543C27.6188 6.46543 28.1178 4.99194 28.5123 3.81273L30.1073 7.30559L30.3504 7.38662L31.5424 3.84685H31.5466Z" fill="#919195"/>
<path d="M39.8203 10.1544L39.5282 9.84099L37.5792 11.6493C37.6751 10.2973 37.7753 7.94955 37.7753 7.94955L37.5664 7.72778L34.8284 10.2696L35.1205 10.5831C35.1205 10.5831 36.2613 9.52752 37.1719 8.68096L36.9075 12.5107L37.0802 12.6984L39.8203 10.1566V10.1544Z" fill="#919195"/>
<path d="M24.6271 18.6115C24.6271 15.5601 27.0964 13.0844 30.1393 13.0844C30.8771 13.0844 31.5787 13.2315 32.2205 13.4938C27.3437 8.99444 19.7439 9.10959 15.0121 13.8435C10.4253 18.4303 10.1758 25.7082 14.2572 30.5913C15.317 29.2031 16.767 27.6038 18.5476 26.3543C19.9379 25.3776 21.8656 24.3989 23.4159 24.2539C24.8829 24.1153 27.0686 24.256 28.3907 24.8914C27.3565 23.8316 26.2647 22.6418 25.7316 21.9295C25.0386 21.0062 24.6271 19.8569 24.6271 18.6115Z" fill="url(#paint0_linear_546_4522)"/>
<path d="M24.2368 22.6524L18.4111 11.4318C17.3342 11.9499 16.3192 12.6323 15.3959 13.4789L24.1984 22.6375L24.2368 22.6524Z" fill="url(#paint1_linear_546_4522)"/>
<path d="M24.2667 22.6652L25.0386 10.2696C24.03 10.1694 23.0128 10.1907 22.0106 10.3357L24.256 22.6588L24.2667 22.6631V22.6652Z" fill="url(#paint2_linear_546_4522)"/>
<path d="M24.1985 22.6396L12.1974 18.1808C11.7901 19.2449 11.5342 20.3558 11.4297 21.4775L24.2305 22.6716L24.1985 22.6396Z" fill="url(#paint3_linear_546_4522)"/>
<path d="M11.5043 24.4181C11.6301 25.2859 11.8476 26.1389 12.1568 26.9684L24.1963 22.7015L11.5043 24.4159V24.4181Z" fill="url(#paint4_linear_546_4522)"/>
<path d="M14.0269 33.63C13.6666 33.3165 13.0482 32.7323 12.4937 32.0179C9.95832 29.1712 7.05826 21.7056 11.8817 14.9332C13.8713 12.1419 16.7265 10.2611 19.5648 9.49982C26.1816 7.72353 31.2652 10.8475 33.5917 13.368C33.8497 13.6495 33.8134 14.0077 33.6151 14.1719C33.3272 14.415 33.0671 14.2892 32.4871 14.1186C31.5787 13.8563 30.7982 13.7945 29.9602 13.9011C28.0176 14.1506 26.333 15.9524 26.5675 18.4687C26.7786 20.7674 28.5507 22.4264 29.796 23.5246C34.1653 27.3736 32.7046 31.4997 32.3485 32.4039C31.1415 35.4831 28.0432 37.6517 24.0279 37.6517C22.3603 37.6517 19.9507 37.221 17.5262 35.6835C17.4324 35.643 17.3407 35.5172 17.4558 35.3103C17.6413 34.8412 18.4133 33.4765 18.748 33.0841C19.9507 34.4744 21.9829 35.7837 24.2411 35.8669C27.3245 35.9799 29.3141 34.3102 30.0412 32.1906C30.8601 29.8088 29.99 27.3842 27.6849 25.1942C25.6997 23.3071 23.9255 21.5606 23.821 18.5668C23.6888 14.7327 27.0281 12.4532 30.1286 12.6067C30.2225 12.611 25.8425 9.45077 20.2151 11.3315C17.4622 12.257 15.816 13.8798 15.0228 14.8031C14.9055 14.946 14.9801 15.0568 15.0206 15.1144C15.1081 15.2402 17.0208 17.9057 17.0208 17.9057L13.5727 17.1125C13.5727 17.1125 13.4277 17.0762 13.3574 17.1956C12.2613 19.0871 10.6449 24.5503 14.253 29.5294C14.253 29.5294 17.3257 24.6633 23.4287 24.2475C23.8338 24.2197 23.7826 24.3647 23.5161 24.4628C18.0657 26.4652 15.9141 30.4634 14.5238 33.5447C14.4385 33.7345 14.2124 33.7921 14.0291 33.6279L14.0269 33.63Z" fill="#00467F"/>
<path d="M19.6458 29.8748C19.6458 29.8748 19.987 29.7234 20.083 29.6701V32.0328H20.5095V29.2522L20.4412 29.2074L20.4199 29.2181C20.1086 29.3716 19.7887 29.5166 19.52 29.6275L19.6458 29.8748Z" fill="#919195"/>
<path d="M21.9148 30.6446C22.2623 30.6446 22.4308 30.8238 22.4308 31.1905C22.4308 31.5573 22.1984 31.8089 21.8359 31.8089C21.5757 31.8089 21.3987 31.6341 21.3347 31.5594L21.2814 31.4976L21.1791 31.8644L21.2132 31.8814C21.3625 31.9518 21.5501 32.0243 21.8295 32.0243C22.4393 32.0243 22.8829 31.6511 22.8829 31.1394C22.8829 30.6702 22.5182 30.5359 22.2986 30.4975C22.5395 30.3951 22.7549 30.1755 22.7549 29.845C22.7549 29.4526 22.4479 29.2138 21.9553 29.2117C21.5373 29.2117 21.3241 29.4846 21.3241 29.4846L21.5075 29.8023L21.5373 29.7128C21.5864 29.5699 21.742 29.4249 21.9403 29.4249C22.1131 29.4249 22.322 29.5401 22.322 29.8706C22.322 30.1243 22.2495 30.4314 21.9148 30.4314L21.693 30.4122V30.6745C21.693 30.6745 21.8188 30.6425 21.9148 30.6446Z" fill="#919195"/>
<path d="M23.467 31.4699L23.5779 31.9198C23.5779 31.9198 23.757 32.0222 24.0065 32.0222C24.7188 32.0179 25.2177 31.3526 25.2177 30.393C25.2177 29.3247 24.5674 29.2095 24.2859 29.2095C23.7442 29.2095 23.3625 29.5763 23.3625 30.1009C23.3625 30.6254 23.6739 30.9304 24.175 30.9304C24.4287 30.9304 24.6292 30.8302 24.7742 30.6446C24.7443 31.2417 24.5098 31.7876 24.0215 31.7897C23.6291 31.7897 23.4628 31.4677 23.4628 31.4677L23.467 31.4699ZM24.2432 30.6979C23.9447 30.6979 23.7976 30.5018 23.7976 30.1009C23.7976 29.7 23.9937 29.4228 24.2837 29.4228C24.5737 29.4228 24.7678 29.6531 24.7678 29.9985C24.7678 30.344 24.5887 30.6979 24.2432 30.6979Z" fill="#919195"/>
<path d="M26.9152 30.4229C27.1583 30.3141 27.3161 30.0945 27.3161 29.8343C27.3161 29.5465 27.1071 29.2095 26.5164 29.2095C26.0686 29.2095 25.7317 29.4974 25.7317 29.8812C25.7317 30.1648 25.9236 30.3653 26.1326 30.4442C25.785 30.5807 25.5909 30.8451 25.5909 31.2033C25.5909 31.6916 25.962 32.0222 26.5164 32.0222C27.0708 32.0222 27.444 31.6405 27.444 31.1138C27.444 30.6276 27.0858 30.4698 26.9173 30.4229H26.9152ZM26.139 29.8855C26.139 29.7768 26.1667 29.4228 26.5207 29.4228C26.8746 29.4228 26.9045 29.7448 26.9045 29.8855C26.9045 29.9943 26.8768 30.3504 26.5207 30.3504C26.1646 30.3504 26.139 29.9943 26.139 29.8855ZM26.5143 31.8047C26.2221 31.8047 26.0238 31.5552 26.0238 31.182C26.0238 30.8088 26.2221 30.5615 26.5143 30.5615C26.8064 30.5615 27.0047 30.811 27.0047 31.182C27.0047 31.553 26.8128 31.8047 26.5143 31.8047Z" fill="#919195"/>
</g>
<defs>
<linearGradient id="paint0_linear_546_4522" x1="26.1176" y1="23.4819" x2="15.9184" y2="17.7117" gradientUnits="userSpaceOnUse">
<stop stop-color="white"/>
<stop offset="0.2" stop-color="#E2E993"/>
<stop offset="0.76" stop-color="#A6CE39"/>
<stop offset="1" stop-color="#8DC63F"/>
</linearGradient>
<linearGradient id="paint1_linear_546_4522" x1="25.2667" y1="19.6863" x2="15.7562" y2="13.3253" gradientUnits="userSpaceOnUse">
<stop stop-color="#E0E995"/>
<stop offset="0.07" stop-color="#D0E17E"/>
<stop offset="0.14" stop-color="#C4DB6D"/>
<stop offset="0.2" stop-color="#C1DA68"/>
<stop offset="0.4" stop-color="#9FC73B"/>
<stop offset="0.7" stop-color="#83BD40"/>
<stop offset="1" stop-color="#6CB545"/>
</linearGradient>
<linearGradient id="paint2_linear_546_4522" x1="26.5654" y1="17.7479" x2="17.0528" y2="11.3848" gradientUnits="userSpaceOnUse">
<stop stop-color="#E0E995"/>
<stop offset="0.07" stop-color="#D0E17E"/>
<stop offset="0.14" stop-color="#C4DB6D"/>
<stop offset="0.2" stop-color="#C1DA68"/>
<stop offset="0.4" stop-color="#9FC73B"/>
<stop offset="0.7" stop-color="#83BD40"/>
<stop offset="1" stop-color="#6CB545"/>
</linearGradient>
<linearGradient id="paint3_linear_546_4522" x1="21.8678" y1="24.7699" x2="12.3551" y2="18.4068" gradientUnits="userSpaceOnUse">
<stop stop-color="#E0E995"/>
<stop offset="0.07" stop-color="#D0E17E"/>
<stop offset="0.14" stop-color="#C4DB6D"/>
<stop offset="0.2" stop-color="#C1DA68"/>
<stop offset="0.4" stop-color="#9FC73B"/>
<stop offset="0.7" stop-color="#83BD40"/>
<stop offset="1" stop-color="#6CB545"/>
</linearGradient>
<linearGradient id="paint4_linear_546_4522" x1="20.697" y1="26.5227" x2="11.1823" y2="20.1597" gradientUnits="userSpaceOnUse">
<stop stop-color="#E0E995"/>
<stop offset="0.07" stop-color="#D0E17E"/>
<stop offset="0.14" stop-color="#C4DB6D"/>
<stop offset="0.2" stop-color="#C1DA68"/>
<stop offset="0.4" stop-color="#9FC73B"/>
<stop offset="0.7" stop-color="#83BD40"/>
<stop offset="1" stop-color="#6CB545"/>
</linearGradient>
<clipPath id="clip0_546_4522">
<rect width="46.5608" height="46.5608" fill="white"/>
</clipPath>
</defs>
</svg>
