<svg width="219" height="50" viewBox="0 0 219 50" fill="none" xmlns="http://www.w3.org/2000/svg">
<path d="M66.8555 0.816406V8.19922H65.1191V5.25977H63.1777V3.85156H65.1191V0.816406H66.8555ZM62.6035 8.47266C65.2559 8.48633 66.8828 9.36133 66.8965 10.8789C66.8828 12.3828 65.2559 13.2715 62.6035 13.2715C59.9512 13.2715 58.3242 12.3828 58.3242 10.8789C58.3242 9.36133 59.9512 8.48633 62.6035 8.47266ZM62.6035 9.8125C60.9492 9.8125 60.0605 10.1543 60.0605 10.8789C60.0605 11.5898 60.9492 11.9453 62.6035 11.9453C64.2578 11.9453 65.1602 11.5898 65.1602 10.8789C65.1602 10.1543 64.2578 9.8125 62.6035 9.8125ZM63.5469 1.56836V2.96289H61.0723C61.1133 4.41211 61.9883 5.875 63.9297 6.51758L63.0684 7.88477C61.6943 7.44043 60.751 6.53809 60.2109 5.41016C59.6572 6.68164 58.666 7.70703 57.1895 8.21289L56.2871 6.83203C58.3311 6.14844 59.2471 4.52148 59.2949 2.96289H56.793V1.56836H63.5469ZM79.8574 10.3867V11.8086H68.4688V10.3867H73.2676V8.08984H69.6719V1.60938H71.4219V3.53711H76.8496V1.60938H78.5859V8.08984H75.0039V10.3867H79.8574ZM71.4219 6.69531H76.8496V4.93164H71.4219V6.69531ZM91.916 7.22852V8.5957H80.541V7.22852H85.3535V6.46289H81.9629V1.11719H90.5898V2.45703H83.7129V3.1543H90.3027V4.41211H83.7129V5.12305H90.6992V6.46289H87.1035V7.22852H91.916ZM86.2285 9.16992C88.9766 9.15625 90.5488 9.89453 90.5625 11.207C90.5488 12.5469 88.9766 13.2578 86.2285 13.2578C83.4395 13.2578 81.8672 12.5469 81.8672 11.207C81.8672 9.89453 83.4395 9.15625 86.2285 9.16992ZM86.2285 10.4551C84.4375 10.4551 83.6035 10.6875 83.6172 11.207C83.6035 11.7402 84.4375 11.9727 86.2285 11.9727C87.9785 11.9727 88.7988 11.7402 88.8125 11.207C88.7988 10.6875 87.9785 10.4551 86.2285 10.4551ZM103.086 0.830078V9.9082H101.336V0.830078H103.086ZM103.414 11.6445V13.0391H94.7461V9.0332H96.5098V11.6445H103.414ZM97.4395 2.7168C97.4258 4.35742 98.3008 5.9707 100.352 6.62695L99.4629 7.99414C98.0615 7.5293 97.0908 6.59961 96.5371 5.41016C95.9834 6.68848 94.9854 7.71387 93.5293 8.21289L92.627 6.83203C94.7188 6.13477 95.6211 4.39844 95.6211 2.7168V1.51367H97.4395V2.7168ZM109.471 1.63672L106.271 13.4902H104.535L107.721 1.63672H109.471ZM121.352 10.373V11.7676H109.963V10.373H114.721V7.55664H116.457V10.373H121.352ZM116.512 2.41602C116.512 4.19336 118.111 6.06641 120.955 6.50391L120.217 7.95312C118.029 7.55664 116.402 6.3877 115.582 4.83594C114.762 6.38086 113.148 7.56348 110.975 7.95312L110.236 6.50391C113.053 6.06641 114.639 4.17969 114.652 2.41602V1.52734H116.512V2.41602ZM133.451 10.3594V11.8086H122.062V10.3594H133.451ZM132.494 1.91016V3.30469H130.744V7.07812H132.439V8.44531H123.006V7.07812H124.674V3.30469H122.951V1.91016H132.494ZM126.424 7.07812H129.021V3.30469H126.424V7.07812ZM144.307 7.24219V8.62305H135.502V1.73242H144.211V3.14062H137.279V4.45312H143.924V5.82031H137.279V7.24219H144.307ZM145.551 10.3867V11.8086H134.162V10.3867H145.551ZM149.393 1.51367C150.979 1.51367 152.141 2.49805 152.154 3.87891C152.141 5.25977 150.979 6.23047 149.393 6.23047C147.779 6.23047 146.604 5.25977 146.604 3.87891C146.604 2.49805 147.779 1.51367 149.393 1.51367ZM149.393 2.79883C148.641 2.79883 148.148 3.20898 148.148 3.87891C148.148 4.54883 148.641 4.93164 149.393 4.94531C150.104 4.93164 150.596 4.54883 150.609 3.87891C150.596 3.20898 150.104 2.79883 149.393 2.79883ZM157.199 0.816406V13.2578H155.559V0.816406H157.199ZM154.684 1.02148V12.6836H153.043V10.1406H151.061V8.81445H153.043V1.02148H154.684ZM146.084 6.88672C147.752 6.90039 150.445 6.88672 152.414 6.58594L152.551 7.88477C151.806 8.02832 150.985 8.12402 150.172 8.18555V12.2734H148.531V8.28125C147.697 8.30859 146.911 8.31543 146.275 8.30859L146.084 6.88672ZM161.793 1.69141C163.475 1.69141 164.726 3.0791 164.979 5.31445H167.139V0.816406H168.861V13.2852H167.139V6.70898H164.992C164.808 9.10156 163.529 10.5645 161.793 10.5645C159.906 10.5645 158.553 8.85547 158.566 6.12109C158.553 3.41406 159.906 1.69141 161.793 1.69141ZM161.793 3.26367C160.863 3.26367 160.221 4.27539 160.234 6.12109C160.221 7.98047 160.863 8.97852 161.793 8.97852C162.736 8.97852 163.352 7.98047 163.352 6.12109C163.352 4.27539 162.736 3.26367 161.793 3.26367ZM181.809 6.39453V7.80273H179.293V9.30664C180.038 9.68945 180.448 10.2568 180.455 10.9883C180.441 12.4512 178.814 13.2715 176.121 13.2715C173.387 13.2715 171.76 12.4512 171.76 10.9883C171.76 10.2295 172.197 9.64844 173.004 9.25195V7.80273H170.461V6.39453H181.809ZM176.121 8.71875C176.634 8.71875 177.112 8.74609 177.543 8.80078V7.80273H174.74V8.80078C175.164 8.74609 175.622 8.71875 176.121 8.71875ZM176.121 10.0312C174.398 10.0449 173.523 10.3457 173.537 10.9883C173.523 11.6445 174.398 11.9453 176.121 11.9453C177.803 11.9453 178.691 11.6445 178.705 10.9883C178.691 10.3457 177.803 10.0449 176.121 10.0312ZM176.135 1.00781C178.883 1.00781 180.646 1.92383 180.66 3.42773C180.646 4.9043 178.883 5.79297 176.135 5.79297C173.359 5.79297 171.596 4.9043 171.596 3.42773C171.596 1.92383 173.359 1.00781 176.135 1.00781ZM176.135 2.36133C174.398 2.36133 173.4 2.7168 173.414 3.42773C173.4 4.11133 174.398 4.4668 176.135 4.4668C177.857 4.4668 178.855 4.11133 178.855 3.42773C178.855 2.7168 177.857 2.36133 176.135 2.36133ZM192.432 0.816406V3.81055H194.113V5.25977H192.432V8.10352H190.682V0.816406H192.432ZM186.02 8.58203V9.52539H190.682V8.58203H192.432V13.1211H184.283V8.58203H186.02ZM186.02 11.7539H190.682V10.8652H186.02V11.7539ZM189.943 1.91016V3.27734H182.561V1.91016H185.391V0.734375H187.127V1.91016H189.943ZM186.252 3.63281C188.057 3.63281 189.314 4.50781 189.314 5.83398C189.314 7.16016 188.057 8.03516 186.252 8.03516C184.42 8.03516 183.162 7.16016 183.162 5.83398C183.162 4.50781 184.42 3.63281 186.252 3.63281ZM186.252 4.91797C185.418 4.9043 184.857 5.24609 184.871 5.83398C184.857 6.43555 185.418 6.76367 186.252 6.76367C187.086 6.76367 187.66 6.43555 187.66 5.83398C187.66 5.24609 187.086 4.9043 186.252 4.91797ZM205.42 0.816406V13.2578H203.766V7.00977H202.562V12.6562H200.963V1.02148H202.562V5.61523H203.766V0.816406H205.42ZM199.65 2.25195V3.66016H196.766V8.96484C197.969 8.95801 199.035 8.89648 200.238 8.67773L200.361 10.0996C198.844 10.3867 197.518 10.4277 195.877 10.4414H195.016V2.25195H199.65ZM214.143 1.92383V3.30469H206.76V1.92383H209.59V0.748047H211.326V1.92383H214.143ZM210.451 3.70117C212.256 3.70117 213.514 4.63086 213.514 5.99805C213.514 7.36523 212.256 8.29492 210.451 8.29492C208.646 8.29492 207.361 7.36523 207.361 5.99805C207.361 4.63086 208.646 3.70117 210.451 3.70117ZM210.451 5.01367C209.617 5.01367 209.057 5.35547 209.07 5.99805C209.057 6.62695 209.617 6.95508 210.451 6.95508C211.285 6.95508 211.859 6.62695 211.859 5.99805C211.859 5.35547 211.285 5.01367 210.451 5.01367ZM216.631 0.816406V4.04297H218.312V5.46484H216.631V8.62305H214.881V0.816406H216.631ZM216.631 9.14258V13.2578H214.881V10.5371H208.25V9.14258H216.631ZM59.9102 19.1855C61.7969 19.1855 63.2324 20.3613 63.2324 22.0293C63.2324 23.6699 61.7969 24.8594 59.9102 24.8594C57.9824 24.8594 56.5605 23.6699 56.5605 22.0293C56.5605 20.3613 57.9824 19.1855 59.9102 19.1855ZM59.9102 20.6074C58.9531 20.6074 58.2422 21.127 58.2559 22.0293C58.2422 22.918 58.9531 23.4512 59.9102 23.4512C60.8535 23.4512 61.5508 22.918 61.5508 22.0293C61.5508 21.127 60.8535 20.6074 59.9102 20.6074ZM66.7871 18.8164V25.0508H65.0371V18.8164H66.7871ZM66.7871 25.5703V28.9473H60.1699V29.7539H67.1289V31.1211H58.4609V27.6758H65.0508V26.9102H58.4336V25.5703H66.7871ZM78.3398 18.8301V22.3301H80.0215V23.7656H78.3398V27.9902H76.5898V18.8301H78.3398ZM78.791 29.6445V31.0391H70.2734V27.0469H72.0098V29.6445H78.791ZM70.5742 19.7051V21.5098H73.1172V19.7051H74.8672V26.0078H68.8379V19.7051H70.5742ZM70.5742 24.6406H73.1172V22.8496H70.5742V24.6406ZM91.3281 18.8164V31.2578H89.6738V25.0098H88.4707V30.6562H86.8711V19.0215H88.4707V23.6152H89.6738V18.8164H91.3281ZM85.5586 20.252V21.6602H82.6738V26.9648C83.877 26.958 84.9434 26.8965 86.1465 26.6777L86.2695 28.0996C84.752 28.3867 83.4258 28.4277 81.7852 28.4414H80.9238V20.252H85.5586ZM100.051 19.9238V21.3047H92.668V19.9238H95.498V18.748H97.2344V19.9238H100.051ZM96.3594 21.7012C98.1641 21.7012 99.4219 22.6309 99.4219 23.998C99.4219 25.3652 98.1641 26.2949 96.3594 26.2949C94.5547 26.2949 93.2695 25.3652 93.2695 23.998C93.2695 22.6309 94.5547 21.7012 96.3594 21.7012ZM96.3594 23.0137C95.5254 23.0137 94.9648 23.3555 94.9785 23.998C94.9648 24.627 95.5254 24.9551 96.3594 24.9551C97.1934 24.9551 97.7676 24.627 97.7676 23.998C97.7676 23.3555 97.1934 23.0137 96.3594 23.0137ZM102.539 18.8164V22.043H104.221V23.4648H102.539V26.623H100.789V18.8164H102.539ZM102.539 27.1426V31.2578H100.789V28.5371H94.1582V27.1426H102.539ZM115.309 18.8301V28.2227H113.559V27.2383H111.18V26.0488H113.559V18.8301H115.309ZM115.582 29.6445V31.0391H106.312V27.3203H108.049V25.666C106.935 25.7139 105.875 25.7207 104.932 25.7207L104.727 24.3398C107.01 24.3262 110.086 24.2988 112.711 23.9707L112.807 25.2148C111.822 25.3789 110.804 25.4951 109.799 25.5703V27.9355H108.049V29.6445H115.582ZM108.773 19.2539C110.578 19.2402 111.877 20.1562 111.877 21.4824C111.877 22.8086 110.578 23.6699 108.773 23.6699C106.928 23.6699 105.643 22.8086 105.643 21.4824C105.643 20.1562 106.914 19.2402 108.773 19.2539ZM108.773 20.5254C107.885 20.5254 107.283 20.8672 107.297 21.4824C107.283 22.084 107.885 22.4121 108.773 22.4121C109.607 22.4121 110.209 22.084 110.223 21.4824C110.209 20.8672 109.607 20.5254 108.773 20.5254ZM63.7656 38.2656V39.1406H56.5195V38.2656H59.6094V36.8984H60.6758V38.2656H63.7656ZM60.1426 39.7695C61.8926 39.7832 63.0547 40.6309 63.0684 41.9707C63.0547 43.2969 61.8926 44.1582 60.1426 44.1582C58.3926 44.1582 57.2031 43.2969 57.2168 41.9707C57.2031 40.6309 58.3926 39.7832 60.1426 39.7695ZM60.1426 40.6035C58.9941 40.6172 58.2285 41.1504 58.2422 41.9707C58.2285 42.7773 58.9941 43.2969 60.1426 43.2969C61.2773 43.2969 62.043 42.7773 62.0566 41.9707C62.043 41.1504 61.2773 40.6172 60.1426 40.6035ZM65.9941 36.9531V40.3301H67.8262V41.2324H65.9941V44.5547H64.9277V36.9531H65.9941ZM65.9941 45.2246V49.1074H64.9277V46.0996H58.0371V45.2246H65.9941ZM72.5977 37.5547C74.416 37.541 75.7148 38.5391 75.7148 40.0293C75.7148 41.5059 74.416 42.5312 72.5977 42.5176C70.7793 42.5312 69.4805 41.5059 69.4805 40.0293C69.4805 38.5391 70.7793 37.541 72.5977 37.5547ZM72.5977 38.4297C71.3809 38.416 70.5195 39.0859 70.5332 40.0293C70.5195 40.9863 71.3809 41.6426 72.5977 41.6289C73.8281 41.6426 74.6895 40.9863 74.6895 40.0293C74.6895 39.0859 73.8281 38.416 72.5977 38.4297ZM78.6133 36.9668V49.1211H77.5605V36.9668H78.6133ZM68.5645 43.5566C70.8477 43.5566 73.9648 43.5156 76.6719 43.1191L76.7402 43.9258C75.5781 44.1377 74.3682 44.2676 73.1992 44.3359V48.7383H72.1328V44.4043C70.8955 44.459 69.7266 44.4658 68.7148 44.4727L68.5645 43.5566ZM90.5078 40.6719V41.5469H86.7617V43.3242H91.7793V44.2129H80.6914V43.3242H85.709V41.5469H82.209V37.418H83.2617V40.6719H90.5078ZM90.6035 47.9453V48.8477H82.1133V45.2109H83.1797V47.9453H90.6035ZM103.906 43.1738V44.0625H98.957V46.5508H97.8906V44.0625H92.7773V43.1738H103.906ZM102.457 37.5547V41.7793H94.2266V37.5547H102.457ZM95.2793 38.4023V40.918H101.391V38.4023H95.2793ZM102.662 47.9453V48.8477H94.1992V45.3477H95.2793V47.9453H102.662ZM114.926 36.9668V43.8711H113.859V36.9668H114.926ZM114.926 44.5684V48.9434H107.023V44.5684H114.926ZM108.076 45.4434V48.0684H113.873V45.4434H108.076ZM109.197 38.6348C109.184 40.3574 110.496 41.875 112.287 42.5039L111.74 43.3242C110.332 42.8389 109.211 41.8135 108.664 40.4805C108.124 41.9023 106.989 43.0234 105.533 43.5566L104.986 42.709C106.832 42.0664 108.104 40.4258 108.104 38.6348V37.4453H109.197V38.6348ZM121.064 40.2207C121.064 42.3672 122.486 44.5684 124.209 45.416L123.553 46.2773C122.213 45.5732 121.092 44.1377 120.559 42.4492C120.012 44.2471 118.863 45.7783 117.496 46.5098L116.812 45.6484C118.59 44.7734 119.998 42.4355 120.012 40.2207V38.0059H121.064V40.2207ZM126.396 36.9531V41.8887H128.434V42.8184H126.396V49.1074H125.33V36.9531H126.396ZM136.924 40.2207C136.91 42.4355 138.428 44.6777 140.219 45.4844L139.562 46.332C138.182 45.6553 136.985 44.2266 136.404 42.4902C135.837 44.3291 134.641 45.8604 133.219 46.5781L132.535 45.6758C134.34 44.8418 135.844 42.5312 135.857 40.2207V38.0059H136.924V40.2207ZM142.625 36.9531V49.1348H141.545V36.9531H142.625ZM150.76 38.7441C150.76 40.8223 153.139 42.6816 155.258 43.0781L154.766 43.9805C152.934 43.5566 150.999 42.251 150.213 40.4531C149.427 42.2441 147.499 43.5498 145.66 43.9805L145.168 43.0781C147.273 42.668 149.639 40.8359 149.639 38.7441V37.8145H150.76V38.7441ZM155.832 46.5645V47.4531H144.703V46.5645H155.832ZM162.012 37.7461V38.6484H158.402V40.1523H161.506V41H158.402V42.6543C160.159 42.6475 161.253 42.5859 162.559 42.3398L162.668 43.2012C161.26 43.4609 160.111 43.5293 158.143 43.5293H157.377V37.7461H162.012ZM167.125 36.9531V44.2812H166.1V36.9531H167.125ZM164.76 37.1719V44.1719H163.721V40.9043H162.08V40.0156H163.721V37.1719H164.76ZM167.125 44.8418V48.9434H159.1V44.8418H167.125ZM160.152 45.7168V48.0684H166.072V45.7168H160.152Z" fill="#878E95"/>
<g clip-path="url(#clip0_3_181)">
<path d="M35.4378 37.1783C35.4378 37.1783 35.0972 37.535 35.0569 37.5793C35.1033 37.6217 35.867 38.3552 35.867 38.3552L35.4337 38.8086C35.4337 38.8086 34.666 38.0771 34.6217 38.0327C34.5814 38.0751 34.2529 38.4176 34.2126 38.4599C34.2569 38.5023 35.0247 39.2358 35.0247 39.2358C35.0247 39.2358 34.4907 39.7939 34.4463 39.8403C34.4887 39.8806 34.7829 40.1627 34.8252 40.201C34.8695 40.1526 37.598 37.2992 37.6443 37.2509C37.602 37.2126 37.3058 36.9285 37.2655 36.8882C37.2211 36.9345 36.2761 37.9239 36.2761 37.9239C36.2761 37.9239 35.5103 37.1904 35.464 37.1481C35.4519 37.1622 35.4358 37.1763 35.4358 37.1763L35.4378 37.1783Z" fill="#919195"/>
<path d="M36.5924 36.7451C36.5441 36.7007 34.9642 35.1934 34.9159 35.1471C34.9038 35.1612 34.8897 35.1753 34.8897 35.1753C34.8897 35.1753 32.5219 37.6539 32.4756 37.7043C32.5159 37.7446 32.8121 38.0267 32.8524 38.065C32.9007 38.0166 34.8876 35.935 34.8876 35.935C34.8876 35.935 36.135 37.128 36.1834 37.1723L36.5924 36.7451Z" fill="#919195"/>
<path d="M7.63728 37.9541C7.22418 38.341 7.23627 39.0302 7.66751 39.4917C8.09874 39.9531 8.7859 40.0156 9.19899 39.6287C9.61411 39.2418 9.6 38.5506 9.17078 38.0892C8.73955 37.6277 8.0524 37.5672 7.63728 37.9562V37.9541ZM8.01612 38.3511C8.23577 38.1456 8.60051 38.1758 8.82821 38.4196C9.05592 38.6635 9.06197 39.0302 8.8403 39.2358C8.61864 39.4413 8.25391 39.4111 8.0262 39.1672C7.80051 38.9234 7.79648 38.5567 8.01612 38.3511Z" fill="#919195"/>
<path d="M11.4257 37.5189C11.4257 37.5189 11.1013 37.1723 11.063 37.132C11.0186 37.1723 10.5874 37.5733 10.5874 37.5733C10.5874 37.5733 10.1703 37.1239 10.128 37.0816C10.0877 37.1179 9.7995 37.3859 9.7592 37.4242C9.80152 37.4665 10.2207 37.9159 10.2207 37.9159C10.2207 37.9159 9.64232 38.4559 9.59799 38.4962C9.63628 38.5365 9.94661 38.873 9.98691 38.9133C10.0333 38.873 11.4055 37.5894 11.4519 37.5471C11.4398 37.533 11.4257 37.5189 11.4257 37.5189Z" fill="#919195"/>
<path d="M9.68867 35.6408C9.68867 35.6408 7.599 35.7254 7.53452 35.7274C7.53653 35.7839 7.56877 36.2433 7.5728 36.2977C7.63527 36.2937 9.11638 36.2111 9.11638 36.2111C9.11638 36.2111 8.93502 37.5995 8.92494 37.662C8.97935 37.668 9.43477 37.7325 9.49119 37.7385C9.49925 37.674 9.72494 35.7093 9.73502 35.6368C9.71285 35.6368 9.69069 35.6368 9.69069 35.6368L9.68867 35.6408Z" fill="#919195"/>
<path d="M26.7889 44.4871L27.3552 44.3904L26.7204 40.6665L26.6821 40.6725C26.6821 40.6725 26.2126 40.7531 26.1562 40.7632C26.1642 40.8257 26.3516 41.9078 26.3516 41.9078L26.0191 41.9662C26.0191 41.9662 25.8358 40.8841 25.8237 40.8196L25.2554 40.9164L25.6564 43.2821C25.207 43.3567 23.865 43.5884 23.865 43.5884L23.5547 41.7688C23.5547 41.7688 24.8181 41.5531 24.8786 41.5431L24.8 41.0715C24.8 41.0715 24.796 41.0715 24.7899 41.0715L22.9118 41.3919C23.0287 42.063 23.3814 44.1305 23.3894 44.1849L25.7431 43.7839L25.8902 44.6423L26.4604 44.5456C26.4504 44.4811 26.1078 42.464 26.1078 42.464L26.4383 42.4075C26.4383 42.4075 26.7829 44.4267 26.7929 44.4871H26.7889Z" fill="#919195"/>
<path d="M15.2846 41.6055C15.2846 41.6055 15.2181 41.5713 15.1093 41.5128L15.8126 40.197C15.7965 40.1889 15.7804 40.1808 15.7804 40.1808C15.7804 40.1808 12.8282 38.605 12.7718 38.5748L12.53 39.0282C12.5864 39.0604 15.061 40.3803 15.061 40.3803C15.061 40.3803 14.7788 40.9083 14.5995 41.2448L11.8408 39.7718L11.601 40.2232C11.6554 40.2514 12.6831 40.7995 12.6831 40.7995C12.6831 40.7995 12.3929 41.3416 12.3668 41.3939L12.8826 41.67C12.9108 41.6176 13.201 41.0756 13.201 41.0756L13.6605 41.3194C13.6605 41.3194 13.3723 41.8615 13.3441 41.9138L13.862 42.1919C13.8902 42.1395 14.1804 41.5975 14.1804 41.5975C14.1804 41.5975 15.0227 42.0468 15.0771 42.0771L15.3189 41.6237C15.3028 41.6156 15.2867 41.6075 15.2867 41.6075L15.2846 41.6055ZM12.1733 40.9224L11.6615 40.6504L11.0287 41.8373L14.134 43.4957L14.3738 43.0423C14.3174 43.0121 11.7783 41.6579 11.7783 41.6579C11.7783 41.6579 12.1431 40.9768 12.1733 40.9224Z" fill="#919195"/>
<path d="M17.733 43.2237C17.7149 43.2217 17.6967 43.2176 17.6967 43.2176C17.6967 43.2176 17.2191 43.1411 17.1627 43.133L16.9532 44.4609L20.4534 45.0151L20.532 44.5073C20.4695 44.4992 17.602 44.0438 17.602 44.0438C17.602 44.0438 17.7229 43.2821 17.733 43.2196V43.2237ZM20.9108 41.94C20.9108 41.94 21.0055 41.3456 21.0156 41.2871C20.9975 41.2871 20.9773 41.2831 20.9773 41.2831C20.9773 41.2831 20.5018 41.2086 20.4453 41.1985L20.1995 42.7421L19.6212 42.6494L19.8529 41.1743C19.8348 41.1703 19.8166 41.1683 19.8166 41.1683C19.8166 41.1683 17.4892 40.7995 17.4227 40.7894L17.3441 41.2972C17.4066 41.3053 19.2 41.5894 19.2 41.5894C19.2 41.5894 19.0952 42.2564 19.0469 42.5587C18.7244 42.5083 18.4725 42.468 18.4725 42.468C18.4725 42.468 18.5491 41.9844 18.5572 41.928C18.539 41.928 18.5189 41.9239 18.5189 41.9239C18.5189 41.9239 18.0333 41.8453 17.9768 41.8373C17.9688 41.8957 17.8902 42.3753 17.8902 42.3753C17.8902 42.3753 17.068 42.2463 17.0096 42.2363L16.929 42.7441L20.1169 43.2479L20.0242 43.8383L20.5945 43.929C20.6045 43.8665 20.8302 42.4418 20.8302 42.4418C20.8302 42.4418 21.3562 42.5244 21.4146 42.5345L21.4932 42.0327C21.4348 42.0227 20.9088 41.94 20.9088 41.94H20.9108Z" fill="#919195"/>
<path d="M31.2484 38.4337C31.2484 38.4337 30.8353 38.6635 30.7829 38.6917C30.8131 38.7461 31.8267 40.5819 31.861 40.6363C31.9093 40.6101 32.3103 40.3884 32.3587 40.3602C32.3285 40.3058 31.8388 39.4211 31.8388 39.4211C31.8388 39.4211 32.2942 39.1693 32.3466 39.141C32.3224 39.0927 32.129 38.7501 32.1028 38.7018C32.0524 38.73 31.597 38.9819 31.597 38.9819C31.597 38.9819 31.3108 38.466 31.2826 38.4116C31.2665 38.4217 31.2504 38.4317 31.2504 38.4317L31.2484 38.4337Z" fill="#919195"/>
<path d="M32.4474 40.6141C32.4474 40.6141 29.3904 42.3048 29.334 42.335C29.3602 42.3834 29.5537 42.732 29.5819 42.7783C29.6363 42.7461 32.2277 41.3154 32.2277 41.3154C32.2277 41.3154 32.5723 41.9421 32.6025 41.9945C32.6509 41.9662 33.0519 41.7446 33.1023 41.7164C33.0741 41.662 32.5118 40.6463 32.4816 40.5939C32.4655 40.602 32.4474 40.6121 32.4474 40.6121V40.6141Z" fill="#919195"/>
<path d="M30.2993 39.0383L29.3723 39.5521H29.3703L29.201 39.2458L28.6952 39.5259L28.8645 39.8322L27.9214 40.3542L28.1572 40.7773L28.4957 40.5899C28.4816 40.7894 28.5199 40.9929 28.6207 41.1824C28.9149 41.7123 29.6081 41.8917 30.1663 41.5814C30.7265 41.273 30.9441 40.5899 30.6519 40.0599C30.5471 39.8725 30.396 39.7335 30.2186 39.6388L30.533 39.4635L30.2993 39.0403V39.0383ZM29.9103 41.0856C29.6423 41.2348 29.3098 41.1481 29.1708 40.8942C29.0277 40.6403 29.1345 40.3139 29.4005 40.1647C29.6685 40.0176 29.999 40.1023 30.1401 40.3582C30.2791 40.6121 30.1763 40.9385 29.9103 41.0877V41.0856Z" fill="#919195"/>
<path d="M41.6 26.5466L41.1647 26.2725C41.6262 26.061 41.6403 25.6015 41.6403 25.6015C41.6584 25.2428 41.4469 24.9849 41.1426 24.9869C40.7375 24.9869 40.5884 25.3476 40.4171 25.7607C40.2317 26.206 39.9456 26.6715 39.3793 26.7058C38.6942 26.7481 38.2307 26.1395 38.267 25.3073C38.3013 24.4952 38.8615 24.1083 38.8615 24.1083L39.3773 24.3461C39.3773 24.3461 38.6519 24.5839 38.6055 25.4584C38.5834 25.8453 38.8675 26.1456 39.2463 26.1436C39.6514 26.1416 39.7965 25.795 39.9637 25.3919C40.1491 24.9405 40.3627 24.4307 41.0096 24.4267C41.6403 24.4227 42.0212 24.9224 41.9829 25.7002C41.9829 25.7002 41.9708 26.196 41.6 26.5466Z" fill="#919195"/>
<path d="M3.69974 32.1808L4.21158 32.2373C3.89118 32.6282 4.07657 33.0473 4.07657 33.0473C4.21763 33.3778 4.51989 33.5189 4.79395 33.3839C5.15869 33.2045 5.1345 32.8176 5.10629 32.3703C5.07808 31.8887 5.13047 31.3446 5.62619 31.0665C6.2267 30.73 6.9078 31.0725 7.2403 31.8383C7.56272 32.5839 7.23022 33.1763 7.23022 33.1763L6.66196 33.1884C6.66196 33.1884 7.21007 32.6584 6.86952 31.8524C6.7204 31.4957 6.3335 31.3486 5.99294 31.5179C5.62821 31.6972 5.65037 32.07 5.67657 32.5073C5.7068 32.995 5.73904 33.5471 5.1607 33.8332C4.59445 34.1133 4.03224 33.8312 3.72795 33.1159C3.72795 33.1159 3.51838 32.6625 3.69974 32.1849V32.1808Z" fill="#919195"/>
<path d="M3.16172 19.3567L3.12544 19.3929C3.05895 19.4594 2.68413 19.8484 2.52091 20.6242C2.27305 21.8131 2.82519 22.6957 3.91738 22.9234C5.03174 23.1572 5.84585 22.603 6.08766 21.4423C6.18237 20.9869 6.20051 20.5214 6.14207 20.0499L6.13602 20.0055L4.77985 19.7214L4.66298 20.2736L5.80756 20.5113C5.87406 20.7773 5.84786 21.0514 5.80756 21.2388C5.62015 22.1375 4.98338 22.5204 4.01814 22.3189C3.11335 22.1295 2.65391 21.535 2.82519 20.7088C2.91184 20.2937 3.1859 19.8846 3.52444 19.6952L3.54862 19.6811L3.16172 19.3587V19.3567Z" fill="#919195"/>
<path d="M6.59747 12.2877L6.27909 12.7411L7.0811 14.4176L5.2272 14.2322L4.82216 14.8066L7.23626 14.9476C7.26448 14.9678 8.44332 15.796 8.44332 15.796L8.76775 15.3365C8.76775 15.3365 7.55062 14.4801 7.52443 14.464L6.59546 12.2897L6.59747 12.2877Z" fill="#919195"/>
<path d="M39.5849 34.468L39.8086 33.9642L38.6922 32.4751L40.5481 32.2957L40.8322 31.6529L38.4383 31.9854C38.404 31.9713 37.0882 31.3889 37.0882 31.3889L36.8604 31.9048C36.8604 31.9048 38.2227 32.5053 38.2489 32.5174L39.5849 34.47V34.468Z" fill="#919195"/>
<path d="M5.47909 17.2186L4.73148 15.0322L4.47758 15.5461L5.18085 17.6015C5.08614 17.5552 3.79849 16.9204 3.79849 16.9204L3.55063 17.4262L6.71839 18.9879L6.96826 18.4821L5.43274 17.7264L7.60302 17.1965L7.91939 16.5537L5.47708 17.2186H5.47909Z" fill="#919195"/>
<path d="M16.0645 7.72946L17.1083 5.67001L16.5622 5.84533L15.5809 7.78185C15.5486 7.6811 15.1093 6.31686 15.1093 6.31686L14.5713 6.49218L15.6615 9.85137L16.1995 9.67807L15.6695 8.04986L17.5617 9.23676L18.2428 9.0151L16.0645 7.72946Z" fill="#919195"/>
<path d="M19.0106 8.84785L19.4297 8.80554L20.0987 6.01662L21.2373 8.62821L21.7189 8.58186L22.5451 4.94861L22.0595 4.99899L21.3904 7.87052L20.2197 5.17833L19.8972 5.21057L19.2383 8.07606L18.13 5.38589L17.5355 5.44231L19.0106 8.84785Z" fill="#919195"/>
<path d="M24.4957 5.2146L24.2479 5.18437L22.3093 8.55163L22.7909 8.61409L23.5063 7.35062L24.5884 7.4816L24.9612 8.87807L25.6222 8.95666L24.4998 5.2146H24.4957ZM24.2156 5.9884C24.2761 6.19596 24.4574 6.99394 24.4977 7.135L23.6373 7.03022L24.2136 5.9884H24.2156Z" fill="#919195"/>
<path d="M38.3291 13.6298L35.4053 15.6049L35.72 16.0708L38.6438 14.0957L38.3291 13.6298Z" fill="#919195"/>
<path d="M38.2046 27.3323L38.1152 27.8853L41.6005 28.4486L41.6899 27.8955L38.2046 27.3323Z" fill="#919195"/>
<path d="M33.0559 10.8408C32.5622 11.5602 32.0423 11.6771 31.4902 11.2962C30.8655 10.867 30.8453 10.4378 31.3673 9.67606L32.4816 8.05188L32.0202 7.7355L30.8796 9.402C30.6358 9.76271 30.4121 10.1738 30.5129 10.597C30.5995 10.9617 30.8474 11.2801 31.2564 11.5622C32.0383 12.0982 32.7698 11.9672 33.3159 11.1693L34.5048 9.43626L34.1743 9.20855L33.0559 10.8408Z" fill="#919195"/>
<path d="M10.2408 11.4212C10.8514 12.0458 10.8635 12.5758 10.3839 13.0453C9.84182 13.5753 9.41663 13.5128 8.77179 12.8519L7.39345 11.4433L6.99245 11.8363L8.40706 13.2791C8.71335 13.5854 9.07607 13.8856 9.50731 13.8675C9.88413 13.8514 10.2448 13.672 10.5995 13.3254C11.2786 12.6625 11.2887 11.9189 10.6136 11.2277L9.14459 9.72644L8.85643 10.0086L10.2408 11.4191V11.4212Z" fill="#919195"/>
<path d="M4.30831 28.0741C5.15668 27.8725 5.61814 28.1345 5.7733 28.7874C5.9466 29.5249 5.67456 29.8574 4.77582 30.069L2.85743 30.5244L2.98841 31.0705L4.95315 30.603C5.37431 30.4982 5.81763 30.3451 6.02519 29.9622C6.20655 29.6338 6.25491 29.2267 6.14005 28.7451C5.9204 27.8222 5.27154 27.4312 4.33249 27.6549L2.28917 28.1406L2.38186 28.5335L4.3063 28.0761L4.30831 28.0741Z" fill="#919195"/>
<path d="M36.5139 17.398L36.661 17.6821L40.4796 17.3879L40.2458 16.9325L37.2393 17.2247L39.2282 14.9536L38.9421 14.3934L36.5139 17.398Z" fill="#919195"/>
<path d="M37.874 19.5622C37.9788 19.53 39.0025 19.2055 39.1053 19.1733L39.4761 20.34L39.8166 20.2312L39.4478 19.0625C39.5486 19.0302 40.4614 18.7421 40.5602 18.7118L40.9632 19.9834L41.2534 19.8927L40.6831 18.0871L37.3159 19.1491L37.8942 20.9849L38.2871 20.862L37.8761 19.5582L37.874 19.5622Z" fill="#919195"/>
<path d="M41.5254 29.0977L41.2413 29.0171L40.9451 30.071C40.8282 30.0388 37.8297 29.1945 37.8297 29.1945L37.6786 29.7325L40.794 30.6091L40.5098 31.6206L40.794 31.6992L41.5254 29.0957V29.0977Z" fill="#919195"/>
<path d="M38.0494 21.541L38.1179 22.0972L39.8207 21.8735L38.3154 23.6005L38.3919 24.195L39.8972 22.4781C39.996 23.0524 40.4615 23.5078 40.9713 23.4413C41.5496 23.3667 41.7975 22.9657 41.6927 22.1879L41.5496 21.0836L38.0494 21.5431V21.541ZM40.1532 21.8292C40.2559 21.8151 41.2191 21.6902 41.3219 21.6761L41.3924 22.2081C41.4509 22.6494 41.2171 22.869 40.9008 22.8992C40.5703 22.9295 40.2982 22.7904 40.2197 22.2927L40.1552 21.8312L40.1532 21.8292Z" fill="#919195"/>
<path d="M12.7053 7.34256L12.3627 7.55818L13.7088 9.68009C12.4655 9.35768 10.3033 8.86196 10.3033 8.86196L10.0615 9.01511L11.9496 11.9975L12.2902 11.7798C12.2902 11.7798 11.5063 10.5385 10.8776 9.54508L14.3899 10.4499L14.5935 10.3209L12.7033 7.33853L12.7053 7.34256Z" fill="#919195"/>
<path d="M2.06751 23.7819L2.07557 24.1869L4.58841 24.1365C3.66952 25.0312 2.12594 26.6232 2.12594 26.6232L2.12997 26.9093L5.66045 26.8388L5.65239 26.4358C5.65239 26.4358 4.18337 26.466 3.00856 26.4882L5.60201 23.9531L5.59597 23.7113L2.06549 23.7839L2.06751 23.7819Z" fill="#919195"/>
<path d="M29.8116 6.63525L29.4287 6.50629L28.6247 8.88614C28.0947 7.71939 27.1174 5.72644 27.1174 5.72644L26.8454 5.63374L25.7169 8.97883L26.0998 9.10981C26.0998 9.10981 26.5713 7.71737 26.9441 6.60301L28.4514 9.90377L28.6811 9.98034L29.8076 6.63525H29.8116Z" fill="#919195"/>
<path d="M37.6302 12.596L37.3541 12.2997L35.5123 14.0086C35.603 12.731 35.6977 10.5123 35.6977 10.5123L35.5002 10.3028L32.9128 12.7048L33.1889 13.001C33.1889 13.001 34.267 12.0035 35.1275 11.2035L34.8776 14.8227L35.0408 15L37.6302 12.598V12.596Z" fill="#919195"/>
<path d="M23.2725 20.5879C23.2725 17.7043 25.606 15.3647 28.4816 15.3647C29.1788 15.3647 29.8418 15.5038 30.4484 15.7516C25.8398 11.4997 18.6579 11.6086 14.1864 16.0821C9.85188 20.4166 9.61612 27.2942 13.473 31.9088C14.4746 30.597 15.8448 29.0856 17.5275 27.9048C18.8413 26.9819 20.663 26.0569 22.128 25.9199C23.5144 25.7889 25.5798 25.9219 26.8292 26.5224C25.8519 25.5209 24.8201 24.3965 24.3164 23.7234C23.6615 22.8509 23.2725 21.7647 23.2725 20.5879Z" fill="url(#paint0_linear_3_181)"/>
<path d="M22.9038 24.4066L17.3985 13.803C16.3809 14.2927 15.4217 14.9375 14.5491 15.7375L22.8675 24.3924L22.9038 24.4066Z" fill="url(#paint1_linear_3_181)"/>
<path d="M22.932 24.4186L23.6614 12.7048C22.7083 12.6101 21.7471 12.6302 20.8 12.7673L22.9219 24.4126L22.932 24.4166V24.4186Z" fill="url(#paint2_linear_3_181)"/>
<path d="M22.8675 24.3944L11.5265 20.1808C11.1416 21.1864 10.8998 22.2363 10.801 23.2962L22.8977 24.4247L22.8675 24.3944Z" fill="url(#paint3_linear_3_181)"/>
<path d="M10.8715 26.0751C10.9904 26.8952 11.196 27.7013 11.4882 28.4851L22.8655 24.4529L10.8715 26.073V26.0751Z" fill="url(#paint4_linear_3_181)"/>
<path d="M13.2554 34.7804C12.9149 34.4841 12.3305 33.932 11.8065 33.2569C9.41058 30.5667 6.67002 23.5118 11.2282 17.1118C13.1083 14.4741 15.8065 12.6967 18.4887 11.9773C24.7416 10.2987 29.5456 13.2509 31.7441 15.6327C31.9879 15.8987 31.9537 16.2373 31.7662 16.3924C31.4942 16.6222 31.2484 16.5033 30.7003 16.3421C29.8418 16.0942 29.1043 16.0358 28.3123 16.1365C26.4766 16.3723 24.8846 18.0751 25.1063 20.4529C25.3058 22.6252 26.9804 24.1929 28.1572 25.2307C32.2861 28.868 30.9058 32.7673 30.5693 33.6217C29.4287 36.5315 26.5008 38.5809 22.7063 38.5809C21.1305 38.5809 18.8534 38.1738 16.5622 36.7209C16.4735 36.6826 16.3869 36.5637 16.4957 36.3683C16.671 35.9249 17.4005 34.6353 17.7169 34.2645C18.8534 35.5783 20.7738 36.8156 22.9078 36.8942C25.8217 37.001 27.7018 35.4232 28.3889 33.4202C29.1627 31.1693 28.3406 28.8781 26.1622 26.8086C24.2861 25.0252 22.6096 23.3748 22.5108 20.5456C22.3859 16.9224 25.5416 14.7683 28.4715 14.9133C28.5602 14.9174 24.4212 11.931 19.1033 13.7083C16.5018 14.5829 14.9461 16.1164 14.1965 16.9889C14.0856 17.1239 14.1562 17.2287 14.1945 17.2831C14.2771 17.402 16.0846 19.9209 16.0846 19.9209L12.8262 19.1713C12.8262 19.1713 12.6892 19.137 12.6227 19.2499C11.5869 21.0373 10.0594 26.2 13.469 30.9053C13.469 30.9053 16.3728 26.3068 22.14 25.9139C22.5229 25.8877 22.4746 26.0247 22.2227 26.1174C17.072 28.0096 15.0388 31.7879 13.7249 34.6997C13.6443 34.8791 13.4307 34.9335 13.2574 34.7783L13.2554 34.7804Z" fill="#00467F"/>
<path d="M18.5652 31.2317C18.5652 31.2317 18.8877 31.0887 18.9783 31.0383V33.271H19.3814V30.6433L19.3169 30.601L19.2967 30.6111C19.0025 30.7562 18.7003 30.8932 18.4464 30.998L18.5652 31.2317Z" fill="#919195"/>
<path d="M20.7093 31.9592C21.0378 31.9592 21.197 32.1285 21.197 32.4751C21.197 32.8217 20.9773 33.0594 20.6348 33.0594C20.3889 33.0594 20.2217 32.8942 20.1612 32.8237L20.1108 32.7652L20.0141 33.1118L20.0463 33.128C20.1874 33.1945 20.3647 33.263 20.6287 33.263C21.205 33.263 21.6242 32.9103 21.6242 32.4267C21.6242 31.9834 21.2796 31.8564 21.072 31.8202C21.2997 31.7234 21.5033 31.5159 21.5033 31.2035C21.5033 30.8327 21.2131 30.6071 20.7476 30.605C20.3526 30.605 20.1511 30.863 20.1511 30.863L20.3244 31.1632L20.3526 31.0786C20.399 30.9436 20.5461 30.8066 20.7335 30.8066C20.8967 30.8066 21.0942 30.9154 21.0942 31.2277C21.0942 31.4675 21.0257 31.7577 20.7093 31.7577L20.4997 31.7395V31.9874C20.4997 31.9874 20.6186 31.9572 20.7093 31.9592Z" fill="#919195"/>
<path d="M22.1763 32.739L22.2811 33.1642C22.2811 33.1642 22.4504 33.261 22.6861 33.261C23.3592 33.2569 23.8307 32.6282 23.8307 31.7214C23.8307 30.7118 23.2161 30.603 22.9501 30.603C22.4383 30.603 22.0776 30.9496 22.0776 31.4453C22.0776 31.9411 22.3718 32.2292 22.8453 32.2292C23.0851 32.2292 23.2746 32.1345 23.4116 31.9592C23.3834 32.5234 23.1617 33.0393 22.7002 33.0413C22.3295 33.0413 22.1723 32.737 22.1723 32.737L22.1763 32.739ZM22.9098 32.0096C22.6277 32.0096 22.4887 31.8242 22.4887 31.4453C22.4887 31.0665 22.674 30.8045 22.9481 30.8045C23.2222 30.8045 23.4055 31.0222 23.4055 31.3486C23.4055 31.6751 23.2363 32.0096 22.9098 32.0096Z" fill="#919195"/>
<path d="M25.4348 31.7496C25.6645 31.6469 25.8136 31.4393 25.8136 31.1935C25.8136 30.9214 25.6161 30.603 25.0579 30.603C24.6348 30.603 24.3164 30.8751 24.3164 31.2378C24.3164 31.5058 24.4977 31.6952 24.6952 31.7698C24.3668 31.8987 24.1834 32.1486 24.1834 32.4872C24.1834 32.9486 24.534 33.261 25.0579 33.261C25.5819 33.261 25.9345 32.9003 25.9345 32.4025C25.9345 31.9431 25.596 31.794 25.4368 31.7496H25.4348ZM24.7013 31.2418C24.7013 31.139 24.7275 30.8045 25.062 30.8045C25.3965 30.8045 25.4247 31.1088 25.4247 31.2418C25.4247 31.3446 25.3985 31.6811 25.062 31.6811C24.7254 31.6811 24.7013 31.3446 24.7013 31.2418ZM25.0559 33.0554C24.7799 33.0554 24.5924 32.8197 24.5924 32.467C24.5924 32.1144 24.7799 31.8806 25.0559 31.8806C25.332 31.8806 25.5194 32.1164 25.5194 32.467C25.5194 32.8176 25.338 33.0554 25.0559 33.0554Z" fill="#919195"/>
</g>
<defs>
<linearGradient id="paint0_linear_3_181" x1="24.6811" y1="25.1904" x2="15.0428" y2="19.7375" gradientUnits="userSpaceOnUse">
<stop stop-color="white"/>
<stop offset="0.2" stop-color="#E2E993"/>
<stop offset="0.76" stop-color="#A6CE39"/>
<stop offset="1" stop-color="#8DC63F"/>
</linearGradient>
<linearGradient id="paint1_linear_3_181" x1="23.8771" y1="21.6035" x2="14.8897" y2="15.5924" gradientUnits="userSpaceOnUse">
<stop stop-color="#E0E995"/>
<stop offset="0.07" stop-color="#D0E17E"/>
<stop offset="0.14" stop-color="#C4DB6D"/>
<stop offset="0.2" stop-color="#C1DA68"/>
<stop offset="0.4" stop-color="#9FC73B"/>
<stop offset="0.7" stop-color="#83BD40"/>
<stop offset="1" stop-color="#6CB545"/>
</linearGradient>
<linearGradient id="paint2_linear_3_181" x1="25.1043" y1="19.7718" x2="16.1148" y2="13.7587" gradientUnits="userSpaceOnUse">
<stop stop-color="#E0E995"/>
<stop offset="0.07" stop-color="#D0E17E"/>
<stop offset="0.14" stop-color="#C4DB6D"/>
<stop offset="0.2" stop-color="#C1DA68"/>
<stop offset="0.4" stop-color="#9FC73B"/>
<stop offset="0.7" stop-color="#83BD40"/>
<stop offset="1" stop-color="#6CB545"/>
</linearGradient>
<linearGradient id="paint3_linear_3_181" x1="20.665" y1="26.4075" x2="11.6756" y2="20.3944" gradientUnits="userSpaceOnUse">
<stop stop-color="#E0E995"/>
<stop offset="0.07" stop-color="#D0E17E"/>
<stop offset="0.14" stop-color="#C4DB6D"/>
<stop offset="0.2" stop-color="#C1DA68"/>
<stop offset="0.4" stop-color="#9FC73B"/>
<stop offset="0.7" stop-color="#83BD40"/>
<stop offset="1" stop-color="#6CB545"/>
</linearGradient>
<linearGradient id="paint4_linear_3_181" x1="19.5587" y1="28.064" x2="10.5673" y2="22.0509" gradientUnits="userSpaceOnUse">
<stop stop-color="#E0E995"/>
<stop offset="0.07" stop-color="#D0E17E"/>
<stop offset="0.14" stop-color="#C4DB6D"/>
<stop offset="0.2" stop-color="#C1DA68"/>
<stop offset="0.4" stop-color="#9FC73B"/>
<stop offset="0.7" stop-color="#83BD40"/>
<stop offset="1" stop-color="#6CB545"/>
</linearGradient>
<clipPath id="clip0_3_181">
<rect width="44" height="44" fill="white" transform="translate(0 3)"/>
</clipPath>
</defs>
</svg>
